<?xml version="1.0" encoding="UTF-8" standalone="no"?>
<!-- Created with Inkscape (http://www.inkscape.org/) -->

<svg
   xmlns:dc="http://purl.org/dc/elements/1.1/"
   xmlns:cc="http://creativecommons.org/ns#"
   xmlns:rdf="http://www.w3.org/1999/02/22-rdf-syntax-ns#"
   xmlns:svg="http://www.w3.org/2000/svg"
   xmlns="http://www.w3.org/2000/svg"
   xmlns:sodipodi="http://sodipodi.sourceforge.net/DTD/sodipodi-0.dtd"
   xmlns:inkscape="http://www.inkscape.org/namespaces/inkscape"
   id="svg2"
   version="1.1"
   inkscape:version="0.91 r13725"
   xml:space="preserve"
   width="333.61624"
   height="333.61749"
   viewBox="0 0 333.61624 333.61749"
   sodipodi:docname="facebook-logo.svg"><metadata
     id="metadata8"><rdf:RDF><cc:Work
         rdf:about=""><dc:format>image/svg+xml</dc:format><dc:type
           rdf:resource="http://purl.org/dc/dcmitype/StillImage" /><dc:title></dc:title></cc:Work></rdf:RDF></metadata><defs
     id="defs6" /><sodipodi:namedview
     pagecolor="#ffffff"
     bordercolor="#666666"
     borderopacity="1"
     objecttolerance="10"
     gridtolerance="10"
     guidetolerance="10"
     inkscape:pageopacity="0"
     inkscape:pageshadow="2"
     inkscape:window-width="1115"
     inkscape:window-height="859"
     id="namedview4"
     showgrid="false"
     fit-margin-top="0"
     fit-margin-left="0"
     fit-margin-right="0"
     fit-margin-bottom="0"
     inkscape:zoom="0.70489707"
     inkscape:cx="117.67352"
     inkscape:cy="331.62685"
     inkscape:window-x="0"
     inkscape:window-y="0"
     inkscape:window-maximized="0"
     inkscape:current-layer="g10" /><g
     id="g10"
     inkscape:groupmode="layer"
     inkscape:label="ink_ext_XXXXXX"
     transform="matrix(1.25,0,0,-1.25,-154.44125,484.30875)"><path
       inkscape:connector-curvature="0"
       id="path52"
       style="fill:#3d539e;fill-opacity:1;fill-rule:nonzero;stroke:none"
       d="m 375.716,120.553 c 8.135,0 14.73,6.595 14.73,14.73 l 0,237.434 c 0,8.137 -6.595,14.73 -14.73,14.73 l -237.432,0 c -8.138,0 -14.731,-6.593 -14.731,-14.73 l 0,-237.434 c 0,-8.135 6.593,-14.73 14.731,-14.73 l 237.432,0" /><path
       inkscape:connector-curvature="0"
       id="path54"
       style="fill:#ffffff;fill-opacity:1;fill-rule:nonzero;stroke:none"
       d="m 307.705,120.553 0,103.355 34.692,0 5.194,40.28 -39.886,0 0,25.717 c 0,11.662 3.238,19.609 19.962,19.609 l 21.33,0.01 0,36.026 c -3.691,0.49 -16.351,1.587 -31.081,1.587 -30.753,0 -51.807,-18.771 -51.807,-53.244 l 0,-29.705 -34.781,0 0,-40.28 34.781,0 0,-103.355 41.596,0" /></g></svg>