<?xml version="1.0" encoding="UTF-8" standalone="no"?>
<!-- Created with Inkscape (http://www.inkscape.org/) -->

<svg
   xmlns:dc="http://purl.org/dc/elements/1.1/"
   xmlns:cc="http://creativecommons.org/ns#"
   xmlns:rdf="http://www.w3.org/1999/02/22-rdf-syntax-ns#"
   xmlns:svg="http://www.w3.org/2000/svg"
   xmlns="http://www.w3.org/2000/svg"
   xmlns:sodipodi="http://sodipodi.sourceforge.net/DTD/sodipodi-0.dtd"
   xmlns:inkscape="http://www.inkscape.org/namespaces/inkscape"
   width="9.2075005mm"
   height="5.95577mm"
   viewBox="0 0 9.2075003 5.95577"
   version="1.1"
   id="svg5744"
   inkscape:version="0.92.1 r15371"
   sodipodi:docname="low-confidence.svg">
  <defs
     id="defs5738" />
  <sodipodi:namedview
     id="base"
     pagecolor="#ffffff"
     bordercolor="#666666"
     borderopacity="1.0"
     inkscape:pageopacity="0.0"
     inkscape:pageshadow="2"
     inkscape:zoom="2.8"
     inkscape:cx="17.399982"
     inkscape:cy="11.255016"
     inkscape:document-units="mm"
     inkscape:current-layer="layer1"
     showgrid="false"
     fit-margin-top="0"
     fit-margin-left="0"
     fit-margin-right="0"
     fit-margin-bottom="0"
     inkscape:window-width="832"
     inkscape:window-height="429"
     inkscape:window-x="550"
     inkscape:window-y="300"
     inkscape:window-maximized="0" />
  <metadata
     id="metadata5741">
    <rdf:RDF>
      <cc:Work
         rdf:about="">
        <dc:format>image/svg+xml</dc:format>
        <dc:type
           rdf:resource="http://purl.org/dc/dcmitype/StillImage" />
        <dc:title></dc:title>
      </cc:Work>
    </rdf:RDF>
  </metadata>
  <g
     inkscape:label="Layer 1"
     inkscape:groupmode="layer"
     id="layer1"
     transform="translate(-105.76513,-201.28111)">
    <path
       style="fill:#81bee8;stroke-width:0.26458332"
       inkscape:connector-curvature="0"
       id="path284"
       d="m 105.76513,201.69915 v 5.11969 a 0.41804167,0.41804167 0 0 0 0.41804,0.41804 h 8.37142 a 0.41804167,0.41804167 0 0 0 0.41804,-0.41804 v -5.11969 a 0.41804167,0.41804167 0 0 0 -0.41804,-0.41804 h -8.38465 a 0.41804167,0.41804167 0 0 0 -0.40481,0.41804 z m 8.24442,4.99798 h -7.27076 a 0.41804167,0.41804167 0 0 1 -0.41804,-0.41804 v -4.04019 a 0.41804167,0.41804167 0 0 1 0.41804,-0.41804 h 7.27076 a 0.41804167,0.41804167 0 0 1 0.41804,0.41804 v 4.04019 a 0.41804167,0.41804167 0 0 1 -0.41804,0.42598 z"
       class="cls-53" />
    <path
       style="fill:#d88327;stroke-width:0.26458332"
       inkscape:connector-curvature="0"
       id="path286"
       d="m 106.67265,203.12526 v 2.70668 a 0.52916667,0.52916667 0 0 0 0.52916,0.52917 h 1.33879 a 0.52916667,0.52916667 0 0 0 0.47361,-0.762 l -1.33879,-2.70669 a 0.52916667,0.52916667 0 0 0 -1.00277,0.23284 z"
       class="cls-17" />
  </g>
</svg>
