<svg width="132" height="40" viewBox="0 0 132 40" fill="none" xmlns="http://www.w3.org/2000/svg">
<rect x="0.999756" y="1" width="130" height="38" fill="#F0F0F0"/>
<path d="M27.7358 13.72V25H26.1838L20.1358 17.128V25H18.2158V13.72H19.7518L25.7998 21.576V13.72H27.7358ZM33.5609 25.128C32.7609 25.128 32.0569 24.9627 31.4489 24.632C30.8515 24.3013 30.3875 23.8267 30.0569 23.208C29.7262 22.5893 29.5609 21.8693 29.5609 21.048C29.5609 20.2267 29.7262 19.512 30.0569 18.904C30.3875 18.2853 30.8515 17.8107 31.4489 17.48C32.0569 17.1493 32.7609 16.984 33.5609 16.984C34.3609 16.984 35.0595 17.1493 35.6569 17.48C36.2649 17.8107 36.7289 18.2853 37.0489 18.904C37.3795 19.512 37.5449 20.2267 37.5449 21.048C37.5449 21.8693 37.3795 22.5893 37.0489 23.208C36.7289 23.8267 36.2649 24.3013 35.6569 24.632C35.0595 24.9627 34.3609 25.128 33.5609 25.128ZM33.5449 23.576C34.1955 23.576 34.6915 23.3627 35.0329 22.936C35.3742 22.5093 35.5449 21.88 35.5449 21.048C35.5449 20.2267 35.3742 19.6027 35.0329 19.176C34.6915 18.7387 34.2009 18.52 33.5609 18.52C32.9209 18.52 32.4249 18.7387 32.0729 19.176C31.7315 19.6027 31.5609 20.2267 31.5609 21.048C31.5609 21.88 31.7315 22.5093 32.0729 22.936C32.4142 23.3627 32.9049 23.576 33.5449 23.576ZM43.1491 23.624C43.3838 23.624 43.6291 23.608 43.8851 23.576L43.7891 25.064C43.4691 25.096 43.1758 25.112 42.9091 25.112C41.8105 25.112 40.9998 24.8613 40.4771 24.36C39.9545 23.848 39.6931 23.0907 39.6931 22.088V18.68H38.1891V17.176H39.6931V14.84H41.6931V17.176H43.7571V18.68H41.6931V22.056C41.6931 23.1013 42.1785 23.624 43.1491 23.624ZM56.8551 17.192L52.1511 27.88H50.1351L51.5591 24.696L48.2951 17.192H50.4071L52.6151 22.712L54.8871 17.192H56.8551ZM64.56 21.448H59.232C59.296 22.1733 59.5147 22.712 59.888 23.064C60.2613 23.416 60.7947 23.592 61.488 23.592C62.352 23.592 63.1413 23.3147 63.856 22.76L64.432 24.136C64.0693 24.4347 63.6107 24.6747 63.056 24.856C62.512 25.0373 61.9627 25.128 61.408 25.128C60.128 25.128 59.1147 24.7653 58.368 24.04C57.632 23.3147 57.264 22.3227 57.264 21.064C57.264 20.264 57.424 19.5547 57.744 18.936C58.064 18.3173 58.512 17.8373 59.088 17.496C59.6747 17.1547 60.336 16.984 61.072 16.984C62.1493 16.984 62.9973 17.3307 63.616 18.024C64.2453 18.7173 64.56 19.672 64.56 20.888V21.448ZM61.12 18.392C60.5867 18.392 60.1547 18.5627 59.824 18.904C59.504 19.2453 59.3067 19.736 59.232 20.376H62.848C62.8267 19.7253 62.6667 19.2347 62.368 18.904C62.0693 18.5627 61.6533 18.392 61.12 18.392ZM70.0866 23.624C70.3213 23.624 70.5666 23.608 70.8226 23.576L70.7266 25.064C70.4066 25.096 70.1133 25.112 69.8466 25.112C68.748 25.112 67.9373 24.8613 67.4146 24.36C66.892 23.848 66.6306 23.0907 66.6306 22.088V18.68H65.1266V17.176H66.6306V14.84H68.6306V17.176H70.6946V18.68H68.6306V22.056C68.6306 23.1013 69.116 23.624 70.0866 23.624ZM81.4886 18.648L80.3206 18.76C78.998 18.8987 78.3366 19.5707 78.3366 20.776V25H76.3366V17.176H78.2406V18.552C78.646 17.6133 79.4833 17.1013 80.7526 17.016L81.3606 16.968L81.4886 18.648ZM85.7904 16.984C86.889 16.984 87.705 17.2507 88.2384 17.784C88.7717 18.3173 89.0384 19.1387 89.0384 20.248V25H87.1344V23.8C86.953 24.216 86.665 24.5413 86.2704 24.776C85.8864 25.0107 85.4384 25.128 84.9264 25.128C84.4037 25.128 83.929 25.0213 83.5024 24.808C83.0757 24.5947 82.7397 24.3013 82.4944 23.928C82.249 23.5547 82.1264 23.1387 82.1264 22.68C82.1264 22.104 82.2704 21.6507 82.5584 21.32C82.857 20.9893 83.337 20.7493 83.9984 20.6C84.6597 20.4507 85.5717 20.376 86.7344 20.376H87.1344V20.008C87.1344 19.4747 87.017 19.0907 86.7824 18.856C86.5584 18.6213 86.1797 18.504 85.6464 18.504C85.2304 18.504 84.793 18.5787 84.3344 18.728C83.8864 18.8667 83.4437 19.064 83.0064 19.32L82.4464 17.944C82.8837 17.6667 83.4117 17.4373 84.0304 17.256C84.649 17.0747 85.2357 16.984 85.7904 16.984ZM85.3264 23.688C85.8597 23.688 86.2917 23.512 86.6224 23.16C86.9637 22.7973 87.1344 22.3333 87.1344 21.768V21.432H86.8464C86.1317 21.432 85.577 21.464 85.1824 21.528C84.7877 21.592 84.505 21.704 84.3344 21.864C84.1637 22.024 84.0784 22.2427 84.0784 22.52C84.0784 22.8613 84.1957 23.144 84.4304 23.368C84.665 23.5813 84.9637 23.688 85.3264 23.688ZM95.071 23.624C95.3057 23.624 95.551 23.608 95.807 23.576L95.711 25.064C95.391 25.096 95.0977 25.112 94.831 25.112C93.7323 25.112 92.9217 24.8613 92.399 24.36C91.8763 23.848 91.615 23.0907 91.615 22.088V18.68H90.111V17.176H91.615V14.84H93.615V17.176H95.679V18.68H93.615V22.056C93.615 23.1013 94.1003 23.624 95.071 23.624ZM103.841 21.448H98.5133C98.5773 22.1733 98.7959 22.712 99.1693 23.064C99.5426 23.416 100.076 23.592 100.769 23.592C101.633 23.592 102.423 23.3147 103.137 22.76L103.713 24.136C103.351 24.4347 102.892 24.6747 102.337 24.856C101.793 25.0373 101.244 25.128 100.689 25.128C99.4093 25.128 98.3959 24.7653 97.6493 24.04C96.9133 23.3147 96.5453 22.3227 96.5453 21.064C96.5453 20.264 96.7053 19.5547 97.0253 18.936C97.3453 18.3173 97.7933 17.8373 98.3693 17.496C98.9559 17.1547 99.6173 16.984 100.353 16.984C101.431 16.984 102.279 17.3307 102.897 18.024C103.527 18.7173 103.841 19.672 103.841 20.888V21.448ZM100.401 18.392C99.8679 18.392 99.4359 18.5627 99.1053 18.904C98.7853 19.2453 98.5879 19.736 98.5133 20.376H102.129C102.108 19.7253 101.948 19.2347 101.649 18.904C101.351 18.5627 100.935 18.392 100.401 18.392ZM113.029 13.72V25H111.045V23.736C110.811 24.1733 110.469 24.5147 110.021 24.76C109.584 25.0053 109.083 25.128 108.517 25.128C107.845 25.128 107.243 24.9573 106.709 24.616C106.187 24.2747 105.776 23.7947 105.477 23.176C105.189 22.5467 105.045 21.8267 105.045 21.016C105.045 20.2053 105.189 19.496 105.477 18.888C105.776 18.28 106.187 17.8107 106.709 17.48C107.232 17.1493 107.835 16.984 108.517 16.984C109.083 16.984 109.584 17.1013 110.021 17.336C110.459 17.5707 110.795 17.9013 111.029 18.328V13.72H113.029ZM109.045 23.576C109.685 23.576 110.176 23.3573 110.517 22.92C110.869 22.4827 111.045 21.8587 111.045 21.048C111.045 20.2373 110.869 19.6187 110.517 19.192C110.176 18.7547 109.691 18.536 109.061 18.536C108.421 18.536 107.925 18.7493 107.573 19.176C107.221 19.6027 107.045 20.216 107.045 21.016C107.045 21.8267 107.221 22.456 107.573 22.904C107.925 23.352 108.416 23.576 109.045 23.576Z" fill="#414141"/>
<rect x="0.999756" y="1" width="130" height="38" stroke="#BDBDBD" stroke-width="2"/>
</svg>
