<svg width="108" height="42" viewBox="0 0 108 42" fill="none" xmlns="http://www.w3.org/2000/svg">
<path d="M0.999939 1H107V41H0.999939V1Z" fill="#E8F9F7"/>
<path d="M22.0399 26.144C21.1759 26.144 20.3653 26.0267 19.6079 25.792C18.8506 25.5573 18.2106 25.2267 17.6879 24.8L18.3759 23.296C18.9199 23.712 19.4906 24.016 20.0879 24.208C20.6959 24.4 21.3519 24.496 22.0559 24.496C22.8346 24.496 23.4319 24.3627 23.8479 24.096C24.2746 23.8187 24.4879 23.4347 24.4879 22.944C24.4879 22.5173 24.2906 22.192 23.8959 21.968C23.5119 21.744 22.8666 21.5307 21.9599 21.328C21.0213 21.1253 20.2586 20.8907 19.6719 20.624C19.0853 20.3573 18.6426 20.016 18.3439 19.6C18.0453 19.184 17.8959 18.656 17.8959 18.016C17.8959 17.3547 18.0773 16.7627 18.4399 16.24C18.8026 15.7173 19.3146 15.312 19.9759 15.024C20.6373 14.7253 21.3999 14.576 22.2639 14.576C23.0533 14.576 23.8053 14.6987 24.5199 14.944C25.2346 15.1787 25.8213 15.504 26.2799 15.92L25.5919 17.424C24.5893 16.624 23.4799 16.224 22.2639 16.224C21.5386 16.224 20.9626 16.3733 20.5359 16.672C20.1199 16.96 19.9119 17.3653 19.9119 17.888C19.9119 18.3253 20.0986 18.6613 20.4719 18.896C20.8453 19.1307 21.4799 19.3493 22.3759 19.552C23.3253 19.7653 24.0933 20.0053 24.6799 20.272C25.2773 20.528 25.7306 20.8587 26.0399 21.264C26.3599 21.6693 26.5199 22.1813 26.5199 22.8C26.5199 23.472 26.3386 24.064 25.9759 24.576C25.6239 25.0773 25.1066 25.4667 24.4239 25.744C23.7519 26.0107 22.9573 26.144 22.0399 26.144ZM28.2431 18.176H30.2431V26H28.2431V18.176ZM30.3391 14.544V16.512H28.1311V14.544H30.3391ZM32.3056 14.72H34.3056V26H32.3056V14.72ZM43.8241 18.192L40.4001 26H38.6561L35.2641 18.192H37.3761L39.5841 23.712L41.8561 18.192H43.8241ZM51.5289 22.448H46.2009C46.2649 23.1733 46.4836 23.712 46.8569 24.064C47.2303 24.416 47.7636 24.592 48.4569 24.592C49.3209 24.592 50.1103 24.3147 50.8249 23.76L51.4009 25.136C51.0383 25.4347 50.5796 25.6747 50.0249 25.856C49.4809 26.0373 48.9316 26.128 48.3769 26.128C47.0969 26.128 46.0836 25.7653 45.3369 25.04C44.6009 24.3147 44.2329 23.3227 44.2329 22.064C44.2329 21.264 44.3929 20.5547 44.7129 19.936C45.0329 19.3173 45.4809 18.8373 46.0569 18.496C46.6436 18.1547 47.3049 17.984 48.0409 17.984C49.1183 17.984 49.9663 18.3307 50.5849 19.024C51.2143 19.7173 51.5289 20.672 51.5289 21.888V22.448ZM48.0889 19.392C47.5556 19.392 47.1236 19.5627 46.7929 19.904C46.4729 20.2453 46.2756 20.736 46.2009 21.376H49.8169C49.7956 20.7253 49.6356 20.2347 49.3369 19.904C49.0383 19.5627 48.6223 19.392 48.0889 19.392ZM58.3169 19.648L57.1489 19.76C55.8263 19.8987 55.1649 20.5707 55.1649 21.776V26H53.1649V18.176H55.0689V19.552C55.4743 18.6133 56.3116 18.1013 57.5809 18.016L58.1889 17.968L58.3169 19.648Z" fill="#414141"/>
<path d="M77.4882 15.1289L74.2477 9.72844C74.1145 9.50628 73.926 9.32241 73.7006 9.19476C73.4752 9.0671 73.2205 9 72.9615 9H67.7513C67.1443 9 66.789 9.68297 67.1368 10.1803L72.3526 17.6316C73.7457 16.3298 75.5176 15.4364 77.4882 15.1289ZM90.2485 9H85.0383C84.5115 9 84.023 9.27656 83.7521 9.72844L80.5116 15.1289C82.4822 15.4364 84.2541 16.3298 85.6472 17.6311L90.863 10.1803C91.2108 9.68297 90.8555 9 90.2485 9ZM78.9999 16.5C74.4437 16.5 70.7499 20.1938 70.7499 24.75C70.7499 29.3062 74.4437 33 78.9999 33C83.5562 33 87.2499 29.3062 87.2499 24.75C87.2499 20.1938 83.5562 16.5 78.9999 16.5ZM83.3368 23.8716L81.5588 25.6041L81.9793 28.0519C82.0543 28.4906 81.5921 28.8258 81.1988 28.6186L78.9999 27.4631L76.8015 28.6186C76.4077 28.8272 75.946 28.4902 76.021 28.0519L76.4415 25.6041L74.6635 23.8716C74.3438 23.5603 74.5205 23.017 74.9612 22.9533L77.4188 22.5952L78.5171 20.3677C78.616 20.167 78.8072 20.0681 78.999 20.0681C79.1916 20.0681 79.3843 20.1684 79.4832 20.3677L80.5815 22.5952L83.0391 22.9533C83.4797 23.017 83.6565 23.5603 83.3368 23.8716Z" fill="#BDBDBD"/>
<path d="M77.4882 15.1289L74.2477 9.72844C74.1145 9.50628 73.926 9.32241 73.7006 9.19476C73.4752 9.0671 73.2205 9 72.9615 9H67.7513C67.1443 9 66.789 9.68297 67.1368 10.1803L72.3526 17.6316C73.7457 16.3298 75.5176 15.4364 77.4882 15.1289ZM90.2485 9H85.0383C84.5115 9 84.023 9.27656 83.7521 9.72844L80.5116 15.1289C82.4822 15.4364 84.2541 16.3298 85.6472 17.6311L90.863 10.1803C91.2108 9.68297 90.8555 9 90.2485 9ZM78.9999 16.5C74.4437 16.5 70.7499 20.1938 70.7499 24.75C70.7499 29.3062 74.4437 33 78.9999 33C83.5562 33 87.2499 29.3062 87.2499 24.75C87.2499 20.1938 83.5562 16.5 78.9999 16.5ZM83.3368 23.8716L81.5588 25.6041L81.9793 28.0519C82.0543 28.4906 81.5921 28.8258 81.1988 28.6186L78.9999 27.4631L76.8015 28.6186C76.4077 28.8272 75.946 28.4902 76.021 28.0519L76.4415 25.6041L74.6635 23.8716C74.3438 23.5603 74.5205 23.017 74.9612 22.9533L77.4188 22.5952L78.5171 20.3677C78.616 20.167 78.8072 20.0681 78.999 20.0681C79.1916 20.0681 79.3843 20.1684 79.4832 20.3677L80.5815 22.5952L83.0391 22.9533C83.4797 23.017 83.6565 23.5603 83.3368 23.8716Z" stroke="#FFB808"/>
<path d="M0.999939 1V0H-6.10352e-05V1H0.999939ZM107 1H108V0H107V1ZM107 41V42H108V41H107ZM0.999939 41H-6.10352e-05V42H0.999939V41ZM0.999939 2H107V0H0.999939V2ZM106 1V41H108V1H106ZM107 40H0.999939V42H107V40ZM1.99994 41V1H-6.10352e-05V41H1.99994Z" fill="#BDBDBD"/>
</svg>
