<svg width="101" height="42" viewBox="0 0 101 42" fill="none" xmlns="http://www.w3.org/2000/svg">
<path d="M1 1H99.9999V41H1V1Z" fill="#FFF2D2"/>
<path d="M27.624 19.904V25.312C27.112 25.568 26.488 25.7707 25.752 25.92C25.0267 26.0693 24.2853 26.144 23.528 26.144C22.3653 26.144 21.3573 25.9147 20.504 25.456C19.6507 24.9867 18.9947 24.32 18.536 23.456C18.088 22.5813 17.864 21.5467 17.864 20.352C17.864 19.168 18.088 18.144 18.536 17.28C18.9947 16.4053 19.64 15.7387 20.472 15.28C21.3147 14.8107 22.3013 14.576 23.432 14.576C24.2213 14.576 24.9627 14.6933 25.656 14.928C26.3493 15.152 26.9253 15.4773 27.384 15.904L26.696 17.392C26.1733 16.9867 25.656 16.6987 25.144 16.528C24.6427 16.3467 24.088 16.256 23.48 16.256C22.3173 16.256 21.4373 16.6027 20.84 17.296C20.2533 17.9787 19.96 18.9973 19.96 20.352C19.96 23.1253 21.176 24.512 23.608 24.512C24.3333 24.512 25.0587 24.4107 25.784 24.208V21.376H23.352V19.904H27.624ZM33.3424 26.128C32.5424 26.128 31.8384 25.9627 31.2304 25.632C30.633 25.3013 30.169 24.8267 29.8384 24.208C29.5077 23.5893 29.3424 22.8693 29.3424 22.048C29.3424 21.2267 29.5077 20.512 29.8384 19.904C30.169 19.2853 30.633 18.8107 31.2304 18.48C31.8384 18.1493 32.5424 17.984 33.3424 17.984C34.1424 17.984 34.841 18.1493 35.4384 18.48C36.0464 18.8107 36.5104 19.2853 36.8304 19.904C37.161 20.512 37.3264 21.2267 37.3264 22.048C37.3264 22.8693 37.161 23.5893 36.8304 24.208C36.5104 24.8267 36.0464 25.3013 35.4384 25.632C34.841 25.9627 34.1424 26.128 33.3424 26.128ZM33.3264 24.576C33.977 24.576 34.473 24.3627 34.8144 23.936C35.1557 23.5093 35.3264 22.88 35.3264 22.048C35.3264 21.2267 35.1557 20.6027 34.8144 20.176C34.473 19.7387 33.9824 19.52 33.3424 19.52C32.7024 19.52 32.2064 19.7387 31.8544 20.176C31.513 20.6027 31.3424 21.2267 31.3424 22.048C31.3424 22.88 31.513 23.5093 31.8544 23.936C32.1957 24.3627 32.6864 24.576 33.3264 24.576ZM38.9775 14.72H40.9775V26H38.9775V14.72ZM50.592 14.72V26H48.608V24.736C48.3733 25.1733 48.032 25.5147 47.584 25.76C47.1467 26.0053 46.6453 26.128 46.08 26.128C45.408 26.128 44.8053 25.9573 44.272 25.616C43.7493 25.2747 43.3387 24.7947 43.04 24.176C42.752 23.5467 42.608 22.8267 42.608 22.016C42.608 21.2053 42.752 20.496 43.04 19.888C43.3387 19.28 43.7493 18.8107 44.272 18.48C44.7947 18.1493 45.3973 17.984 46.08 17.984C46.6453 17.984 47.1467 18.1013 47.584 18.336C48.0213 18.5707 48.3573 18.9013 48.592 19.328V14.72H50.592ZM46.608 24.576C47.248 24.576 47.7387 24.3573 48.08 23.92C48.432 23.4827 48.608 22.8587 48.608 22.048C48.608 21.2373 48.432 20.6187 48.08 20.192C47.7387 19.7547 47.2533 19.536 46.624 19.536C45.984 19.536 45.488 19.7493 45.136 20.176C44.784 20.6027 44.608 21.216 44.608 22.016C44.608 22.8267 44.784 23.456 45.136 23.904C45.488 24.352 45.9787 24.576 46.608 24.576Z" fill="#414141"/>
<path d="M70.4882 15.1289L67.2478 9.72844C67.1145 9.50628 66.926 9.32241 66.7006 9.19476C66.4752 9.0671 66.2206 9 65.9615 9H60.7514C60.1443 9 59.789 9.68297 60.1368 10.1803L65.3526 17.6316C66.7457 16.3298 68.5176 15.4364 70.4882 15.1289ZM83.2486 9H78.0384C77.5115 9 77.0231 9.27656 76.7522 9.72844L73.5117 15.1289C75.4823 15.4364 77.2542 16.3298 78.6473 17.6311L83.8631 10.1803C84.2109 9.68297 83.8556 9 83.2486 9ZM72 16.5C67.4437 16.5 63.75 20.1938 63.75 24.75C63.75 29.3062 67.4437 33 72 33C76.5562 33 80.25 29.3062 80.25 24.75C80.25 20.1938 76.5562 16.5 72 16.5ZM76.3368 23.8716L74.5589 25.6041L74.9793 28.0519C75.0543 28.4906 74.5922 28.8258 74.1989 28.6186L72 27.4631L69.8015 28.6186C69.4078 28.8272 68.9461 28.4902 69.0211 28.0519L69.4415 25.6041L67.6636 23.8716C67.3439 23.5603 67.5206 23.017 67.9612 22.9533L70.4189 22.5952L71.5172 20.3677C71.6161 20.167 71.8073 20.0681 71.999 20.0681C72.1917 20.0681 72.3843 20.1684 72.4832 20.3677L73.5815 22.5952L76.0392 22.9533C76.4798 23.017 76.6565 23.5603 76.3368 23.8716Z" fill="#FFB808"/>
<path d="M70.4882 15.1289L67.2478 9.72844C67.1145 9.50628 66.926 9.32241 66.7006 9.19476C66.4752 9.0671 66.2206 9 65.9615 9H60.7514C60.1443 9 59.789 9.68297 60.1368 10.1803L65.3526 17.6316C66.7457 16.3298 68.5176 15.4364 70.4882 15.1289ZM83.2486 9H78.0384C77.5115 9 77.0231 9.27656 76.7522 9.72844L73.5117 15.1289C75.4823 15.4364 77.2542 16.3298 78.6473 17.6311L83.8631 10.1803C84.2109 9.68297 83.8556 9 83.2486 9ZM72 16.5C67.4437 16.5 63.75 20.1938 63.75 24.75C63.75 29.3062 67.4437 33 72 33C76.5562 33 80.25 29.3062 80.25 24.75C80.25 20.1938 76.5562 16.5 72 16.5ZM76.3368 23.8716L74.5589 25.6041L74.9793 28.0519C75.0543 28.4906 74.5922 28.8258 74.1989 28.6186L72 27.4631L69.8015 28.6186C69.4078 28.8272 68.9461 28.4902 69.0211 28.0519L69.4415 25.6041L67.6636 23.8716C67.3439 23.5603 67.5206 23.017 67.9612 22.9533L70.4189 22.5952L71.5172 20.3677C71.6161 20.167 71.8073 20.0681 71.999 20.0681C72.1917 20.0681 72.3843 20.1684 72.4832 20.3677L73.5815 22.5952L76.0392 22.9533C76.4798 23.017 76.6565 23.5603 76.3368 23.8716Z" stroke="#FFB808"/>
<path d="M1 1V0H0V1H1ZM99.9999 1H101V0H99.9999V1ZM99.9999 41V42H101V41H99.9999ZM1 41H0V42H1V41ZM1 2H99.9999V0H1V2ZM98.9999 1V41H101V1H98.9999ZM99.9999 40H1V42H99.9999V40ZM2 41V1H0V41H2Z" fill="#FFB808"/>
</svg>
