<svg width="203" height="42" viewBox="0 0 203 42" fill="none" xmlns="http://www.w3.org/2000/svg">
<rect x="0.999756" y="1" width="201" height="40" fill="#FFE6E6"/>
<path d="M18.2318 26V14.72H19.7678L25.8318 22.592V14.72H27.7358V26H26.2158L20.1358 18.096V26H18.2318ZM33.5765 26.16C32.7658 26.16 32.0618 25.9947 31.4645 25.664C30.8672 25.3333 30.4032 24.864 30.0725 24.256C29.7418 23.6373 29.5765 22.912 29.5765 22.08C29.5765 21.248 29.7418 20.528 30.0725 19.92C30.4032 19.312 30.8672 18.8427 31.4645 18.512C32.0618 18.1813 32.7658 18.016 33.5765 18.016C34.3872 18.016 35.0912 18.1813 35.6885 18.512C36.2858 18.8427 36.7498 19.312 37.0805 19.92C37.4112 20.528 37.5765 21.248 37.5765 22.08C37.5765 22.912 37.4112 23.6373 37.0805 24.256C36.7498 24.864 36.2858 25.3333 35.6885 25.664C35.0912 25.9947 34.3872 26.16 33.5765 26.16ZM33.5765 24.64C34.1738 24.64 34.6538 24.4267 35.0165 24C35.3792 23.5627 35.5605 22.9227 35.5605 22.08C35.5605 21.2267 35.3792 20.592 35.0165 20.176C34.6538 19.7493 34.1738 19.536 33.5765 19.536C32.9792 19.536 32.4992 19.7493 32.1365 20.176C31.7738 20.592 31.5925 21.2267 31.5925 22.08C31.5925 22.9227 31.7738 23.5627 32.1365 24C32.4992 24.4267 32.9792 24.64 33.5765 24.64ZM42.7331 26.16C40.6638 26.16 39.6291 25.136 39.6291 23.088V19.68H38.1251V18.176H39.6291V15.84H41.6291V18.176H43.9971V19.68H41.6291V22.976C41.6291 23.488 41.7411 23.872 41.9651 24.128C42.1891 24.384 42.5518 24.512 43.0531 24.512C43.2025 24.512 43.3571 24.496 43.5171 24.464C43.6771 24.4213 43.8425 24.3787 44.0131 24.336L44.3171 25.808C44.1251 25.9147 43.8798 26 43.5811 26.064C43.2931 26.128 43.0105 26.16 42.7331 26.16ZM49.6023 26V18.176H51.5543V19.552C51.9383 18.624 52.7596 18.112 54.0183 18.016L54.6263 17.968L54.7543 19.664L53.6023 19.776C52.2903 19.904 51.6343 20.576 51.6343 21.792V26H49.6023ZM59.5989 26.16C58.7135 26.16 57.9509 25.9947 57.3109 25.664C56.6709 25.3333 56.1749 24.864 55.8229 24.256C55.4815 23.648 55.3109 22.928 55.3109 22.096C55.3109 21.2853 55.4762 20.576 55.8069 19.968C56.1482 19.36 56.6122 18.8853 57.1989 18.544C57.7962 18.192 58.4735 18.016 59.2309 18.016C60.3402 18.016 61.2149 18.368 61.8549 19.072C62.5055 19.776 62.8309 20.736 62.8309 21.952V22.544H57.2309C57.3802 23.9413 58.1802 24.64 59.6309 24.64C60.0682 24.64 60.5055 24.576 60.9429 24.448C61.3802 24.3093 61.7802 24.096 62.1429 23.808L62.7029 25.152C62.3295 25.4613 61.8602 25.7067 61.2949 25.888C60.7295 26.0693 60.1642 26.16 59.5989 26.16ZM59.3109 19.376C58.7242 19.376 58.2495 19.5573 57.8869 19.92C57.5242 20.2827 57.3055 20.7733 57.2309 21.392H61.1669C61.1242 20.7413 60.9429 20.2453 60.6229 19.904C60.3135 19.552 59.8762 19.376 59.3109 19.376ZM68.0308 26.16C67.2094 26.16 66.4948 25.9947 65.8868 25.664C65.2788 25.3227 64.8094 24.8427 64.4788 24.224C64.1481 23.6053 63.9828 22.88 63.9828 22.048C63.9828 21.216 64.1481 20.5013 64.4788 19.904C64.8094 19.296 65.2788 18.832 65.8868 18.512C66.4948 18.1813 67.2094 18.016 68.0308 18.016C68.5321 18.016 69.0281 18.096 69.5188 18.256C70.0094 18.416 70.4148 18.64 70.7348 18.928L70.1428 20.32C69.8654 20.0747 69.5508 19.888 69.1988 19.76C68.8574 19.632 68.5268 19.568 68.2068 19.568C67.5134 19.568 66.9748 19.7867 66.5908 20.224C66.2174 20.6507 66.0308 21.264 66.0308 22.064C66.0308 22.8533 66.2174 23.4773 66.5908 23.936C66.9748 24.384 67.5134 24.608 68.2068 24.608C68.5161 24.608 68.8468 24.544 69.1988 24.416C69.5508 24.288 69.8654 24.096 70.1428 23.84L70.7348 25.248C70.4148 25.5253 70.0041 25.7493 69.5028 25.92C69.0121 26.08 68.5214 26.16 68.0308 26.16ZM75.3734 26.16C74.5627 26.16 73.8587 25.9947 73.2614 25.664C72.664 25.3333 72.2 24.864 71.8694 24.256C71.5387 23.6373 71.3734 22.912 71.3734 22.08C71.3734 21.248 71.5387 20.528 71.8694 19.92C72.2 19.312 72.664 18.8427 73.2614 18.512C73.8587 18.1813 74.5627 18.016 75.3734 18.016C76.184 18.016 76.888 18.1813 77.4854 18.512C78.0827 18.8427 78.5467 19.312 78.8774 19.92C79.208 20.528 79.3734 21.248 79.3734 22.08C79.3734 22.912 79.208 23.6373 78.8774 24.256C78.5467 24.864 78.0827 25.3333 77.4854 25.664C76.888 25.9947 76.184 26.16 75.3734 26.16ZM75.3734 24.64C75.9707 24.64 76.4507 24.4267 76.8134 24C77.176 23.5627 77.3574 22.9227 77.3574 22.08C77.3574 21.2267 77.176 20.592 76.8134 20.176C76.4507 19.7493 75.9707 19.536 75.3734 19.536C74.776 19.536 74.296 19.7493 73.9334 20.176C73.5707 20.592 73.3894 21.2267 73.3894 22.08C73.3894 22.9227 73.5707 23.5627 73.9334 24C74.296 24.4267 74.776 24.64 75.3734 24.64ZM81.0561 26V18.176H83.0081V19.376C83.2428 18.9493 83.5681 18.6187 83.9841 18.384C84.4001 18.1387 84.8801 18.016 85.4241 18.016C86.5975 18.016 87.3655 18.528 87.7281 19.552C87.9735 19.072 88.3255 18.6987 88.7841 18.432C89.2428 18.1547 89.7655 18.016 90.3521 18.016C92.1121 18.016 92.9921 19.088 92.9921 21.232V26H90.9921V21.312C90.9921 20.7147 90.8908 20.2773 90.6881 20C90.4961 19.7227 90.1655 19.584 89.6961 19.584C89.1735 19.584 88.7628 19.7707 88.4641 20.144C88.1655 20.5067 88.0161 21.0133 88.0161 21.664V26H86.0161V21.312C86.0161 20.7147 85.9148 20.2773 85.7121 20C85.5201 19.7227 85.1948 19.584 84.7361 19.584C84.2135 19.584 83.8028 19.7707 83.5041 20.144C83.2055 20.5067 83.0561 21.0133 83.0561 21.664V26H81.0561ZM95.0874 26V18.176H97.0394V19.376C97.274 18.9493 97.5994 18.6187 98.0154 18.384C98.4314 18.1387 98.9114 18.016 99.4554 18.016C100.629 18.016 101.397 18.528 101.759 19.552C102.005 19.072 102.357 18.6987 102.815 18.432C103.274 18.1547 103.797 18.016 104.383 18.016C106.143 18.016 107.023 19.088 107.023 21.232V26H105.023V21.312C105.023 20.7147 104.922 20.2773 104.719 20C104.527 19.7227 104.197 19.584 103.727 19.584C103.205 19.584 102.794 19.7707 102.495 20.144C102.197 20.5067 102.047 21.0133 102.047 21.664V26H100.047V21.312C100.047 20.7147 99.946 20.2773 99.7434 20C99.5514 19.7227 99.226 19.584 98.7674 19.584C98.2447 19.584 97.834 19.7707 97.5354 20.144C97.2367 20.5067 97.0874 21.0133 97.0874 21.664V26H95.0874ZM112.943 26.16C112.057 26.16 111.295 25.9947 110.655 25.664C110.015 25.3333 109.519 24.864 109.167 24.256C108.825 23.648 108.655 22.928 108.655 22.096C108.655 21.2853 108.82 20.576 109.151 19.968C109.492 19.36 109.956 18.8853 110.543 18.544C111.14 18.192 111.817 18.016 112.575 18.016C113.684 18.016 114.559 18.368 115.199 19.072C115.849 19.776 116.175 20.736 116.175 21.952V22.544H110.575C110.724 23.9413 111.524 24.64 112.975 24.64C113.412 24.64 113.849 24.576 114.287 24.448C114.724 24.3093 115.124 24.096 115.487 23.808L116.047 25.152C115.673 25.4613 115.204 25.7067 114.639 25.888C114.073 26.0693 113.508 26.16 112.943 26.16ZM112.655 19.376C112.068 19.376 111.593 19.5573 111.231 19.92C110.868 20.2827 110.649 20.7733 110.575 21.392H114.511C114.468 20.7413 114.287 20.2453 113.967 19.904C113.657 19.552 113.22 19.376 112.655 19.376ZM117.759 26V18.176H119.711V19.392C119.977 18.944 120.335 18.6027 120.783 18.368C121.241 18.1333 121.753 18.016 122.319 18.016C124.164 18.016 125.087 19.088 125.087 21.232V26H123.087V21.328C123.087 20.72 122.969 20.2773 122.735 20C122.511 19.7227 122.159 19.584 121.679 19.584C121.092 19.584 120.623 19.7707 120.271 20.144C119.929 20.5067 119.759 20.992 119.759 21.6V26H117.759ZM130.126 26.16C129.443 26.16 128.841 25.9947 128.318 25.664C127.806 25.3333 127.406 24.864 127.118 24.256C126.83 23.6373 126.686 22.912 126.686 22.08C126.686 21.2373 126.83 20.5173 127.118 19.92C127.406 19.312 127.806 18.8427 128.318 18.512C128.841 18.1813 129.443 18.016 130.126 18.016C130.681 18.016 131.182 18.1387 131.63 18.384C132.078 18.6293 132.414 18.9547 132.638 19.36V14.72H134.638V26H132.686V24.704C132.473 25.152 132.137 25.5093 131.678 25.776C131.219 26.032 130.702 26.16 130.126 26.16ZM130.686 24.64C131.283 24.64 131.763 24.4267 132.126 24C132.489 23.5627 132.67 22.9227 132.67 22.08C132.67 21.2267 132.489 20.592 132.126 20.176C131.763 19.7493 131.283 19.536 130.686 19.536C130.089 19.536 129.609 19.7493 129.246 20.176C128.883 20.592 128.702 21.2267 128.702 22.08C128.702 22.9227 128.883 23.5627 129.246 24C129.609 24.4267 130.089 24.64 130.686 24.64ZM140.568 26.16C139.682 26.16 138.92 25.9947 138.28 25.664C137.64 25.3333 137.144 24.864 136.792 24.256C136.45 23.648 136.28 22.928 136.28 22.096C136.28 21.2853 136.445 20.576 136.776 19.968C137.117 19.36 137.581 18.8853 138.168 18.544C138.765 18.192 139.442 18.016 140.2 18.016C141.309 18.016 142.184 18.368 142.824 19.072C143.474 19.776 143.8 20.736 143.8 21.952V22.544H138.2C138.349 23.9413 139.149 24.64 140.6 24.64C141.037 24.64 141.474 24.576 141.912 24.448C142.349 24.3093 142.749 24.096 143.112 23.808L143.672 25.152C143.298 25.4613 142.829 25.7067 142.264 25.888C141.698 26.0693 141.133 26.16 140.568 26.16ZM140.28 19.376C139.693 19.376 139.218 19.5573 138.856 19.92C138.493 20.2827 138.274 20.7733 138.2 21.392H142.136C142.093 20.7413 141.912 20.2453 141.592 19.904C141.282 19.552 140.845 19.376 140.28 19.376ZM148.392 26.16C147.709 26.16 147.106 25.9947 146.584 25.664C146.072 25.3333 145.672 24.864 145.384 24.256C145.096 23.6373 144.952 22.912 144.952 22.08C144.952 21.2373 145.096 20.5173 145.384 19.92C145.672 19.312 146.072 18.8427 146.584 18.512C147.106 18.1813 147.709 18.016 148.392 18.016C148.946 18.016 149.448 18.1387 149.896 18.384C150.344 18.6293 150.68 18.9547 150.904 19.36V14.72H152.904V26H150.952V24.704C150.738 25.152 150.402 25.5093 149.944 25.776C149.485 26.032 148.968 26.16 148.392 26.16ZM148.952 24.64C149.549 24.64 150.029 24.4267 150.392 24C150.754 23.5627 150.936 22.9227 150.936 22.08C150.936 21.2267 150.754 20.592 150.392 20.176C150.029 19.7493 149.549 19.536 148.952 19.536C148.354 19.536 147.874 19.7493 147.512 20.176C147.149 20.592 146.968 21.2267 146.968 22.08C146.968 22.9227 147.149 23.5627 147.512 24C147.874 24.4267 148.354 24.64 148.952 24.64Z" fill="#414141"/>
<path d="M163 30H185L174 11L163 30ZM175 27H173V25H175V27ZM175 23H173V19H175V23Z" fill="#EB5757"/>
<rect x="0.999756" y="1" width="201" height="40" stroke="#EB5757" stroke-width="2"/>
</svg>
