<svg width="191" height="42" viewBox="0 0 191 42" fill="none" xmlns="http://www.w3.org/2000/svg">
<path d="M1 1H190V41H1V1Z" fill="#E0E0E0"/>
<path d="M22.12 26.16C21.2347 26.16 20.4133 26.048 19.656 25.824C18.8987 25.5893 18.2587 25.2747 17.736 24.88L18.36 23.264C18.8827 23.6373 19.4533 23.9253 20.072 24.128C20.7013 24.3307 21.384 24.432 22.12 24.432C22.9627 24.432 23.576 24.2933 23.96 24.016C24.344 23.728 24.536 23.36 24.536 22.912C24.536 22.5387 24.3973 22.2453 24.12 22.032C23.8533 21.8187 23.3893 21.6427 22.728 21.504L20.968 21.136C18.9627 20.7093 17.96 19.68 17.96 18.048C17.96 17.344 18.1467 16.7307 18.52 16.208C18.8933 15.6853 19.4107 15.28 20.072 14.992C20.7333 14.704 21.496 14.56 22.36 14.56C23.128 14.56 23.848 14.6773 24.52 14.912C25.192 15.136 25.752 15.456 26.2 15.872L25.576 17.408C24.6907 16.6613 23.6133 16.288 22.344 16.288C21.608 16.288 21.032 16.4427 20.616 16.752C20.2 17.0613 19.992 17.4667 19.992 17.968C19.992 18.352 20.12 18.6613 20.376 18.896C20.632 19.12 21.0693 19.296 21.688 19.424L23.432 19.792C24.488 20.016 25.272 20.368 25.784 20.848C26.3067 21.328 26.568 21.968 26.568 22.768C26.568 23.44 26.3867 24.032 26.024 24.544C25.6613 25.056 25.144 25.456 24.472 25.744C23.8107 26.0213 23.0267 26.16 22.12 26.16ZM28.0058 16.496V14.544H30.2458V16.496H28.0058ZM28.1338 26V18.176H30.1338V26H28.1338ZM34.9319 26.16C34.0039 26.16 33.3159 25.9093 32.8679 25.408C32.4305 24.896 32.2119 24.1493 32.2119 23.168V14.72H34.2119V23.072C34.2119 24.032 34.6172 24.512 35.4279 24.512C35.5452 24.512 35.6625 24.5067 35.7799 24.496C35.8972 24.4853 36.0092 24.464 36.1159 24.432L36.0839 26.016C35.6999 26.112 35.3159 26.16 34.9319 26.16ZM39.4221 26L36.0301 18.176H38.1581L40.3341 23.648L42.5901 18.176H44.5901L41.1501 26H39.4221ZM49.2554 26.16C48.37 26.16 47.6074 25.9947 46.9674 25.664C46.3274 25.3333 45.8314 24.864 45.4794 24.256C45.138 23.648 44.9674 22.928 44.9674 22.096C44.9674 21.2853 45.1327 20.576 45.4634 19.968C45.8047 19.36 46.2687 18.8853 46.8554 18.544C47.4527 18.192 48.13 18.016 48.8874 18.016C49.9967 18.016 50.8714 18.368 51.5114 19.072C52.162 19.776 52.4874 20.736 52.4874 21.952V22.544H46.8874C47.0367 23.9413 47.8367 24.64 49.2874 24.64C49.7247 24.64 50.162 24.576 50.5994 24.448C51.0367 24.3093 51.4367 24.096 51.7994 23.808L52.3594 25.152C51.986 25.4613 51.5167 25.7067 50.9514 25.888C50.386 26.0693 49.8207 26.16 49.2554 26.16ZM48.9674 19.376C48.3807 19.376 47.906 19.5573 47.5434 19.92C47.1807 20.2827 46.962 20.7733 46.8874 21.392H50.8234C50.7807 20.7413 50.5994 20.2453 50.2794 19.904C49.97 19.552 49.5327 19.376 48.9674 19.376ZM54.0713 26V18.176H56.0233V19.552C56.4073 18.624 57.2286 18.112 58.4873 18.016L59.0953 17.968L59.2233 19.664L58.0713 19.776C56.7593 19.904 56.1033 20.576 56.1033 21.792V26H54.0713ZM67.4174 29.12C66.628 27.9467 66.0627 26.752 65.7214 25.536C65.38 24.3093 65.2094 23.0613 65.2094 21.792C65.2094 20.512 65.38 19.264 65.7214 18.048C66.0627 16.832 66.628 15.6373 67.4174 14.464L68.7774 15.008C68.276 16.2347 67.9134 17.3813 67.6894 18.448C67.4654 19.504 67.3534 20.6187 67.3534 21.792C67.3534 22.9547 67.4654 24.0693 67.6894 25.136C67.9134 26.2027 68.276 27.3493 68.7774 28.576L67.4174 29.12ZM73.9678 26.16C71.8984 26.16 70.8638 25.136 70.8638 23.088V19.68H69.3598V18.176H70.8638V15.84H72.8638V18.176H75.2318V19.68H72.8638V22.976C72.8638 23.488 72.9758 23.872 73.1998 24.128C73.4238 24.384 73.7864 24.512 74.2878 24.512C74.4371 24.512 74.5918 24.496 74.7518 24.464C74.9118 24.4213 75.0771 24.3787 75.2478 24.336L75.5518 25.808C75.3598 25.9147 75.1144 26 74.8158 26.064C74.5278 26.128 74.2451 26.16 73.9678 26.16ZM80.3023 26.16C79.4169 26.16 78.6543 25.9947 78.0143 25.664C77.3743 25.3333 76.8783 24.864 76.5263 24.256C76.1849 23.648 76.0143 22.928 76.0143 22.096C76.0143 21.2853 76.1796 20.576 76.5103 19.968C76.8516 19.36 77.3156 18.8853 77.9023 18.544C78.4996 18.192 79.1769 18.016 79.9343 18.016C81.0436 18.016 81.9183 18.368 82.5583 19.072C83.2089 19.776 83.5343 20.736 83.5343 21.952V22.544H77.9343C78.0836 23.9413 78.8836 24.64 80.3343 24.64C80.7716 24.64 81.2089 24.576 81.6463 24.448C82.0836 24.3093 82.4836 24.096 82.8463 23.808L83.4062 25.152C83.0329 25.4613 82.5636 25.7067 81.9983 25.888C81.4329 26.0693 80.8676 26.16 80.3023 26.16ZM80.0143 19.376C79.4276 19.376 78.9529 19.5573 78.5903 19.92C78.2276 20.2827 78.0089 20.7733 77.9343 21.392H81.8703C81.8276 20.7413 81.6463 20.2453 81.3263 19.904C81.0169 19.552 80.5796 19.376 80.0143 19.376ZM85.1181 26V18.176H87.0701V19.392C87.3368 18.944 87.6941 18.6027 88.1421 18.368C88.6008 18.1333 89.1128 18.016 89.6781 18.016C91.5235 18.016 92.4461 19.088 92.4461 21.232V26H90.4461V21.328C90.4461 20.72 90.3288 20.2773 90.0941 20C89.8701 19.7227 89.5181 19.584 89.0381 19.584C88.4515 19.584 87.9821 19.7707 87.6301 20.144C87.2888 20.5067 87.1181 20.992 87.1181 21.6V26H85.1181ZM98.0615 26.16C95.9922 26.16 94.9575 25.136 94.9575 23.088V19.68H93.4535V18.176H94.9575V15.84H96.9575V18.176H99.3255V19.68H96.9575V22.976C96.9575 23.488 97.0695 23.872 97.2935 24.128C97.5175 24.384 97.8802 24.512 98.3815 24.512C98.5308 24.512 98.6855 24.496 98.8455 24.464C99.0055 24.4213 99.1708 24.3787 99.3415 24.336L99.6455 25.808C99.4535 25.9147 99.2082 26 98.9095 26.064C98.6215 26.128 98.3388 26.16 98.0615 26.16ZM103.194 26.16C102.629 26.16 102.122 26.0533 101.674 25.84C101.237 25.616 100.89 25.3173 100.634 24.944C100.389 24.5707 100.266 24.1493 100.266 23.68C100.266 23.104 100.415 22.6507 100.714 22.32C101.013 21.9787 101.498 21.7333 102.17 21.584C102.842 21.4347 103.743 21.36 104.874 21.36H105.434V21.024C105.434 20.4907 105.317 20.1067 105.082 19.872C104.847 19.6373 104.453 19.52 103.898 19.52C103.461 19.52 103.013 19.5893 102.554 19.728C102.095 19.856 101.631 20.0587 101.162 20.336L100.586 18.976C100.863 18.784 101.189 18.6187 101.562 18.48C101.946 18.3307 102.346 18.2187 102.762 18.144C103.189 18.0587 103.589 18.016 103.962 18.016C105.103 18.016 105.951 18.2827 106.506 18.816C107.061 19.3387 107.338 20.1547 107.338 21.264V26H105.466V24.752C105.285 25.1893 104.997 25.536 104.602 25.792C104.207 26.0373 103.738 26.16 103.194 26.16ZM103.61 24.784C104.133 24.784 104.565 24.6027 104.906 24.24C105.258 23.8773 105.434 23.4187 105.434 22.864V22.512H104.89C103.887 22.512 103.189 22.592 102.794 22.752C102.41 22.9013 102.218 23.1787 102.218 23.584C102.218 23.936 102.341 24.224 102.586 24.448C102.831 24.672 103.173 24.784 103.61 24.784ZM112.952 26.16C110.883 26.16 109.848 25.136 109.848 23.088V19.68H108.344V18.176H109.848V15.84H111.848V18.176H114.216V19.68H111.848V22.976C111.848 23.488 111.96 23.872 112.184 24.128C112.408 24.384 112.771 24.512 113.272 24.512C113.421 24.512 113.576 24.496 113.736 24.464C113.896 24.4213 114.061 24.3787 114.232 24.336L114.536 25.808C114.344 25.9147 114.099 26 113.8 26.064C113.512 26.128 113.229 26.16 112.952 26.16ZM115.381 16.496V14.544H117.621V16.496H115.381ZM115.509 26V18.176H117.509V26H115.509ZM121.891 26L118.499 18.176H120.627L122.803 23.648L125.059 18.176H127.059L123.619 26H121.891ZM131.724 26.16C130.839 26.16 130.076 25.9947 129.436 25.664C128.796 25.3333 128.3 24.864 127.948 24.256C127.607 23.648 127.436 22.928 127.436 22.096C127.436 21.2853 127.601 20.576 127.932 19.968C128.273 19.36 128.737 18.8853 129.324 18.544C129.921 18.192 130.599 18.016 131.356 18.016C132.465 18.016 133.34 18.368 133.98 19.072C134.631 19.776 134.956 20.736 134.956 21.952V22.544H129.356C129.505 23.9413 130.305 24.64 131.756 24.64C132.193 24.64 132.631 24.576 133.068 24.448C133.505 24.3093 133.905 24.096 134.268 23.808L134.828 25.152C134.455 25.4613 133.985 25.7067 133.42 25.888C132.855 26.0693 132.289 26.16 131.724 26.16ZM131.436 19.376C130.849 19.376 130.375 19.5573 130.012 19.92C129.649 20.2827 129.431 20.7733 129.356 21.392H133.292C133.249 20.7413 133.068 20.2453 132.748 19.904C132.439 19.552 132.001 19.376 131.436 19.376ZM137.264 29.12L135.904 28.576C136.405 27.3387 136.768 26.1867 136.992 25.12C137.216 24.0533 137.328 22.944 137.328 21.792C137.328 20.64 137.216 19.5307 136.992 18.464C136.768 17.3973 136.405 16.2453 135.904 15.008L137.264 14.464C138.053 15.6373 138.618 16.8373 138.96 18.064C139.301 19.28 139.472 20.5227 139.472 21.792C139.472 23.0613 139.301 24.3093 138.96 25.536C138.618 26.752 138.053 27.9467 137.264 29.12Z" fill="#414141"/>
<path d="M160.488 15.1289L157.248 9.72844C157.115 9.50628 156.926 9.32241 156.701 9.19476C156.475 9.0671 156.221 9 155.962 9H150.751C150.144 9 149.789 9.68297 150.137 10.1803L155.353 17.6316C156.746 16.3298 158.518 15.4364 160.488 15.1289ZM173.249 9H168.038C167.512 9 167.023 9.27656 166.752 9.72844L163.512 15.1289C165.482 15.4364 167.254 16.3298 168.647 17.6311L173.863 10.1803C174.211 9.68297 173.856 9 173.249 9ZM162 16.5C157.444 16.5 153.75 20.1938 153.75 24.75C153.75 29.3062 157.444 33 162 33C166.556 33 170.25 29.3062 170.25 24.75C170.25 20.1938 166.556 16.5 162 16.5ZM166.337 23.8716L164.559 25.6041L164.979 28.0519C165.054 28.4906 164.592 28.8258 164.199 28.6186L162 27.4631L159.802 28.6186C159.408 28.8272 158.946 28.4902 159.021 28.0519L159.442 25.6041L157.664 23.8716C157.344 23.5603 157.521 23.017 157.961 22.9533L160.419 22.5952L161.517 20.3677C161.616 20.167 161.807 20.0681 161.999 20.0681C162.192 20.0681 162.384 20.1684 162.483 20.3677L163.582 22.5952L166.039 22.9533C166.48 23.017 166.657 23.5603 166.337 23.8716Z" fill="#BDBDBD"/>
<path d="M160.488 15.1289L157.248 9.72844C157.115 9.50628 156.926 9.32241 156.701 9.19476C156.475 9.0671 156.221 9 155.962 9H150.751C150.144 9 149.789 9.68297 150.137 10.1803L155.353 17.6316C156.746 16.3298 158.518 15.4364 160.488 15.1289ZM173.249 9H168.038C167.512 9 167.023 9.27656 166.752 9.72844L163.512 15.1289C165.482 15.4364 167.254 16.3298 168.647 17.6311L173.863 10.1803C174.211 9.68297 173.856 9 173.249 9ZM162 16.5C157.444 16.5 153.75 20.1938 153.75 24.75C153.75 29.3062 157.444 33 162 33C166.556 33 170.25 29.3062 170.25 24.75C170.25 20.1938 166.556 16.5 162 16.5ZM166.337 23.8716L164.559 25.6041L164.979 28.0519C165.054 28.4906 164.592 28.8258 164.199 28.6186L162 27.4631L159.802 28.6186C159.408 28.8272 158.946 28.4902 159.021 28.0519L159.442 25.6041L157.664 23.8716C157.344 23.5603 157.521 23.017 157.961 22.9533L160.419 22.5952L161.517 20.3677C161.616 20.167 161.807 20.0681 161.999 20.0681C162.192 20.0681 162.384 20.1684 162.483 20.3677L163.582 22.5952L166.039 22.9533C166.48 23.017 166.657 23.5603 166.337 23.8716Z" stroke="#FFB808"/>
<path d="M1 1V0H0V1H1ZM190 1H191V0H190V1ZM190 41V42H191V41H190ZM1 41H0V42H1V41ZM0 1V3H2V1H0ZM0 7V11H2V7H0ZM0 15V19H2V15H0ZM0 23V27H2V23H0ZM0 31V35H2V31H0ZM0 39V41H2V39H0ZM1 42H2.96875V40H1V42ZM6.90625 42H10.8437V40H6.90625V42ZM14.7812 42H18.7187V40H14.7812V42ZM22.6562 42H26.5937V40H22.6562V42ZM30.5312 42H34.4687V40H30.5312V42ZM38.4062 42H42.3437V40H38.4062V42ZM46.2812 42H50.2187V40H46.2812V42ZM54.1562 42H58.0937V40H54.1562V42ZM62.0312 42H65.9687V40H62.0312V42ZM69.9062 42H73.8437V40H69.9062V42ZM77.7812 42H81.7187V40H77.7812V42ZM85.6562 42H89.5937V40H85.6562V42ZM93.5312 42H97.4687V40H93.5312V42ZM101.406 42H105.344V40H101.406V42ZM109.281 42H113.219V40H109.281V42ZM117.156 42H121.094V40H117.156V42ZM125.031 42H128.969V40H125.031V42ZM132.906 42H136.844V40H132.906V42ZM140.781 42H144.719V40H140.781V42ZM148.656 42H152.594V40H148.656V42ZM156.531 42H160.469V40H156.531V42ZM164.406 42H168.344V40H164.406V42ZM172.281 42H176.219V40H172.281V42ZM180.156 42H184.094V40H180.156V42ZM188.031 42H190V40H188.031V42ZM191 41V39H189V41H191ZM191 35V31H189V35H191ZM191 27V23H189V27H191ZM191 19V15H189V19H191ZM191 11V7H189V11H191ZM191 3V1H189V3H191ZM190 0H188.031V2H190V0ZM184.094 0H180.156V2H184.094V0ZM176.219 0H172.281V2H176.219V0ZM168.344 0H164.406V2H168.344V0ZM160.469 0H156.531V2H160.469V0ZM152.594 0H148.656V2H152.594V0ZM144.719 0H140.781V2H144.719V0ZM136.844 0H132.906V2H136.844V0ZM128.969 0H125.031V2H128.969V0ZM121.094 0H117.156V2H121.094V0ZM113.219 0H109.281V2H113.219V0ZM105.344 0H101.406V2H105.344V0ZM97.4687 0H93.5312V2H97.4687V0ZM89.5937 0H85.6562V2H89.5937V0ZM81.7187 0H77.7812V2H81.7187V0ZM73.8437 0H69.9062V2H73.8437V0ZM65.9687 0H62.0312V2H65.9687V0ZM58.0937 0H54.1562V2H58.0937V0ZM50.2187 0H46.2812V2H50.2187V0ZM42.3437 0H38.4062V2H42.3437V0ZM34.4687 0H30.5312V2H34.4687V0ZM26.5937 0H22.6562V2H26.5937V0ZM18.7187 0H14.7812V2H18.7187V0ZM10.8437 0H6.9062V2H10.8437V0ZM2.96871 0H1V2H2.96871V0Z" fill="#BDBDBD"/>
</svg>
