<svg width="170" height="40" viewBox="0 0 170 40" fill="none" xmlns="http://www.w3.org/2000/svg">
<rect x="0.999756" y="1" width="168" height="38" fill="white"/>
<path d="M18.2318 25V13.72H19.7678L25.8318 21.592V13.72H27.7358V25H26.2158L20.1358 17.096V25H18.2318ZM33.5765 25.16C32.7658 25.16 32.0618 24.9947 31.4645 24.664C30.8672 24.3333 30.4032 23.864 30.0725 23.256C29.7418 22.6373 29.5765 21.912 29.5765 21.08C29.5765 20.248 29.7418 19.528 30.0725 18.92C30.4032 18.312 30.8672 17.8427 31.4645 17.512C32.0618 17.1813 32.7658 17.016 33.5765 17.016C34.3872 17.016 35.0912 17.1813 35.6885 17.512C36.2858 17.8427 36.7498 18.312 37.0805 18.92C37.4112 19.528 37.5765 20.248 37.5765 21.08C37.5765 21.912 37.4112 22.6373 37.0805 23.256C36.7498 23.864 36.2858 24.3333 35.6885 24.664C35.0912 24.9947 34.3872 25.16 33.5765 25.16ZM33.5765 23.64C34.1738 23.64 34.6538 23.4267 35.0165 23C35.3792 22.5627 35.5605 21.9227 35.5605 21.08C35.5605 20.2267 35.3792 19.592 35.0165 19.176C34.6538 18.7493 34.1738 18.536 33.5765 18.536C32.9792 18.536 32.4992 18.7493 32.1365 19.176C31.7738 19.592 31.5925 20.2267 31.5925 21.08C31.5925 21.9227 31.7738 22.5627 32.1365 23C32.4992 23.4267 32.9792 23.64 33.5765 23.64ZM42.7331 25.16C40.6638 25.16 39.6291 24.136 39.6291 22.088V18.68H38.1251V17.176H39.6291V14.84H41.6291V17.176H43.9971V18.68H41.6291V21.976C41.6291 22.488 41.7411 22.872 41.9651 23.128C42.1891 23.384 42.5518 23.512 43.0531 23.512C43.2025 23.512 43.3571 23.496 43.5171 23.464C43.6771 23.4213 43.8425 23.3787 44.0131 23.336L44.3171 24.808C44.1251 24.9147 43.8798 25 43.5811 25.064C43.2931 25.128 43.0105 25.16 42.7331 25.16ZM49.7943 25V13.72H54.6903C55.9276 13.72 56.8823 14.0187 57.5543 14.616C58.2263 15.2027 58.5623 16.0293 58.5623 17.096C58.5623 17.9387 58.3436 18.6373 57.9063 19.192C57.4689 19.736 56.8396 20.104 56.0183 20.296C56.5623 20.4667 57.0103 20.8773 57.3623 21.528L59.2503 25H56.9943L55.0423 21.4C54.8503 21.048 54.6209 20.808 54.3543 20.68C54.0983 20.552 53.7676 20.488 53.3623 20.488H51.8423V25H49.7943ZM51.8423 18.968H54.3383C55.8316 18.968 56.5783 18.36 56.5783 17.144C56.5783 15.9387 55.8316 15.336 54.3383 15.336H51.8423V18.968ZM64.2239 25.16C63.3385 25.16 62.5759 24.9947 61.9359 24.664C61.2959 24.3333 60.7999 23.864 60.4479 23.256C60.1065 22.648 59.9359 21.928 59.9359 21.096C59.9359 20.2853 60.1012 19.576 60.4319 18.968C60.7732 18.36 61.2372 17.8853 61.8239 17.544C62.4212 17.192 63.0985 17.016 63.8559 17.016C64.9652 17.016 65.8399 17.368 66.4799 18.072C67.1305 18.776 67.4559 19.736 67.4559 20.952V21.544H61.8559C62.0052 22.9413 62.8052 23.64 64.2559 23.64C64.6932 23.64 65.1305 23.576 65.5679 23.448C66.0052 23.3093 66.4052 23.096 66.7679 22.808L67.3279 24.152C66.9545 24.4613 66.4852 24.7067 65.9199 24.888C65.3545 25.0693 64.7892 25.16 64.2239 25.16ZM63.9359 18.376C63.3492 18.376 62.8745 18.5573 62.5119 18.92C62.1492 19.2827 61.9305 19.7733 61.8559 20.392H65.7919C65.7492 19.7413 65.5679 19.2453 65.2479 18.904C64.9385 18.552 64.5012 18.376 63.9359 18.376ZM72.6558 25.16C71.8344 25.16 71.1198 24.9947 70.5118 24.664C69.9038 24.3227 69.4344 23.8427 69.1038 23.224C68.7731 22.6053 68.6078 21.88 68.6078 21.048C68.6078 20.216 68.7731 19.5013 69.1038 18.904C69.4344 18.296 69.9038 17.832 70.5118 17.512C71.1198 17.1813 71.8344 17.016 72.6558 17.016C73.1571 17.016 73.6531 17.096 74.1438 17.256C74.6344 17.416 75.0398 17.64 75.3598 17.928L74.7678 19.32C74.4904 19.0747 74.1758 18.888 73.8238 18.76C73.4824 18.632 73.1518 18.568 72.8318 18.568C72.1384 18.568 71.5998 18.7867 71.2158 19.224C70.8424 19.6507 70.6558 20.264 70.6558 21.064C70.6558 21.8533 70.8424 22.4773 71.2158 22.936C71.5998 23.384 72.1384 23.608 72.8318 23.608C73.1411 23.608 73.4718 23.544 73.8238 23.416C74.1758 23.288 74.4904 23.096 74.7678 22.84L75.3598 24.248C75.0398 24.5253 74.6291 24.7493 74.1278 24.92C73.6371 25.08 73.1464 25.16 72.6558 25.16ZM79.9984 25.16C79.1877 25.16 78.4837 24.9947 77.8864 24.664C77.289 24.3333 76.825 23.864 76.4944 23.256C76.1637 22.6373 75.9984 21.912 75.9984 21.08C75.9984 20.248 76.1637 19.528 76.4944 18.92C76.825 18.312 77.289 17.8427 77.8864 17.512C78.4837 17.1813 79.1877 17.016 79.9984 17.016C80.809 17.016 81.513 17.1813 82.1104 17.512C82.7077 17.8427 83.1717 18.312 83.5024 18.92C83.833 19.528 83.9984 20.248 83.9984 21.08C83.9984 21.912 83.833 22.6373 83.5024 23.256C83.1717 23.864 82.7077 24.3333 82.1104 24.664C81.513 24.9947 80.809 25.16 79.9984 25.16ZM79.9984 23.64C80.5957 23.64 81.0757 23.4267 81.4384 23C81.801 22.5627 81.9824 21.9227 81.9824 21.08C81.9824 20.2267 81.801 19.592 81.4384 19.176C81.0757 18.7493 80.5957 18.536 79.9984 18.536C79.401 18.536 78.921 18.7493 78.5584 19.176C78.1957 19.592 78.0144 20.2267 78.0144 21.08C78.0144 21.9227 78.1957 22.5627 78.5584 23C78.921 23.4267 79.401 23.64 79.9984 23.64ZM85.6811 25V17.176H87.6331V18.376C87.8678 17.9493 88.1931 17.6187 88.6091 17.384C89.0251 17.1387 89.5051 17.016 90.0491 17.016C91.2225 17.016 91.9905 17.528 92.3531 18.552C92.5985 18.072 92.9505 17.6987 93.4091 17.432C93.8678 17.1547 94.3905 17.016 94.9771 17.016C96.7371 17.016 97.6171 18.088 97.6171 20.232V25H95.6171V20.312C95.6171 19.7147 95.5158 19.2773 95.3131 19C95.1211 18.7227 94.7905 18.584 94.3211 18.584C93.7985 18.584 93.3878 18.7707 93.0891 19.144C92.7905 19.5067 92.6411 20.0133 92.6411 20.664V25H90.6411V20.312C90.6411 19.7147 90.5398 19.2773 90.3371 19C90.1451 18.7227 89.8198 18.584 89.3611 18.584C88.8385 18.584 88.4278 18.7707 88.1291 19.144C87.8305 19.5067 87.6811 20.0133 87.6811 20.664V25H85.6811ZM99.7124 25V17.176H101.664V18.376C101.899 17.9493 102.224 17.6187 102.64 17.384C103.056 17.1387 103.536 17.016 104.08 17.016C105.254 17.016 106.022 17.528 106.384 18.552C106.63 18.072 106.982 17.6987 107.44 17.432C107.899 17.1547 108.422 17.016 109.008 17.016C110.768 17.016 111.648 18.088 111.648 20.232V25H109.648V20.312C109.648 19.7147 109.547 19.2773 109.344 19C109.152 18.7227 108.822 18.584 108.352 18.584C107.83 18.584 107.419 18.7707 107.12 19.144C106.822 19.5067 106.672 20.0133 106.672 20.664V25H104.672V20.312C104.672 19.7147 104.571 19.2773 104.368 19C104.176 18.7227 103.851 18.584 103.392 18.584C102.87 18.584 102.459 18.7707 102.16 19.144C101.862 19.5067 101.712 20.0133 101.712 20.664V25H99.7124ZM117.568 25.16C116.682 25.16 115.92 24.9947 115.28 24.664C114.64 24.3333 114.144 23.864 113.792 23.256C113.45 22.648 113.28 21.928 113.28 21.096C113.28 20.2853 113.445 19.576 113.776 18.968C114.117 18.36 114.581 17.8853 115.168 17.544C115.765 17.192 116.442 17.016 117.2 17.016C118.309 17.016 119.184 17.368 119.824 18.072C120.474 18.776 120.8 19.736 120.8 20.952V21.544H115.2C115.349 22.9413 116.149 23.64 117.6 23.64C118.037 23.64 118.474 23.576 118.912 23.448C119.349 23.3093 119.749 23.096 120.112 22.808L120.672 24.152C120.298 24.4613 119.829 24.7067 119.264 24.888C118.698 25.0693 118.133 25.16 117.568 25.16ZM117.28 18.376C116.693 18.376 116.218 18.5573 115.856 18.92C115.493 19.2827 115.274 19.7733 115.2 20.392H119.136C119.093 19.7413 118.912 19.2453 118.592 18.904C118.282 18.552 117.845 18.376 117.28 18.376ZM122.384 25V17.176H124.336V18.392C124.602 17.944 124.96 17.6027 125.408 17.368C125.866 17.1333 126.378 17.016 126.944 17.016C128.789 17.016 129.712 18.088 129.712 20.232V25H127.712V20.328C127.712 19.72 127.594 19.2773 127.36 19C127.136 18.7227 126.784 18.584 126.304 18.584C125.717 18.584 125.248 18.7707 124.896 19.144C124.554 19.5067 124.384 19.992 124.384 20.6V25H122.384ZM134.751 25.16C134.068 25.16 133.466 24.9947 132.943 24.664C132.431 24.3333 132.031 23.864 131.743 23.256C131.455 22.6373 131.311 21.912 131.311 21.08C131.311 20.2373 131.455 19.5173 131.743 18.92C132.031 18.312 132.431 17.8427 132.943 17.512C133.466 17.1813 134.068 17.016 134.751 17.016C135.306 17.016 135.807 17.1387 136.255 17.384C136.703 17.6293 137.039 17.9547 137.263 18.36V13.72H139.263V25H137.311V23.704C137.098 24.152 136.762 24.5093 136.303 24.776C135.844 25.032 135.327 25.16 134.751 25.16ZM135.311 23.64C135.908 23.64 136.388 23.4267 136.751 23C137.114 22.5627 137.295 21.9227 137.295 21.08C137.295 20.2267 137.114 19.592 136.751 19.176C136.388 18.7493 135.908 18.536 135.311 18.536C134.714 18.536 134.234 18.7493 133.871 19.176C133.508 19.592 133.327 20.2267 133.327 21.08C133.327 21.9227 133.508 22.5627 133.871 23C134.234 23.4267 134.714 23.64 135.311 23.64ZM145.193 25.16C144.307 25.16 143.545 24.9947 142.905 24.664C142.265 24.3333 141.769 23.864 141.417 23.256C141.075 22.648 140.905 21.928 140.905 21.096C140.905 20.2853 141.07 19.576 141.401 18.968C141.742 18.36 142.206 17.8853 142.793 17.544C143.39 17.192 144.067 17.016 144.825 17.016C145.934 17.016 146.809 17.368 147.449 18.072C148.099 18.776 148.425 19.736 148.425 20.952V21.544H142.825C142.974 22.9413 143.774 23.64 145.225 23.64C145.662 23.64 146.099 23.576 146.537 23.448C146.974 23.3093 147.374 23.096 147.737 22.808L148.297 24.152C147.923 24.4613 147.454 24.7067 146.889 24.888C146.323 25.0693 145.758 25.16 145.193 25.16ZM144.905 18.376C144.318 18.376 143.843 18.5573 143.481 18.92C143.118 19.2827 142.899 19.7733 142.825 20.392H146.761C146.718 19.7413 146.537 19.2453 146.217 18.904C145.907 18.552 145.47 18.376 144.905 18.376ZM153.017 25.16C152.334 25.16 151.731 24.9947 151.209 24.664C150.697 24.3333 150.297 23.864 150.009 23.256C149.721 22.6373 149.577 21.912 149.577 21.08C149.577 20.2373 149.721 19.5173 150.009 18.92C150.297 18.312 150.697 17.8427 151.209 17.512C151.731 17.1813 152.334 17.016 153.017 17.016C153.571 17.016 154.073 17.1387 154.521 17.384C154.969 17.6293 155.305 17.9547 155.529 18.36V13.72H157.529V25H155.577V23.704C155.363 24.152 155.027 24.5093 154.569 24.776C154.11 25.032 153.593 25.16 153.017 25.16ZM153.577 23.64C154.174 23.64 154.654 23.4267 155.017 23C155.379 22.5627 155.561 21.9227 155.561 21.08C155.561 20.2267 155.379 19.592 155.017 19.176C154.654 18.7493 154.174 18.536 153.577 18.536C152.979 18.536 152.499 18.7493 152.137 19.176C151.774 19.592 151.593 20.2267 151.593 21.08C151.593 21.9227 151.774 22.5627 152.137 23C152.499 23.4267 152.979 23.64 153.577 23.64Z" fill="#414141"/>
<rect x="0.999756" y="1" width="168" height="38" stroke="#BDBDBD" stroke-width="2"/>
</svg>
