<svg width="184" height="42" viewBox="0 0 184 42" fill="none" xmlns="http://www.w3.org/2000/svg">
<path d="M1 1H183V41H1V1Z" fill="#FFF2D2"/>
<path d="M23.656 26.16C22.408 26.16 21.352 25.9253 20.488 25.456C19.6347 24.9867 18.984 24.32 18.536 23.456C18.088 22.592 17.864 21.568 17.864 20.384C17.864 19.1893 18.0933 18.16 18.552 17.296C19.0107 16.4213 19.672 15.7493 20.536 15.28C21.4 14.8 22.4347 14.56 23.64 14.56C24.4293 14.56 25.1707 14.6773 25.864 14.912C26.5573 15.136 27.1333 15.4507 27.592 15.856L26.904 17.456C26.4027 17.0613 25.8907 16.7787 25.368 16.608C24.8453 16.4373 24.2693 16.352 23.64 16.352C22.4453 16.352 21.5387 16.6987 20.92 17.392C20.312 18.0853 20.008 19.0827 20.008 20.384C20.008 21.696 20.3227 22.6933 20.952 23.376C21.5813 24.0587 22.5147 24.4 23.752 24.4C24.104 24.4 24.4613 24.3733 24.824 24.32C25.1973 24.256 25.5653 24.1653 25.928 24.048V21.424H23.336V19.904H27.64V25.328C27.1173 25.584 26.4987 25.7867 25.784 25.936C25.0693 26.0853 24.36 26.16 23.656 26.16ZM33.3893 26.16C32.5786 26.16 31.8746 25.9947 31.2773 25.664C30.6799 25.3333 30.2159 24.864 29.8853 24.256C29.5546 23.6373 29.3893 22.912 29.3893 22.08C29.3893 21.248 29.5546 20.528 29.8853 19.92C30.2159 19.312 30.6799 18.8427 31.2773 18.512C31.8746 18.1813 32.5786 18.016 33.3893 18.016C34.1999 18.016 34.9039 18.1813 35.5013 18.512C36.0986 18.8427 36.5626 19.312 36.8933 19.92C37.2239 20.528 37.3893 21.248 37.3893 22.08C37.3893 22.912 37.2239 23.6373 36.8933 24.256C36.5626 24.864 36.0986 25.3333 35.5013 25.664C34.9039 25.9947 34.1999 26.16 33.3893 26.16ZM33.3893 24.64C33.9866 24.64 34.4666 24.4267 34.8293 24C35.1919 23.5627 35.3733 22.9227 35.3733 22.08C35.3733 21.2267 35.1919 20.592 34.8293 20.176C34.4666 19.7493 33.9866 19.536 33.3893 19.536C32.7919 19.536 32.3119 19.7493 31.9493 20.176C31.5866 20.592 31.4053 21.2267 31.4053 22.08C31.4053 22.9227 31.5866 23.5627 31.9493 24C32.3119 24.4267 32.7919 24.64 33.3893 24.64ZM41.76 26.16C40.832 26.16 40.144 25.9093 39.696 25.408C39.2587 24.896 39.04 24.1493 39.04 23.168V14.72H41.04V23.072C41.04 24.032 41.4453 24.512 42.256 24.512C42.3733 24.512 42.4907 24.5067 42.608 24.496C42.7253 24.4853 42.8373 24.464 42.944 24.432L42.912 26.016C42.528 26.112 42.144 26.16 41.76 26.16ZM47.0793 26.16C46.3966 26.16 45.7939 25.9947 45.2713 25.664C44.7593 25.3333 44.3593 24.864 44.0713 24.256C43.7833 23.6373 43.6393 22.912 43.6393 22.08C43.6393 21.2373 43.7833 20.5173 44.0713 19.92C44.3593 19.312 44.7593 18.8427 45.2713 18.512C45.7939 18.1813 46.3966 18.016 47.0793 18.016C47.6339 18.016 48.1353 18.1387 48.5833 18.384C49.0313 18.6293 49.3673 18.9547 49.5913 19.36V14.72H51.5913V26H49.6393V24.704C49.4259 25.152 49.0899 25.5093 48.6313 25.776C48.1726 26.032 47.6553 26.16 47.0793 26.16ZM47.6393 24.64C48.2366 24.64 48.7166 24.4267 49.0793 24C49.4419 23.5627 49.6233 22.9227 49.6233 22.08C49.6233 21.2267 49.4419 20.592 49.0793 20.176C48.7166 19.7493 48.2366 19.536 47.6393 19.536C47.0419 19.536 46.5619 19.7493 46.1993 20.176C45.8366 20.592 45.6553 21.2267 45.6553 22.08C45.6553 22.9227 45.8366 23.5627 46.1993 24C46.5619 24.4267 47.0419 24.64 47.6393 24.64ZM60.7455 29.12C59.9562 27.9467 59.3908 26.752 59.0495 25.536C58.7082 24.3093 58.5375 23.0613 58.5375 21.792C58.5375 20.512 58.7082 19.264 59.0495 18.048C59.3908 16.832 59.9562 15.6373 60.7455 14.464L62.1055 15.008C61.6042 16.2347 61.2415 17.3813 61.0175 18.448C60.7935 19.504 60.6815 20.6187 60.6815 21.792C60.6815 22.9547 60.7935 24.0693 61.0175 25.136C61.2415 26.2027 61.6042 27.3493 62.1055 28.576L60.7455 29.12ZM67.2959 26.16C65.2265 26.16 64.1919 25.136 64.1919 23.088V19.68H62.6879V18.176H64.1919V15.84H66.1919V18.176H68.5599V19.68H66.1919V22.976C66.1919 23.488 66.3039 23.872 66.5279 24.128C66.7519 24.384 67.1145 24.512 67.6159 24.512C67.7652 24.512 67.9199 24.496 68.0799 24.464C68.2399 24.4213 68.4052 24.3787 68.5759 24.336L68.8799 25.808C68.6879 25.9147 68.4425 26 68.1439 26.064C67.8559 26.128 67.5732 26.16 67.2959 26.16ZM73.6304 26.16C72.745 26.16 71.9824 25.9947 71.3424 25.664C70.7024 25.3333 70.2064 24.864 69.8544 24.256C69.513 23.648 69.3424 22.928 69.3424 22.096C69.3424 21.2853 69.5077 20.576 69.8384 19.968C70.1797 19.36 70.6437 18.8853 71.2304 18.544C71.8277 18.192 72.505 18.016 73.2624 18.016C74.3717 18.016 75.2464 18.368 75.8864 19.072C76.537 19.776 76.8624 20.736 76.8624 21.952V22.544H71.2624C71.4117 23.9413 72.2117 24.64 73.6624 24.64C74.0997 24.64 74.537 24.576 74.9744 24.448C75.4117 24.3093 75.8117 24.096 76.1744 23.808L76.7344 25.152C76.361 25.4613 75.8917 25.7067 75.3264 25.888C74.761 26.0693 74.1957 26.16 73.6304 26.16ZM73.3424 19.376C72.7557 19.376 72.281 19.5573 71.9184 19.92C71.5557 20.2827 71.337 20.7733 71.2624 21.392H75.1984C75.1557 20.7413 74.9744 20.2453 74.6544 19.904C74.345 19.552 73.9077 19.376 73.3424 19.376ZM78.4463 26V18.176H80.3983V19.392C80.6649 18.944 81.0223 18.6027 81.4703 18.368C81.9289 18.1333 82.4409 18.016 83.0063 18.016C84.8516 18.016 85.7743 19.088 85.7743 21.232V26H83.7743V21.328C83.7743 20.72 83.6569 20.2773 83.4223 20C83.1983 19.7227 82.8463 19.584 82.3663 19.584C81.7796 19.584 81.3103 19.7707 80.9583 20.144C80.6169 20.5067 80.4463 20.992 80.4463 21.6V26H78.4463ZM91.3896 26.16C89.3203 26.16 88.2856 25.136 88.2856 23.088V19.68H86.7816V18.176H88.2856V15.84H90.2856V18.176H92.6536V19.68H90.2856V22.976C90.2856 23.488 90.3976 23.872 90.6216 24.128C90.8456 24.384 91.2083 24.512 91.7096 24.512C91.859 24.512 92.0136 24.496 92.1736 24.464C92.3336 24.4213 92.499 24.3787 92.6696 24.336L92.9736 25.808C92.7816 25.9147 92.5363 26 92.2376 26.064C91.9496 26.128 91.667 26.16 91.3896 26.16ZM96.5223 26.16C95.9569 26.16 95.4503 26.0533 95.0023 25.84C94.5649 25.616 94.2183 25.3173 93.9622 24.944C93.7169 24.5707 93.5943 24.1493 93.5943 23.68C93.5943 23.104 93.7436 22.6507 94.0423 22.32C94.3409 21.9787 94.8263 21.7333 95.4983 21.584C96.1703 21.4347 97.0716 21.36 98.2023 21.36H98.7623V21.024C98.7623 20.4907 98.6449 20.1067 98.4103 19.872C98.1756 19.6373 97.7809 19.52 97.2263 19.52C96.7889 19.52 96.3409 19.5893 95.8823 19.728C95.4236 19.856 94.9596 20.0587 94.4903 20.336L93.9143 18.976C94.1916 18.784 94.5169 18.6187 94.8903 18.48C95.2743 18.3307 95.6743 18.2187 96.0903 18.144C96.5169 18.0587 96.9169 18.016 97.2903 18.016C98.4316 18.016 99.2796 18.2827 99.8343 18.816C100.389 19.3387 100.666 20.1547 100.666 21.264V26H98.7943V24.752C98.6129 25.1893 98.3249 25.536 97.9303 25.792C97.5356 26.0373 97.0663 26.16 96.5223 26.16ZM96.9383 24.784C97.4609 24.784 97.8929 24.6027 98.2343 24.24C98.5863 23.8773 98.7623 23.4187 98.7623 22.864V22.512H98.2183C97.2156 22.512 96.5169 22.592 96.1223 22.752C95.7383 22.9013 95.5463 23.1787 95.5463 23.584C95.5463 23.936 95.6689 24.224 95.9143 24.448C96.1596 24.672 96.5009 24.784 96.9383 24.784ZM106.28 26.16C104.211 26.16 103.176 25.136 103.176 23.088V19.68H101.672V18.176H103.176V15.84H105.176V18.176H107.544V19.68H105.176V22.976C105.176 23.488 105.288 23.872 105.512 24.128C105.736 24.384 106.099 24.512 106.6 24.512C106.75 24.512 106.904 24.496 107.064 24.464C107.224 24.4213 107.39 24.3787 107.56 24.336L107.864 25.808C107.672 25.9147 107.427 26 107.128 26.064C106.84 26.128 106.558 26.16 106.28 26.16ZM108.709 16.496V14.544H110.949V16.496H108.709ZM108.837 26V18.176H110.837V26H108.837ZM115.219 26L111.827 18.176H113.955L116.131 23.648L118.387 18.176H120.387L116.947 26H115.219ZM125.052 26.16C124.167 26.16 123.404 25.9947 122.764 25.664C122.124 25.3333 121.628 24.864 121.276 24.256C120.935 23.648 120.764 22.928 120.764 22.096C120.764 21.2853 120.93 20.576 121.26 19.968C121.602 19.36 122.066 18.8853 122.652 18.544C123.25 18.192 123.927 18.016 124.684 18.016C125.794 18.016 126.668 18.368 127.308 19.072C127.959 19.776 128.284 20.736 128.284 21.952V22.544H122.684C122.834 23.9413 123.634 24.64 125.084 24.64C125.522 24.64 125.959 24.576 126.396 24.448C126.834 24.3093 127.234 24.096 127.596 23.808L128.156 25.152C127.783 25.4613 127.314 25.7067 126.748 25.888C126.183 26.0693 125.618 26.16 125.052 26.16ZM124.764 19.376C124.178 19.376 123.703 19.5573 123.34 19.92C122.978 20.2827 122.759 20.7733 122.684 21.392H126.62C126.578 20.7413 126.396 20.2453 126.076 19.904C125.767 19.552 125.33 19.376 124.764 19.376ZM130.592 29.12L129.232 28.576C129.733 27.3387 130.096 26.1867 130.32 25.12C130.544 24.0533 130.656 22.944 130.656 21.792C130.656 20.64 130.544 19.5307 130.32 18.464C130.096 17.3973 129.733 16.2453 129.232 15.008L130.592 14.464C131.381 15.6373 131.947 16.8373 132.288 18.064C132.629 19.28 132.8 20.5227 132.8 21.792C132.8 23.0613 132.629 24.3093 132.288 25.536C131.947 26.752 131.381 27.9467 130.592 29.12Z" fill="#414141"/>
<path d="M153.488 15.1289L150.248 9.72844C150.115 9.50628 149.926 9.32241 149.701 9.19476C149.475 9.0671 149.221 9 148.962 9H143.751C143.144 9 142.789 9.68297 143.137 10.1803L148.353 17.6316C149.746 16.3298 151.518 15.4364 153.488 15.1289ZM166.249 9H161.038C160.512 9 160.023 9.27656 159.752 9.72844L156.512 15.1289C158.482 15.4364 160.254 16.3298 161.647 17.6311L166.863 10.1803C167.211 9.68297 166.856 9 166.249 9ZM155 16.5C150.444 16.5 146.75 20.1938 146.75 24.75C146.75 29.3062 150.444 33 155 33C159.556 33 163.25 29.3062 163.25 24.75C163.25 20.1938 159.556 16.5 155 16.5ZM159.337 23.8716L157.559 25.6041L157.979 28.0519C158.054 28.4906 157.592 28.8258 157.199 28.6186L155 27.4631L152.802 28.6186C152.408 28.8272 151.946 28.4902 152.021 28.0519L152.442 25.6041L150.664 23.8716C150.344 23.5603 150.521 23.017 150.961 22.9533L153.419 22.5952L154.517 20.3677C154.616 20.167 154.807 20.0681 154.999 20.0681C155.192 20.0681 155.384 20.1684 155.483 20.3677L156.582 22.5952L159.039 22.9533C159.48 23.017 159.657 23.5603 159.337 23.8716Z" fill="#FFB808"/>
<path d="M153.488 15.1289L150.248 9.72844C150.115 9.50628 149.926 9.32241 149.701 9.19476C149.475 9.0671 149.221 9 148.962 9H143.751C143.144 9 142.789 9.68297 143.137 10.1803L148.353 17.6316C149.746 16.3298 151.518 15.4364 153.488 15.1289ZM166.249 9H161.038C160.512 9 160.023 9.27656 159.752 9.72844L156.512 15.1289C158.482 15.4364 160.254 16.3298 161.647 17.6311L166.863 10.1803C167.211 9.68297 166.856 9 166.249 9ZM155 16.5C150.444 16.5 146.75 20.1938 146.75 24.75C146.75 29.3062 150.444 33 155 33C159.556 33 163.25 29.3062 163.25 24.75C163.25 20.1938 159.556 16.5 155 16.5ZM159.337 23.8716L157.559 25.6041L157.979 28.0519C158.054 28.4906 157.592 28.8258 157.199 28.6186L155 27.4631L152.802 28.6186C152.408 28.8272 151.946 28.4902 152.021 28.0519L152.442 25.6041L150.664 23.8716C150.344 23.5603 150.521 23.017 150.961 22.9533L153.419 22.5952L154.517 20.3677C154.616 20.167 154.807 20.0681 154.999 20.0681C155.192 20.0681 155.384 20.1684 155.483 20.3677L156.582 22.5952L159.039 22.9533C159.48 23.017 159.657 23.5603 159.337 23.8716Z" stroke="#FFB808"/>
<path d="M1 1V0H0V1H1ZM183 1H184V0H183V1ZM183 41V42H184V41H183ZM1 41H0V42H1V41ZM0 1V3H2V1H0ZM0 7V11H2V7H0ZM0 15V19H2V15H0ZM0 23V27H2V23H0ZM0 31V35H2V31H0ZM0 39V41H2V39H0ZM1 42H2.97826V40H1V42ZM6.93478 42H10.8913V40H6.93478V42ZM14.8478 42H18.8043V40H14.8478V42ZM22.7609 42H26.7174V40H22.7609V42ZM30.6739 42H34.6304V40H30.6739V42ZM38.5869 42H42.5435V40H38.5869V42ZM46.5 42H50.4565V40H46.5V42ZM54.413 42H58.3695V40H54.413V42ZM62.3261 42H66.2826V40H62.3261V42ZM70.2391 42H74.1956V40H70.2391V42ZM78.1521 42H82.1087V40H78.1521V42ZM86.0652 42H90.0217V40H86.0652V42ZM93.9782 42H97.9347V40H93.9782V42ZM101.891 42H105.848V40H101.891V42ZM109.804 42H113.761V40H109.804V42ZM117.717 42H121.674V40H117.717V42ZM125.63 42H129.587V40H125.63V42ZM133.543 42H137.5V40H133.543V42ZM141.456 42H145.413V40H141.456V42ZM149.37 42H153.326V40H149.37V42ZM157.283 42H161.239V40H157.283V42ZM165.196 42H169.152V40H165.196V42ZM173.109 42H177.065V40H173.109V42ZM181.022 42H183V40H181.022V42ZM184 41V39H182V41H184ZM184 35V31H182V35H184ZM184 27V23H182V27H184ZM184 19V15H182V19H184ZM184 11V7H182V11H184ZM184 3V1H182V3H184ZM183 0H181.022V2H183V0ZM177.065 0H173.109V2H177.065V0ZM169.152 0H165.196V2H169.152V0ZM161.239 0H157.283V2H161.239V0ZM153.326 0H149.37V2H153.326V0ZM145.413 0H141.456V2H145.413V0ZM137.5 0H133.543V2H137.5V0ZM129.587 0H125.63V2H129.587V0ZM121.674 0H117.717V2H121.674V0ZM113.761 0H109.804V2H113.761V0ZM105.848 0H101.891V2H105.848V0ZM97.9348 0H93.9782V2H97.9348V0ZM90.0217 0H86.0652V2H90.0217V0ZM82.1087 0H78.1522V2H82.1087V0ZM74.1956 0H70.2391V2H74.1956V0ZM66.2826 0H62.3261V2H66.2826V0ZM58.3696 0H54.413V2H58.3696V0ZM50.4565 0H46.5V2H50.4565V0ZM42.5434 0H38.5869V2H42.5434V0ZM34.6304 0H30.6739V2H34.6304V0ZM26.7173 0H22.7608V2H26.7173V0ZM18.8043 0H14.8478V2H18.8043V0ZM10.8912 0H6.93469V2H10.8912V0ZM2.97816 0H1V2H2.97816V0Z" fill="#FFB808"/>
</svg>
