<svg width="200" height="42" viewBox="0 0 200 42" fill="none" xmlns="http://www.w3.org/2000/svg">
<path d="M0.999878 1H199V41H0.999878V1Z" fill="#FFC49C"/>
<path d="M18.2319 26V14.72H23.1599C24.3439 14.72 25.2612 14.9813 25.9119 15.504C26.5625 16.016 26.8879 16.7307 26.8879 17.648C26.8879 18.256 26.7332 18.7787 26.4239 19.216C26.1145 19.6533 25.6879 19.9733 25.1439 20.176C25.7839 20.3573 26.2799 20.6773 26.6319 21.136C26.9945 21.584 27.1759 22.1547 27.1759 22.848C27.1759 23.8507 26.8345 24.6293 26.1519 25.184C25.4799 25.728 24.5412 26 23.3359 26H18.2319ZM20.1999 19.504H22.8079C24.2052 19.504 24.9039 18.9653 24.9039 17.888C24.9039 16.8107 24.2052 16.272 22.8079 16.272H20.1999V19.504ZM20.1999 24.448H23.0799C24.4879 24.448 25.1919 23.8827 25.1919 22.752C25.1919 21.6213 24.4879 21.056 23.0799 21.056H20.1999V24.448ZM29.0555 26V18.176H31.0075V19.552C31.3915 18.624 32.2128 18.112 33.4715 18.016L34.0795 17.968L34.2075 19.664L33.0555 19.776C31.7435 19.904 31.0875 20.576 31.0875 21.792V26H29.0555ZM38.7641 26.16C37.9535 26.16 37.2495 25.9947 36.6521 25.664C36.0548 25.3333 35.5908 24.864 35.2601 24.256C34.9295 23.6373 34.7641 22.912 34.7641 22.08C34.7641 21.248 34.9295 20.528 35.2601 19.92C35.5908 19.312 36.0548 18.8427 36.6521 18.512C37.2495 18.1813 37.9535 18.016 38.7641 18.016C39.5748 18.016 40.2788 18.1813 40.8761 18.512C41.4735 18.8427 41.9375 19.312 42.2681 19.92C42.5988 20.528 42.7641 21.248 42.7641 22.08C42.7641 22.912 42.5988 23.6373 42.2681 24.256C41.9375 24.864 41.4735 25.3333 40.8761 25.664C40.2788 25.9947 39.5748 26.16 38.7641 26.16ZM38.7641 24.64C39.3615 24.64 39.8415 24.4267 40.2041 24C40.5668 23.5627 40.7481 22.9227 40.7481 22.08C40.7481 21.2267 40.5668 20.592 40.2041 20.176C39.8415 19.7493 39.3615 19.536 38.7641 19.536C38.1668 19.536 37.6868 19.7493 37.3241 20.176C36.9615 20.592 36.7801 21.2267 36.7801 22.08C36.7801 22.9227 36.9615 23.5627 37.3241 24C37.6868 24.4267 38.1668 24.64 38.7641 24.64ZM44.4149 26V18.176H46.3669V19.392C46.6335 18.944 46.9909 18.6027 47.4389 18.368C47.8975 18.1333 48.4095 18.016 48.9749 18.016C50.8202 18.016 51.7429 19.088 51.7429 21.232V26H49.7429V21.328C49.7429 20.72 49.6255 20.2773 49.3909 20C49.1669 19.7227 48.8149 19.584 48.3349 19.584C47.7482 19.584 47.2789 19.7707 46.9269 20.144C46.5855 20.5067 46.4149 20.992 46.4149 21.6V26H44.4149ZM53.5183 26V24.704L57.5503 19.68H53.5183V18.176H59.7263V19.472L55.6943 24.496H59.9023V26H53.5183ZM65.0521 26.16C64.1668 26.16 63.4041 25.9947 62.7641 25.664C62.1241 25.3333 61.6281 24.864 61.2761 24.256C60.9348 23.648 60.7641 22.928 60.7641 22.096C60.7641 21.2853 60.9295 20.576 61.2601 19.968C61.6015 19.36 62.0655 18.8853 62.6521 18.544C63.2495 18.192 63.9268 18.016 64.6841 18.016C65.7935 18.016 66.6681 18.368 67.3081 19.072C67.9588 19.776 68.2841 20.736 68.2841 21.952V22.544H62.6841C62.8335 23.9413 63.6335 24.64 65.0841 24.64C65.5215 24.64 65.9588 24.576 66.3961 24.448C66.8335 24.3093 67.2335 24.096 67.5961 23.808L68.1561 25.152C67.7828 25.4613 67.3135 25.7067 66.7481 25.888C66.1828 26.0693 65.6175 26.16 65.0521 26.16ZM64.7641 19.376C64.1775 19.376 63.7028 19.5573 63.3401 19.92C62.9775 20.2827 62.7588 20.7733 62.6841 21.392H66.6201C66.5775 20.7413 66.3961 20.2453 66.0761 19.904C65.7668 19.552 65.3295 19.376 64.7641 19.376ZM76.9485 29.12C76.1592 27.9467 75.5938 26.752 75.2525 25.536C74.9112 24.3093 74.7405 23.0613 74.7405 21.792C74.7405 20.512 74.9112 19.264 75.2525 18.048C75.5938 16.832 76.1592 15.6373 76.9485 14.464L78.3085 15.008C77.8072 16.2347 77.4445 17.3813 77.2205 18.448C76.9965 19.504 76.8845 20.6187 76.8845 21.792C76.8845 22.9547 76.9965 24.0693 77.2205 25.136C77.4445 26.2027 77.8072 27.3493 78.3085 28.576L76.9485 29.12ZM83.4989 26.16C81.4295 26.16 80.3949 25.136 80.3949 23.088V19.68H78.8909V18.176H80.3949V15.84H82.3949V18.176H84.7629V19.68H82.3949V22.976C82.3949 23.488 82.5069 23.872 82.7309 24.128C82.9549 24.384 83.3175 24.512 83.8189 24.512C83.9682 24.512 84.1229 24.496 84.2829 24.464C84.4429 24.4213 84.6082 24.3787 84.7789 24.336L85.0829 25.808C84.8909 25.9147 84.6455 26 84.3469 26.064C84.0589 26.128 83.7762 26.16 83.4989 26.16ZM89.8334 26.16C88.948 26.16 88.1854 25.9947 87.5454 25.664C86.9054 25.3333 86.4094 24.864 86.0574 24.256C85.716 23.648 85.5454 22.928 85.5454 22.096C85.5454 21.2853 85.7107 20.576 86.0414 19.968C86.3827 19.36 86.8467 18.8853 87.4334 18.544C88.0307 18.192 88.708 18.016 89.4654 18.016C90.5747 18.016 91.4494 18.368 92.0894 19.072C92.74 19.776 93.0654 20.736 93.0654 21.952V22.544H87.4654C87.6147 23.9413 88.4147 24.64 89.8654 24.64C90.3027 24.64 90.74 24.576 91.1774 24.448C91.6147 24.3093 92.0147 24.096 92.3774 23.808L92.9374 25.152C92.564 25.4613 92.0947 25.7067 91.5294 25.888C90.964 26.0693 90.3987 26.16 89.8334 26.16ZM89.5454 19.376C88.9587 19.376 88.484 19.5573 88.1214 19.92C87.7587 20.2827 87.54 20.7733 87.4654 21.392H91.4014C91.3587 20.7413 91.1774 20.2453 90.8574 19.904C90.548 19.552 90.1107 19.376 89.5454 19.376ZM94.6493 26V18.176H96.6013V19.392C96.8679 18.944 97.2253 18.6027 97.6733 18.368C98.1319 18.1333 98.6439 18.016 99.2093 18.016C101.055 18.016 101.977 19.088 101.977 21.232V26H99.9773V21.328C99.9773 20.72 99.8599 20.2773 99.6253 20C99.4013 19.7227 99.0493 19.584 98.5693 19.584C97.9826 19.584 97.5133 19.7707 97.1613 20.144C96.8199 20.5067 96.6493 20.992 96.6493 21.6V26H94.6493ZM107.593 26.16C105.523 26.16 104.489 25.136 104.489 23.088V19.68H102.985V18.176H104.489V15.84H106.489V18.176H108.857V19.68H106.489V22.976C106.489 23.488 106.601 23.872 106.825 24.128C107.049 24.384 107.411 24.512 107.913 24.512C108.062 24.512 108.217 24.496 108.377 24.464C108.537 24.4213 108.702 24.3787 108.873 24.336L109.177 25.808C108.985 25.9147 108.739 26 108.441 26.064C108.153 26.128 107.87 26.16 107.593 26.16ZM112.725 26.16C112.16 26.16 111.653 26.0533 111.205 25.84C110.768 25.616 110.421 25.3173 110.165 24.944C109.92 24.5707 109.797 24.1493 109.797 23.68C109.797 23.104 109.947 22.6507 110.245 22.32C110.544 21.9787 111.029 21.7333 111.701 21.584C112.373 21.4347 113.275 21.36 114.405 21.36H114.965V21.024C114.965 20.4907 114.848 20.1067 114.613 19.872C114.379 19.6373 113.984 19.52 113.429 19.52C112.992 19.52 112.544 19.5893 112.085 19.728C111.627 19.856 111.163 20.0587 110.693 20.336L110.117 18.976C110.395 18.784 110.72 18.6187 111.093 18.48C111.477 18.3307 111.877 18.2187 112.293 18.144C112.72 18.0587 113.12 18.016 113.493 18.016C114.635 18.016 115.483 18.2827 116.037 18.816C116.592 19.3387 116.869 20.1547 116.869 21.264V26H114.997V24.752C114.816 25.1893 114.528 25.536 114.133 25.792C113.739 26.0373 113.269 26.16 112.725 26.16ZM113.141 24.784C113.664 24.784 114.096 24.6027 114.437 24.24C114.789 23.8773 114.965 23.4187 114.965 22.864V22.512H114.421C113.419 22.512 112.72 22.592 112.325 22.752C111.941 22.9013 111.749 23.1787 111.749 23.584C111.749 23.936 111.872 24.224 112.117 24.448C112.363 24.672 112.704 24.784 113.141 24.784ZM122.483 26.16C120.414 26.16 119.379 25.136 119.379 23.088V19.68H117.875V18.176H119.379V15.84H121.379V18.176H123.747V19.68H121.379V22.976C121.379 23.488 121.491 23.872 121.715 24.128C121.939 24.384 122.302 24.512 122.803 24.512C122.953 24.512 123.107 24.496 123.267 24.464C123.427 24.4213 123.593 24.3787 123.763 24.336L124.067 25.808C123.875 25.9147 123.63 26 123.331 26.064C123.043 26.128 122.761 26.16 122.483 26.16ZM124.912 16.496V14.544H127.152V16.496H124.912ZM125.04 26V18.176H127.04V26H125.04ZM131.422 26L128.03 18.176H130.158L132.334 23.648L134.59 18.176H136.59L133.15 26H131.422ZM141.255 26.16C140.37 26.16 139.607 25.9947 138.967 25.664C138.327 25.3333 137.831 24.864 137.479 24.256C137.138 23.648 136.967 22.928 136.967 22.096C136.967 21.2853 137.133 20.576 137.463 19.968C137.805 19.36 138.269 18.8853 138.855 18.544C139.453 18.192 140.13 18.016 140.887 18.016C141.997 18.016 142.871 18.368 143.511 19.072C144.162 19.776 144.487 20.736 144.487 21.952V22.544H138.887C139.037 23.9413 139.837 24.64 141.287 24.64C141.725 24.64 142.162 24.576 142.599 24.448C143.037 24.3093 143.437 24.096 143.799 23.808L144.359 25.152C143.986 25.4613 143.517 25.7067 142.951 25.888C142.386 26.0693 141.821 26.16 141.255 26.16ZM140.967 19.376C140.381 19.376 139.906 19.5573 139.543 19.92C139.181 20.2827 138.962 20.7733 138.887 21.392H142.823C142.781 20.7413 142.599 20.2453 142.279 19.904C141.97 19.552 141.533 19.376 140.967 19.376ZM146.795 29.12L145.435 28.576C145.936 27.3387 146.299 26.1867 146.523 25.12C146.747 24.0533 146.859 22.944 146.859 21.792C146.859 20.64 146.747 19.5307 146.523 18.464C146.299 17.3973 145.936 16.2453 145.435 15.008L146.795 14.464C147.584 15.6373 148.15 16.8373 148.491 18.064C148.832 19.28 149.003 20.5227 149.003 21.792C149.003 23.0613 148.832 24.3093 148.491 25.536C148.15 26.752 147.584 27.9467 146.795 29.12Z" fill="#414141"/>
<path d="M169.488 15.1289L166.248 9.72844C166.114 9.50628 165.926 9.32241 165.701 9.19476C165.475 9.0671 165.22 9 164.961 9H159.751C159.144 9 158.789 9.68297 159.137 10.1803L164.353 17.6316C165.746 16.3298 167.518 15.4364 169.488 15.1289ZM182.248 9H177.038C176.511 9 176.023 9.27656 175.752 9.72844L172.512 15.1289C174.482 15.4364 176.254 16.3298 177.647 17.6311L182.863 10.1803C183.211 9.68297 182.855 9 182.248 9ZM171 16.5C166.444 16.5 162.75 20.1938 162.75 24.75C162.75 29.3062 166.444 33 171 33C175.556 33 179.25 29.3062 179.25 24.75C179.25 20.1938 175.556 16.5 171 16.5ZM175.337 23.8716L173.559 25.6041L173.979 28.0519C174.054 28.4906 173.592 28.8258 173.199 28.6186L171 27.4631L168.801 28.6186C168.408 28.8272 167.946 28.4902 168.021 28.0519L168.441 25.6041L166.663 23.8716C166.344 23.5603 166.52 23.017 166.961 22.9533L169.419 22.5952L170.517 20.3677C170.616 20.167 170.807 20.0681 170.999 20.0681C171.192 20.0681 171.384 20.1684 171.483 20.3677L172.581 22.5952L175.039 22.9533C175.48 23.017 175.656 23.5603 175.337 23.8716Z" fill="#A16A4A"/>
<path d="M0.999878 1V0H-0.00012207V1H0.999878ZM199 1H200V0H199V1ZM199 41V42H200V41H199ZM0.999878 41H-0.00012207V42H0.999878V41ZM-0.00012207 1V3H1.99988V1H-0.00012207ZM-0.00012207 7V11H1.99988V7H-0.00012207ZM-0.00012207 15V19H1.99988V15H-0.00012207ZM-0.00012207 23V27H1.99988V23H-0.00012207ZM-0.00012207 31V35H1.99988V31H-0.00012207ZM-0.00012207 39V41H1.99988V39H-0.00012207ZM0.999878 42H2.97988V40H0.999878V42ZM6.93988 42H10.8999V40H6.93988V42ZM14.8599 42H18.8199V40H14.8599V42ZM22.7799 42H26.7399V40H22.7799V42ZM30.6999 42H34.6599V40H30.6999V42ZM38.6199 42H42.5799V40H38.6199V42ZM46.5399 42H50.4999V40H46.5399V42ZM54.4599 42H58.4199V40H54.4599V42ZM62.3799 42H66.3399V40H62.3799V42ZM70.2999 42H74.2599V40H70.2999V42ZM78.2199 42H82.1799V40H78.2199V42ZM86.1399 42H90.0999V40H86.1399V42ZM94.0599 42H98.0199V40H94.0599V42ZM101.98 42H105.94V40H101.98V42ZM109.9 42H113.86V40H109.9V42ZM117.82 42H121.78V40H117.82V42ZM125.74 42H129.7V40H125.74V42ZM133.66 42H137.62V40H133.66V42ZM141.58 42H145.54V40H141.58V42ZM149.5 42H153.46V40H149.5V42ZM157.42 42H161.38V40H157.42V42ZM165.34 42H169.3V40H165.34V42ZM173.26 42H177.22V40H173.26V42ZM181.18 42H185.14V40H181.18V42ZM189.1 42H193.06V40H189.1V42ZM197.02 42H199V40H197.02V42ZM200 41V39H198V41H200ZM200 35V31H198V35H200ZM200 27V23H198V27H200ZM200 19V15H198V19H200ZM200 11V7H198V11H200ZM200 3V1H198V3H200ZM199 0H197.02V2H199V0ZM193.06 0H189.1V2H193.06V0ZM185.14 0H181.18V2H185.14V0ZM177.22 0H173.26V2H177.22V0ZM169.3 0H165.34V2H169.3V0ZM161.38 0H157.42V2H161.38V0ZM153.46 0H149.5V2H153.46V0ZM145.54 0H141.58V2H145.54V0ZM137.62 0H133.66V2H137.62V0ZM129.7 0H125.74V2H129.7V0ZM121.78 0H117.82V2H121.78V0ZM113.86 0H109.9V2H113.86V0ZM105.94 0H101.98V2H105.94V0ZM98.0199 0H94.0598V2H98.0199V0ZM90.0998 0H86.1398V2H90.0998V0ZM82.1798 0H78.2198V2H82.1798V0ZM74.2598 0H70.2999V2H74.2598V0ZM66.3399 0H62.3799V2H66.3399V0ZM58.4199 0H54.4599V2H58.4199V0ZM50.4999 0H46.5399V2H50.4999V0ZM42.5799 0H38.6199V2H42.5799V0ZM34.6599 0H30.6999V2H34.6599V0ZM26.7399 0H22.78V2H26.7399V0ZM18.82 0H14.86V2H18.82V0ZM10.9 0H6.93999V2H10.9V0ZM2.97999 0H0.999878V2H2.97999V0Z" fill="#A16A4A"/>
</svg>
