<svg width="118" height="42" viewBox="0 0 118 42" fill="none" xmlns="http://www.w3.org/2000/svg">
<path d="M0.999878 1H117V41H0.999878V1Z" fill="#FFC49C"/>
<path d="M25.1599 20.176C25.8105 20.3573 26.3119 20.688 26.6639 21.168C27.0265 21.648 27.2079 22.2347 27.2079 22.928C27.2079 23.888 26.8612 24.64 26.1679 25.184C25.4852 25.728 24.5412 26 23.3359 26H18.2159V14.72H23.1759C24.3492 14.72 25.2665 14.9813 25.9279 15.504C26.5999 16.016 26.9359 16.736 26.9359 17.664C26.9359 18.2613 26.7759 18.7787 26.4559 19.216C26.1465 19.6533 25.7145 19.9733 25.1599 20.176ZM20.2319 19.472H22.8399C24.2585 19.472 24.9679 18.944 24.9679 17.888C24.9679 17.3547 24.7919 16.96 24.4399 16.704C24.0879 16.448 23.5545 16.32 22.8399 16.32H20.2319V19.472ZM23.1119 24.4C23.8585 24.4 24.4025 24.2667 24.7439 24C25.0852 23.7333 25.2559 23.3173 25.2559 22.752C25.2559 22.1867 25.0799 21.7653 24.7279 21.488C24.3865 21.2107 23.8479 21.072 23.1119 21.072H20.2319V24.4H23.1119ZM34.1138 19.648L32.9458 19.76C31.6231 19.8987 30.9618 20.5707 30.9618 21.776V26H28.9618V18.176H30.8658V19.552C31.2711 18.6133 32.1084 18.1013 33.3778 18.016L33.9858 17.968L34.1138 19.648ZM38.4985 26.128C37.6985 26.128 36.9945 25.9627 36.3865 25.632C35.7892 25.3013 35.3252 24.8267 34.9945 24.208C34.6638 23.5893 34.4985 22.8693 34.4985 22.048C34.4985 21.2267 34.6638 20.512 34.9945 19.904C35.3252 19.2853 35.7892 18.8107 36.3865 18.48C36.9945 18.1493 37.6985 17.984 38.4985 17.984C39.2985 17.984 39.9972 18.1493 40.5945 18.48C41.2025 18.8107 41.6665 19.2853 41.9865 19.904C42.3172 20.512 42.4825 21.2267 42.4825 22.048C42.4825 22.8693 42.3172 23.5893 41.9865 24.208C41.6665 24.8267 41.2025 25.3013 40.5945 25.632C39.9972 25.9627 39.2985 26.128 38.4985 26.128ZM38.4825 24.576C39.1332 24.576 39.6292 24.3627 39.9705 23.936C40.3118 23.5093 40.4825 22.88 40.4825 22.048C40.4825 21.2267 40.3118 20.6027 39.9705 20.176C39.6292 19.7387 39.1385 19.52 38.4985 19.52C37.8585 19.52 37.3625 19.7387 37.0105 20.176C36.6692 20.6027 36.4985 21.2267 36.4985 22.048C36.4985 22.88 36.6692 23.5093 37.0105 23.936C37.3518 24.3627 37.8425 24.576 38.4825 24.576ZM48.6776 17.984C49.6163 17.984 50.315 18.2507 50.7736 18.784C51.2323 19.3173 51.4616 20.1227 51.4616 21.2V26H49.4616V21.312C49.4616 20.704 49.3443 20.2613 49.1096 19.984C48.8856 19.7067 48.5283 19.568 48.0376 19.568C47.4616 19.568 46.9976 19.7493 46.6456 20.112C46.3043 20.4747 46.1336 20.96 46.1336 21.568V26H44.1336V18.176H46.0856V19.344C46.3523 18.9067 46.7096 18.5707 47.1576 18.336C47.6056 18.1013 48.1123 17.984 48.6776 17.984ZM60.021 24.496V26H53.205V24.608L57.461 19.68H53.285V18.176H59.861V19.536L55.573 24.496H60.021ZM68.3101 22.448H62.9821C63.0461 23.1733 63.2648 23.712 63.6381 24.064C64.0115 24.416 64.5448 24.592 65.2381 24.592C66.1021 24.592 66.8915 24.3147 67.6061 23.76L68.1821 25.136C67.8195 25.4347 67.3608 25.6747 66.8061 25.856C66.2621 26.0373 65.7128 26.128 65.1581 26.128C63.8781 26.128 62.8648 25.7653 62.1181 25.04C61.3821 24.3147 61.0141 23.3227 61.0141 22.064C61.0141 21.264 61.1741 20.5547 61.4941 19.936C61.8141 19.3173 62.2621 18.8373 62.8381 18.496C63.4248 18.1547 64.0861 17.984 64.8221 17.984C65.8995 17.984 66.7475 18.3307 67.3661 19.024C67.9955 19.7173 68.3101 20.672 68.3101 21.888V22.448ZM64.8701 19.392C64.3368 19.392 63.9048 19.5627 63.5741 19.904C63.2541 20.2453 63.0568 20.736 62.9821 21.376H66.5981C66.5768 20.7253 66.4168 20.2347 66.1181 19.904C65.8195 19.5627 65.4035 19.392 64.8701 19.392Z" fill="#414141"/>
<path d="M87.4881 15.1289L84.2477 9.72844C84.1144 9.50628 83.9259 9.32241 83.7005 9.19476C83.4751 9.0671 83.2205 9 82.9614 9H77.7513C77.1442 9 76.7889 9.68297 77.1367 10.1803L82.3525 17.6316C83.7456 16.3298 85.5175 15.4364 87.4881 15.1289ZM100.248 9H95.0383C94.5114 9 94.023 9.27656 93.752 9.72844L90.5116 15.1289C92.4822 15.4364 94.2541 16.3298 95.6472 17.6311L100.863 10.1803C101.211 9.68297 100.855 9 100.248 9ZM88.9998 16.5C84.4436 16.5 80.7498 20.1938 80.7498 24.75C80.7498 29.3062 84.4436 33 88.9998 33C93.5561 33 97.2498 29.3062 97.2498 24.75C97.2498 20.1938 93.5561 16.5 88.9998 16.5ZM93.3367 23.8716L91.5588 25.6041L91.9792 28.0519C92.0542 28.4906 91.592 28.8258 91.1987 28.6186L88.9998 27.4631L86.8014 28.6186C86.4077 28.8272 85.9459 28.4902 86.0209 28.0519L86.4414 25.6041L84.6634 23.8716C84.3438 23.5603 84.5205 23.017 84.9611 22.9533L87.4188 22.5952L88.517 20.3677C88.6159 20.167 88.8072 20.0681 88.9989 20.0681C89.1916 20.0681 89.3842 20.1684 89.4831 20.3677L90.5814 22.5952L93.0391 22.9533C93.4797 23.017 93.6564 23.5603 93.3367 23.8716Z" fill="#A16A4A"/>
<path d="M0.999878 1V0H-0.00012207V1H0.999878ZM117 1H118V0H117V1ZM117 41V42H118V41H117ZM0.999878 41H-0.00012207V42H0.999878V41ZM0.999878 2H117V0H0.999878V2ZM116 1V41H118V1H116ZM117 40H0.999878V42H117V40ZM1.99988 41V1H-0.00012207V41H1.99988Z" fill="#A16A4A"/>
</svg>
