<svg width="286" height="42" viewBox="0 0 286 42" fill="none" xmlns="http://www.w3.org/2000/svg">
<rect x="0.999756" y="1" width="284" height="40" fill="white"/>
<path d="M18.2638 26V14.72H19.9758L23.9758 22.096L27.9598 14.72H29.6398V26H27.7838V18.4L24.5518 24.288H23.3518L20.1198 18.432V26H18.2638ZM35.4984 26.16C34.6877 26.16 33.9837 25.9947 33.3864 25.664C32.789 25.3333 32.325 24.864 31.9944 24.256C31.6637 23.6373 31.4984 22.912 31.4984 22.08C31.4984 21.248 31.6637 20.528 31.9944 19.92C32.325 19.312 32.789 18.8427 33.3864 18.512C33.9837 18.1813 34.6877 18.016 35.4984 18.016C36.309 18.016 37.013 18.1813 37.6104 18.512C38.2077 18.8427 38.6717 19.312 39.0024 19.92C39.333 20.528 39.4984 21.248 39.4984 22.08C39.4984 22.912 39.333 23.6373 39.0024 24.256C38.6717 24.864 38.2077 25.3333 37.6104 25.664C37.013 25.9947 36.309 26.16 35.4984 26.16ZM35.4984 24.64C36.0957 24.64 36.5757 24.4267 36.9384 24C37.301 23.5627 37.4824 22.9227 37.4824 22.08C37.4824 21.2267 37.301 20.592 36.9384 20.176C36.5757 19.7493 36.0957 19.536 35.4984 19.536C34.901 19.536 34.421 19.7493 34.0584 20.176C33.6957 20.592 33.5144 21.2267 33.5144 22.08C33.5144 22.9227 33.6957 23.5627 34.0584 24C34.421 24.4267 34.901 24.64 35.4984 24.64ZM41.1491 26V18.176H43.1011V19.552C43.4851 18.624 44.3065 18.112 45.5651 18.016L46.1731 17.968L46.3011 19.664L45.1491 19.776C43.8371 19.904 43.1811 20.576 43.1811 21.792V26H41.1491ZM51.1458 26.16C50.2604 26.16 49.4978 25.9947 48.8578 25.664C48.2178 25.3333 47.7218 24.864 47.3698 24.256C47.0284 23.648 46.8578 22.928 46.8578 22.096C46.8578 21.2853 47.0231 20.576 47.3538 19.968C47.6951 19.36 48.1591 18.8853 48.7458 18.544C49.3431 18.192 50.0204 18.016 50.7778 18.016C51.8871 18.016 52.7618 18.368 53.4018 19.072C54.0524 19.776 54.3778 20.736 54.3778 21.952V22.544H48.7778C48.9271 23.9413 49.7271 24.64 51.1778 24.64C51.6151 24.64 52.0524 24.576 52.4898 24.448C52.9271 24.3093 53.3271 24.096 53.6898 23.808L54.2498 25.152C53.8764 25.4613 53.4071 25.7067 52.8418 25.888C52.2764 26.0693 51.7111 26.16 51.1458 26.16ZM50.8578 19.376C50.2711 19.376 49.7964 19.5573 49.4338 19.92C49.0711 20.2827 48.8524 20.7733 48.7778 21.392H52.7138C52.6711 20.7413 52.4898 20.2453 52.1698 19.904C51.8604 19.552 51.4231 19.376 50.8578 19.376ZM60.1461 16.496V14.544H62.3861V16.496H60.1461ZM60.2741 26V18.176H62.2741V26H60.2741ZM64.3523 26V18.176H66.3043V19.392C66.5709 18.944 66.9283 18.6027 67.3763 18.368C67.8349 18.1333 68.3469 18.016 68.9123 18.016C70.7576 18.016 71.6803 19.088 71.6803 21.232V26H69.6803V21.328C69.6803 20.72 69.5629 20.2773 69.3283 20C69.1043 19.7227 68.7523 19.584 68.2723 19.584C67.6856 19.584 67.2163 19.7707 66.8643 20.144C66.5229 20.5067 66.3523 20.992 66.3523 21.6V26H64.3523ZM74.2396 26V19.68H72.7356V18.176H74.2396V18.16C74.2396 17.0507 74.5276 16.2133 75.1036 15.648C75.6903 15.0827 76.597 14.7627 77.8236 14.688L78.6076 14.64L78.7356 16.112L77.9996 16.16C77.3596 16.2027 76.9063 16.3627 76.6396 16.64C76.373 16.9067 76.2396 17.3067 76.2396 17.84V18.176H78.3676V19.68H76.2396V26H74.2396ZM82.9046 26.16C82.094 26.16 81.39 25.9947 80.7926 25.664C80.1953 25.3333 79.7313 24.864 79.4006 24.256C79.07 23.6373 78.9046 22.912 78.9046 22.08C78.9046 21.248 79.07 20.528 79.4006 19.92C79.7313 19.312 80.1953 18.8427 80.7926 18.512C81.39 18.1813 82.094 18.016 82.9046 18.016C83.7153 18.016 84.4193 18.1813 85.0166 18.512C85.614 18.8427 86.078 19.312 86.4086 19.92C86.7393 20.528 86.9046 21.248 86.9046 22.08C86.9046 22.912 86.7393 23.6373 86.4086 24.256C86.078 24.864 85.614 25.3333 85.0166 25.664C84.4193 25.9947 83.7153 26.16 82.9046 26.16ZM82.9046 24.64C83.502 24.64 83.982 24.4267 84.3446 24C84.7073 23.5627 84.8886 22.9227 84.8886 22.08C84.8886 21.2267 84.7073 20.592 84.3446 20.176C83.982 19.7493 83.502 19.536 82.9046 19.536C82.3073 19.536 81.8273 19.7493 81.4646 20.176C81.102 20.592 80.9206 21.2267 80.9206 22.08C80.9206 22.9227 81.102 23.5627 81.4646 24C81.8273 24.4267 82.3073 24.64 82.9046 24.64ZM92.8679 26V18.176H94.8199V19.392C95.0865 18.944 95.4439 18.6027 95.8919 18.368C96.3505 18.1333 96.8625 18.016 97.4279 18.016C99.2732 18.016 100.196 19.088 100.196 21.232V26H98.1959V21.328C98.1959 20.72 98.0785 20.2773 97.8439 20C97.6199 19.7227 97.2679 19.584 96.7879 19.584C96.2012 19.584 95.7319 19.7707 95.3799 20.144C95.0385 20.5067 94.8679 20.992 94.8679 21.6V26H92.8679ZM106.083 26.16C105.198 26.16 104.435 25.9947 103.795 25.664C103.155 25.3333 102.659 24.864 102.307 24.256C101.966 23.648 101.795 22.928 101.795 22.096C101.795 21.2853 101.961 20.576 102.291 19.968C102.633 19.36 103.097 18.8853 103.683 18.544C104.281 18.192 104.958 18.016 105.715 18.016C106.825 18.016 107.699 18.368 108.339 19.072C108.99 19.776 109.315 20.736 109.315 21.952V22.544H103.715C103.865 23.9413 104.665 24.64 106.115 24.64C106.553 24.64 106.99 24.576 107.427 24.448C107.865 24.3093 108.265 24.096 108.627 23.808L109.187 25.152C108.814 25.4613 108.345 25.7067 107.779 25.888C107.214 26.0693 106.649 26.16 106.083 26.16ZM105.795 19.376C105.209 19.376 104.734 19.5573 104.371 19.92C104.009 20.2827 103.79 20.7733 103.715 21.392H107.651C107.609 20.7413 107.427 20.2453 107.107 19.904C106.798 19.552 106.361 19.376 105.795 19.376ZM114.755 26.16C113.87 26.16 113.107 25.9947 112.467 25.664C111.827 25.3333 111.331 24.864 110.979 24.256C110.638 23.648 110.467 22.928 110.467 22.096C110.467 21.2853 110.632 20.576 110.963 19.968C111.304 19.36 111.768 18.8853 112.355 18.544C112.952 18.192 113.63 18.016 114.387 18.016C115.496 18.016 116.371 18.368 117.011 19.072C117.662 19.776 117.987 20.736 117.987 21.952V22.544H112.387C112.536 23.9413 113.336 24.64 114.787 24.64C115.224 24.64 115.662 24.576 116.099 24.448C116.536 24.3093 116.936 24.096 117.299 23.808L117.859 25.152C117.486 25.4613 117.016 25.7067 116.451 25.888C115.886 26.0693 115.32 26.16 114.755 26.16ZM114.467 19.376C113.88 19.376 113.406 19.5573 113.043 19.92C112.68 20.2827 112.462 20.7733 112.387 21.392H116.323C116.28 20.7413 116.099 20.2453 115.779 19.904C115.47 19.552 115.032 19.376 114.467 19.376ZM122.579 26.16C121.896 26.16 121.294 25.9947 120.771 25.664C120.259 25.3333 119.859 24.864 119.571 24.256C119.283 23.6373 119.139 22.912 119.139 22.08C119.139 21.2373 119.283 20.5173 119.571 19.92C119.859 19.312 120.259 18.8427 120.771 18.512C121.294 18.1813 121.896 18.016 122.579 18.016C123.134 18.016 123.635 18.1387 124.083 18.384C124.531 18.6293 124.867 18.9547 125.091 19.36V14.72H127.091V26H125.139V24.704C124.926 25.152 124.59 25.5093 124.131 25.776C123.672 26.032 123.155 26.16 122.579 26.16ZM123.139 24.64C123.736 24.64 124.216 24.4267 124.579 24C124.942 23.5627 125.123 22.9227 125.123 22.08C125.123 21.2267 124.942 20.592 124.579 20.176C124.216 19.7493 123.736 19.536 123.139 19.536C122.542 19.536 122.062 19.7493 121.699 20.176C121.336 20.592 121.155 21.2267 121.155 22.08C121.155 22.9227 121.336 23.5627 121.699 24C122.062 24.4267 122.542 24.64 123.139 24.64ZM133.021 26.16C132.135 26.16 131.373 25.9947 130.733 25.664C130.093 25.3333 129.597 24.864 129.245 24.256C128.903 23.648 128.733 22.928 128.733 22.096C128.733 21.2853 128.898 20.576 129.229 19.968C129.57 19.36 130.034 18.8853 130.621 18.544C131.218 18.192 131.895 18.016 132.653 18.016C133.762 18.016 134.637 18.368 135.277 19.072C135.927 19.776 136.253 20.736 136.253 21.952V22.544H130.653C130.802 23.9413 131.602 24.64 133.053 24.64C133.49 24.64 133.927 24.576 134.365 24.448C134.802 24.3093 135.202 24.096 135.565 23.808L136.125 25.152C135.751 25.4613 135.282 25.7067 134.717 25.888C134.151 26.0693 133.586 26.16 133.021 26.16ZM132.733 19.376C132.146 19.376 131.671 19.5573 131.309 19.92C130.946 20.2827 130.727 20.7733 130.653 21.392H134.589C134.546 20.7413 134.365 20.2453 134.045 19.904C133.735 19.552 133.298 19.376 132.733 19.376ZM140.845 26.16C140.162 26.16 139.559 25.9947 139.037 25.664C138.525 25.3333 138.125 24.864 137.837 24.256C137.549 23.6373 137.405 22.912 137.405 22.08C137.405 21.2373 137.549 20.5173 137.837 19.92C138.125 19.312 138.525 18.8427 139.037 18.512C139.559 18.1813 140.162 18.016 140.845 18.016C141.399 18.016 141.901 18.1387 142.349 18.384C142.797 18.6293 143.133 18.9547 143.357 19.36V14.72H145.357V26H143.405V24.704C143.191 25.152 142.855 25.5093 142.397 25.776C141.938 26.032 141.421 26.16 140.845 26.16ZM141.405 24.64C142.002 24.64 142.482 24.4267 142.845 24C143.207 23.5627 143.389 22.9227 143.389 22.08C143.389 21.2267 143.207 20.592 142.845 20.176C142.482 19.7493 142.002 19.536 141.405 19.536C140.807 19.536 140.327 19.7493 139.965 20.176C139.602 20.592 139.421 21.2267 139.421 22.08C139.421 22.9227 139.602 23.5627 139.965 24C140.327 24.4267 140.807 24.64 141.405 24.64ZM154.511 29.12C153.722 27.9467 153.156 26.752 152.815 25.536C152.474 24.3093 152.303 23.0613 152.303 21.792C152.303 20.512 152.474 19.264 152.815 18.048C153.156 16.832 153.722 15.6373 154.511 14.464L155.871 15.008C155.37 16.2347 155.007 17.3813 154.783 18.448C154.559 19.504 154.447 20.6187 154.447 21.792C154.447 22.9547 154.559 24.0693 154.783 25.136C155.007 26.2027 155.37 27.3493 155.871 28.576L154.511 29.12ZM157.477 28.88V18.176H159.429V19.424C159.653 18.9973 159.989 18.656 160.437 18.4C160.896 18.144 161.413 18.016 161.989 18.016C162.672 18.016 163.269 18.1813 163.781 18.512C164.304 18.8427 164.709 19.312 164.997 19.92C165.285 20.5173 165.429 21.2373 165.429 22.08C165.429 22.912 165.285 23.6373 164.997 24.256C164.709 24.864 164.309 25.3333 163.797 25.664C163.285 25.9947 162.683 26.16 161.989 26.16C161.435 26.16 160.933 26.0427 160.485 25.808C160.048 25.5627 159.712 25.2373 159.477 24.832V28.88H157.477ZM161.429 24.64C162.027 24.64 162.507 24.4267 162.869 24C163.232 23.5627 163.413 22.9227 163.413 22.08C163.413 21.2267 163.232 20.592 162.869 20.176C162.507 19.7493 162.027 19.536 161.429 19.536C160.832 19.536 160.352 19.7493 159.989 20.176C159.627 20.592 159.445 21.2267 159.445 22.08C159.445 22.9227 159.627 23.5627 159.989 24C160.352 24.4267 160.832 24.64 161.429 24.64ZM167.071 26V18.176H169.023V19.552C169.407 18.624 170.228 18.112 171.487 18.016L172.095 17.968L172.223 19.664L171.071 19.776C169.759 19.904 169.103 20.576 169.103 21.792V26H167.071ZM176.78 26.16C175.969 26.16 175.265 25.9947 174.668 25.664C174.07 25.3333 173.606 24.864 173.276 24.256C172.945 23.6373 172.78 22.912 172.78 22.08C172.78 21.248 172.945 20.528 173.276 19.92C173.606 19.312 174.07 18.8427 174.668 18.512C175.265 18.1813 175.969 18.016 176.78 18.016C177.59 18.016 178.294 18.1813 178.892 18.512C179.489 18.8427 179.953 19.312 180.284 19.92C180.614 20.528 180.78 21.248 180.78 22.08C180.78 22.912 180.614 23.6373 180.284 24.256C179.953 24.864 179.489 25.3333 178.892 25.664C178.294 25.9947 177.59 26.16 176.78 26.16ZM176.78 24.64C177.377 24.64 177.857 24.4267 178.22 24C178.582 23.5627 178.764 22.9227 178.764 22.08C178.764 21.2267 178.582 20.592 178.22 20.176C177.857 19.7493 177.377 19.536 176.78 19.536C176.182 19.536 175.702 19.7493 175.34 20.176C174.977 20.592 174.796 21.2267 174.796 22.08C174.796 22.9227 174.977 23.5627 175.34 24C175.702 24.4267 176.182 24.64 176.78 24.64ZM182.462 26V18.176H184.414V19.376C184.649 18.9493 184.974 18.6187 185.39 18.384C185.806 18.1387 186.286 18.016 186.83 18.016C188.004 18.016 188.772 18.528 189.134 19.552C189.38 19.072 189.732 18.6987 190.19 18.432C190.649 18.1547 191.172 18.016 191.758 18.016C193.518 18.016 194.398 19.088 194.398 21.232V26H192.398V21.312C192.398 20.7147 192.297 20.2773 192.094 20C191.902 19.7227 191.572 19.584 191.102 19.584C190.58 19.584 190.169 19.7707 189.87 20.144C189.572 20.5067 189.422 21.0133 189.422 21.664V26H187.422V21.312C187.422 20.7147 187.321 20.2773 187.118 20C186.926 19.7227 186.601 19.584 186.142 19.584C185.62 19.584 185.209 19.7707 184.91 20.144C184.612 20.5067 184.462 21.0133 184.462 21.664V26H182.462ZM196.334 16.496V14.544H198.574V16.496H196.334ZM196.462 26V18.176H198.462V26H196.462ZM203.404 26.16C202.742 26.16 202.124 26.08 201.548 25.92C200.972 25.76 200.492 25.5307 200.108 25.232L200.62 23.92C201.014 24.1867 201.457 24.3947 201.948 24.544C202.438 24.6827 202.929 24.752 203.42 24.752C203.932 24.752 204.31 24.6667 204.556 24.496C204.812 24.3147 204.94 24.08 204.94 23.792C204.94 23.344 204.609 23.056 203.948 22.928L202.348 22.624C200.993 22.368 200.316 21.664 200.316 20.512C200.316 20 200.454 19.5573 200.732 19.184C201.02 18.8107 201.414 18.5227 201.916 18.32C202.417 18.1173 202.993 18.016 203.644 18.016C204.198 18.016 204.732 18.096 205.244 18.256C205.756 18.4053 206.193 18.6347 206.556 18.944L206.012 20.256C205.702 20 205.329 19.7973 204.892 19.648C204.465 19.4987 204.054 19.424 203.66 19.424C203.137 19.424 202.748 19.5147 202.492 19.696C202.246 19.8773 202.124 20.1173 202.124 20.416C202.124 20.8853 202.428 21.1733 203.036 21.28L204.636 21.584C205.329 21.712 205.852 21.9467 206.204 22.288C206.566 22.6293 206.748 23.088 206.748 23.664C206.748 24.4427 206.444 25.056 205.836 25.504C205.228 25.9413 204.417 26.16 203.404 26.16ZM208.224 16.496V14.544H210.464V16.496H208.224ZM208.352 26V18.176H210.352V26H208.352ZM212.43 26V18.176H214.382V19.392C214.649 18.944 215.006 18.6027 215.454 18.368C215.913 18.1333 216.425 18.016 216.99 18.016C218.836 18.016 219.758 19.088 219.758 21.232V26H217.758V21.328C217.758 20.72 217.641 20.2773 217.406 20C217.182 19.7227 216.83 19.584 216.35 19.584C215.764 19.584 215.294 19.7707 214.942 20.144C214.601 20.5067 214.43 20.992 214.43 21.6V26H212.43ZM225.438 29.04C224.712 29.04 224.03 28.9547 223.39 28.784C222.76 28.624 222.206 28.3733 221.726 28.032L222.302 26.64C222.75 26.9387 223.23 27.1573 223.742 27.296C224.254 27.4453 224.766 27.52 225.278 27.52C226.707 27.52 227.422 26.832 227.422 25.456V24.384C227.198 24.8213 226.851 25.168 226.382 25.424C225.923 25.68 225.411 25.808 224.846 25.808C224.142 25.808 223.528 25.648 223.006 25.328C222.483 24.9973 222.078 24.5387 221.79 23.952C221.502 23.3653 221.358 22.6827 221.358 21.904C221.358 21.1253 221.502 20.448 221.79 19.872C222.078 19.2853 222.483 18.832 223.006 18.512C223.528 18.1813 224.142 18.016 224.846 18.016C225.432 18.016 225.955 18.1493 226.414 18.416C226.872 18.672 227.208 19.0187 227.422 19.456V18.176H229.374V25.216C229.374 26.4853 229.038 27.44 228.366 28.08C227.694 28.72 226.718 29.04 225.438 29.04ZM225.39 24.288C226.008 24.288 226.499 24.0747 226.862 23.648C227.224 23.2213 227.406 22.64 227.406 21.904C227.406 21.168 227.224 20.592 226.862 20.176C226.499 19.7493 226.008 19.536 225.39 19.536C224.771 19.536 224.28 19.7493 223.918 20.176C223.555 20.592 223.374 21.168 223.374 21.904C223.374 22.64 223.555 23.2213 223.918 23.648C224.28 24.0747 224.771 24.288 225.39 24.288ZM232.326 29.12L230.966 28.576C231.467 27.3387 231.83 26.1867 232.054 25.12C232.278 24.0533 232.39 22.944 232.39 21.792C232.39 20.64 232.278 19.5307 232.054 18.464C231.83 17.3973 231.467 16.2453 230.966 15.008L232.326 14.464C233.115 15.6373 233.681 16.8373 234.022 18.064C234.363 19.28 234.534 20.5227 234.534 21.792C234.534 23.0613 234.363 24.3093 234.022 25.536C233.681 26.752 233.115 27.9467 232.326 29.12Z" fill="#414141"/>
<path d="M257 11C251.48 11 247 15.48 247 21C247 26.52 251.48 31 257 31C262.52 31 267 26.52 267 21C267 15.48 262.52 11 257 11ZM258 26H256V20H258V26ZM258 18H256V16H258V18Z" fill="#414141"/>
<rect x="0.999756" y="1" width="284" height="40" stroke="#BDBDBD" stroke-width="2"/>
</svg>
