<svg width="195" height="42" viewBox="0 0 195 42" fill="none" xmlns="http://www.w3.org/2000/svg">
<rect x="0.999756" y="1" width="193" height="40" fill="white"/>
<path d="M29.2238 14.72V26H27.3998V18.544L24.4238 24.176H23.0478L20.0558 18.624L20.0718 26H18.2478V14.72H19.8798L23.7518 22.096L27.6078 14.72H29.2238ZM35.0609 26.128C34.2609 26.128 33.5569 25.9627 32.9489 25.632C32.3515 25.3013 31.8875 24.8267 31.5569 24.208C31.2262 23.5893 31.0609 22.8693 31.0609 22.048C31.0609 21.2267 31.2262 20.512 31.5569 19.904C31.8875 19.2853 32.3515 18.8107 32.9489 18.48C33.5569 18.1493 34.2609 17.984 35.0609 17.984C35.8609 17.984 36.5595 18.1493 37.1569 18.48C37.7649 18.8107 38.2289 19.2853 38.5489 19.904C38.8795 20.512 39.0449 21.2267 39.0449 22.048C39.0449 22.8693 38.8795 23.5893 38.5489 24.208C38.2289 24.8267 37.7649 25.3013 37.1569 25.632C36.5595 25.9627 35.8609 26.128 35.0609 26.128ZM35.0449 24.576C35.6955 24.576 36.1915 24.3627 36.5329 23.936C36.8742 23.5093 37.0449 22.88 37.0449 22.048C37.0449 21.2267 36.8742 20.6027 36.5329 20.176C36.1915 19.7387 35.7009 19.52 35.0609 19.52C34.4209 19.52 33.9249 19.7387 33.5729 20.176C33.2315 20.6027 33.0609 21.2267 33.0609 22.048C33.0609 22.88 33.2315 23.5093 33.5729 23.936C33.9142 24.3627 34.4049 24.576 35.0449 24.576ZM45.848 19.648L44.68 19.76C43.3573 19.8987 42.696 20.5707 42.696 21.776V26H40.696V18.176H42.6V19.552C43.0053 18.6133 43.8427 18.1013 45.112 18.016L45.72 17.968L45.848 19.648ZM53.5288 22.448H48.2008C48.2648 23.1733 48.4834 23.712 48.8568 24.064C49.2301 24.416 49.7634 24.592 50.4568 24.592C51.3208 24.592 52.1101 24.3147 52.8248 23.76L53.4008 25.136C53.0381 25.4347 52.5794 25.6747 52.0248 25.856C51.4808 26.0373 50.9314 26.128 50.3768 26.128C49.0968 26.128 48.0834 25.7653 47.3368 25.04C46.6008 24.3147 46.2328 23.3227 46.2328 22.064C46.2328 21.264 46.3928 20.5547 46.7128 19.936C47.0328 19.3173 47.4808 18.8373 48.0568 18.496C48.6434 18.1547 49.3048 17.984 50.0408 17.984C51.1181 17.984 51.9661 18.3307 52.5848 19.024C53.2141 19.7173 53.5288 20.672 53.5288 21.888V22.448ZM50.0888 19.392C49.5554 19.392 49.1234 19.5627 48.7928 19.904C48.4728 20.2453 48.2754 20.736 48.2008 21.376H51.8168C51.7954 20.7253 51.6354 20.2347 51.3368 19.904C51.0381 19.5627 50.6221 19.392 50.0888 19.392ZM59.5085 18.176H61.5085V26H59.5085V18.176ZM61.6045 14.544V16.512H59.3965V14.544H61.6045ZM68.115 17.984C69.0537 17.984 69.7523 18.2507 70.211 18.784C70.6697 19.3173 70.899 20.1227 70.899 21.2V26H68.899V21.312C68.899 20.704 68.7817 20.2613 68.547 19.984C68.323 19.7067 67.9657 19.568 67.475 19.568C66.899 19.568 66.435 19.7493 66.083 20.112C65.7417 20.4747 65.571 20.96 65.571 21.568V26H63.571V18.176H65.523V19.344C65.7897 18.9067 66.147 18.5707 66.595 18.336C67.043 18.1013 67.5497 17.984 68.115 17.984ZM75.4744 18.176H77.5384V19.68H75.4744V26H73.4744V19.68H71.9704V18.176H73.4744C73.4744 17.056 73.7624 16.2133 74.3384 15.648C74.925 15.0827 75.8317 14.768 77.0584 14.704L77.8424 14.656L77.9704 16.144L77.2184 16.176C76.589 16.208 76.141 16.352 75.8744 16.608C75.6077 16.8533 75.4744 17.2533 75.4744 17.808V18.176ZM82.1546 26.128C81.3546 26.128 80.6506 25.9627 80.0426 25.632C79.4453 25.3013 78.9813 24.8267 78.6506 24.208C78.32 23.5893 78.1546 22.8693 78.1546 22.048C78.1546 21.2267 78.32 20.512 78.6506 19.904C78.9813 19.2853 79.4453 18.8107 80.0426 18.48C80.6506 18.1493 81.3546 17.984 82.1546 17.984C82.9546 17.984 83.6533 18.1493 84.2506 18.48C84.8586 18.8107 85.3226 19.2853 85.6426 19.904C85.9733 20.512 86.1386 21.2267 86.1386 22.048C86.1386 22.8693 85.9733 23.5893 85.6426 24.208C85.3226 24.8267 84.8586 25.3013 84.2506 25.632C83.6533 25.9627 82.9546 26.128 82.1546 26.128ZM82.1386 24.576C82.7893 24.576 83.2853 24.3627 83.6266 23.936C83.968 23.5093 84.1386 22.88 84.1386 22.048C84.1386 21.2267 83.968 20.6027 83.6266 20.176C83.2853 19.7387 82.7946 19.52 82.1546 19.52C81.5146 19.52 81.0186 19.7387 80.6666 20.176C80.3253 20.6027 80.1546 21.2267 80.1546 22.048C80.1546 22.88 80.3253 23.5093 80.6666 23.936C81.008 24.3627 81.4986 24.576 82.1386 24.576ZM96.6775 17.984C97.6162 17.984 98.3148 18.2507 98.7735 18.784C99.2322 19.3173 99.4615 20.1227 99.4615 21.2V26H97.4615V21.312C97.4615 20.704 97.3442 20.2613 97.1095 19.984C96.8855 19.7067 96.5282 19.568 96.0375 19.568C95.4615 19.568 94.9975 19.7493 94.6455 20.112C94.3042 20.4747 94.1335 20.96 94.1335 21.568V26H92.1335V18.176H94.0855V19.344C94.3522 18.9067 94.7095 18.5707 95.1575 18.336C95.6055 18.1013 96.1122 17.984 96.6775 17.984ZM108.357 22.448H103.029C103.093 23.1733 103.312 23.712 103.685 24.064C104.058 24.416 104.592 24.592 105.285 24.592C106.149 24.592 106.938 24.3147 107.653 23.76L108.229 25.136C107.866 25.4347 107.408 25.6747 106.853 25.856C106.309 26.0373 105.76 26.128 105.205 26.128C103.925 26.128 102.912 25.7653 102.165 25.04C101.429 24.3147 101.061 23.3227 101.061 22.064C101.061 21.264 101.221 20.5547 101.541 19.936C101.861 19.3173 102.309 18.8373 102.885 18.496C103.472 18.1547 104.133 17.984 104.869 17.984C105.946 17.984 106.794 18.3307 107.413 19.024C108.042 19.7173 108.357 20.672 108.357 21.888V22.448ZM104.917 19.392C104.384 19.392 103.952 19.5627 103.621 19.904C103.301 20.2453 103.104 20.736 103.029 21.376H106.645C106.624 20.7253 106.464 20.2347 106.165 19.904C105.866 19.5627 105.45 19.392 104.917 19.392ZM116.857 22.448H111.529C111.593 23.1733 111.812 23.712 112.185 24.064C112.558 24.416 113.092 24.592 113.785 24.592C114.649 24.592 115.438 24.3147 116.153 23.76L116.729 25.136C116.366 25.4347 115.908 25.6747 115.353 25.856C114.809 26.0373 114.26 26.128 113.705 26.128C112.425 26.128 111.412 25.7653 110.665 25.04C109.929 24.3147 109.561 23.3227 109.561 22.064C109.561 21.264 109.721 20.5547 110.041 19.936C110.361 19.3173 110.809 18.8373 111.385 18.496C111.972 18.1547 112.633 17.984 113.369 17.984C114.446 17.984 115.294 18.3307 115.913 19.024C116.542 19.7173 116.857 20.672 116.857 21.888V22.448ZM113.417 19.392C112.884 19.392 112.452 19.5627 112.121 19.904C111.801 20.2453 111.604 20.736 111.529 21.376H115.145C115.124 20.7253 114.964 20.2347 114.665 19.904C114.366 19.5627 113.95 19.392 113.417 19.392ZM126.045 14.72V26H124.061V24.736C123.826 25.1733 123.485 25.5147 123.037 25.76C122.6 26.0053 122.098 26.128 121.533 26.128C120.861 26.128 120.258 25.9573 119.725 25.616C119.202 25.2747 118.792 24.7947 118.493 24.176C118.205 23.5467 118.061 22.8267 118.061 22.016C118.061 21.2053 118.205 20.496 118.493 19.888C118.792 19.28 119.202 18.8107 119.725 18.48C120.248 18.1493 120.85 17.984 121.533 17.984C122.098 17.984 122.6 18.1013 123.037 18.336C123.474 18.5707 123.81 18.9013 124.045 19.328V14.72H126.045ZM122.061 24.576C122.701 24.576 123.192 24.3573 123.533 23.92C123.885 23.4827 124.061 22.8587 124.061 22.048C124.061 21.2373 123.885 20.6187 123.533 20.192C123.192 19.7547 122.706 19.536 122.077 19.536C121.437 19.536 120.941 19.7493 120.589 20.176C120.237 20.6027 120.061 21.216 120.061 22.016C120.061 22.8267 120.237 23.456 120.589 23.904C120.941 24.352 121.432 24.576 122.061 24.576ZM134.966 22.448H129.638C129.702 23.1733 129.921 23.712 130.294 24.064C130.668 24.416 131.201 24.592 131.894 24.592C132.758 24.592 133.548 24.3147 134.262 23.76L134.838 25.136C134.476 25.4347 134.017 25.6747 133.462 25.856C132.918 26.0373 132.369 26.128 131.814 26.128C130.534 26.128 129.521 25.7653 128.774 25.04C128.038 24.3147 127.67 23.3227 127.67 22.064C127.67 21.264 127.83 20.5547 128.15 19.936C128.47 19.3173 128.918 18.8373 129.494 18.496C130.081 18.1547 130.742 17.984 131.478 17.984C132.556 17.984 133.404 18.3307 134.022 19.024C134.652 19.7173 134.966 20.672 134.966 21.888V22.448ZM131.526 19.392C130.993 19.392 130.561 19.5627 130.23 19.904C129.91 20.2453 129.713 20.736 129.638 21.376H133.254C133.233 20.7253 133.073 20.2347 132.774 19.904C132.476 19.5627 132.06 19.392 131.526 19.392ZM144.154 14.72V26H142.17V24.736C141.936 25.1733 141.594 25.5147 141.146 25.76C140.709 26.0053 140.208 26.128 139.642 26.128C138.97 26.128 138.368 25.9573 137.834 25.616C137.312 25.2747 136.901 24.7947 136.602 24.176C136.314 23.5467 136.17 22.8267 136.17 22.016C136.17 21.2053 136.314 20.496 136.602 19.888C136.901 19.28 137.312 18.8107 137.834 18.48C138.357 18.1493 138.96 17.984 139.642 17.984C140.208 17.984 140.709 18.1013 141.146 18.336C141.584 18.5707 141.92 18.9013 142.154 19.328V14.72H144.154ZM140.17 24.576C140.81 24.576 141.301 24.3573 141.642 23.92C141.994 23.4827 142.17 22.8587 142.17 22.048C142.17 21.2373 141.994 20.6187 141.642 20.192C141.301 19.7547 140.816 19.536 140.186 19.536C139.546 19.536 139.05 19.7493 138.698 20.176C138.346 20.6027 138.17 21.216 138.17 22.016C138.17 22.8267 138.346 23.456 138.698 23.904C139.05 24.352 139.541 24.576 140.17 24.576Z" fill="#414141"/>
<path d="M166 11C160.48 11 156 15.48 156 21C156 26.52 160.48 31 166 31C171.52 31 176 26.52 176 21C176 15.48 171.52 11 166 11ZM167 26H165V20H167V26ZM167 18H165V16H167V18Z" fill="#414141"/>
<rect x="0.999756" y="1" width="193" height="40" stroke="#BDBDBD" stroke-width="2"/>
</svg>
