<svg width="125" height="42" viewBox="0 0 125 42" fill="none" xmlns="http://www.w3.org/2000/svg">
<rect x="0.999756" y="1" width="123" height="40" fill="#FFE6E6"/>
<path d="M20.9518 26V16.432H17.0798V14.72H26.8718V16.432H22.9998V26H20.9518ZM30.2953 26.16C29.4846 26.16 28.7806 25.9947 28.1833 25.664C27.5859 25.3333 27.1219 24.864 26.7913 24.256C26.4606 23.6373 26.2953 22.912 26.2953 22.08C26.2953 21.248 26.4606 20.528 26.7913 19.92C27.1219 19.312 27.5859 18.8427 28.1833 18.512C28.7806 18.1813 29.4846 18.016 30.2953 18.016C31.1059 18.016 31.8099 18.1813 32.4073 18.512C33.0046 18.8427 33.4686 19.312 33.7993 19.92C34.1299 20.528 34.2953 21.248 34.2953 22.08C34.2953 22.912 34.1299 23.6373 33.7993 24.256C33.4686 24.864 33.0046 25.3333 32.4073 25.664C31.8099 25.9947 31.1059 26.16 30.2953 26.16ZM30.2953 24.64C30.8926 24.64 31.3726 24.4267 31.7353 24C32.0979 23.5627 32.2793 22.9227 32.2793 22.08C32.2793 21.2267 32.0979 20.592 31.7353 20.176C31.3726 19.7493 30.8926 19.536 30.2953 19.536C29.6979 19.536 29.2179 19.7493 28.8553 20.176C28.4926 20.592 28.3113 21.2267 28.3113 22.08C28.3113 22.9227 28.4926 23.5627 28.8553 24C29.2179 24.4267 29.6979 24.64 30.2953 24.64ZM39.514 26.16C38.7033 26.16 37.9993 25.9947 37.402 25.664C36.8047 25.3333 36.3407 24.864 36.01 24.256C35.6793 23.6373 35.514 22.912 35.514 22.08C35.514 21.248 35.6793 20.528 36.01 19.92C36.3407 19.312 36.8047 18.8427 37.402 18.512C37.9993 18.1813 38.7033 18.016 39.514 18.016C40.3247 18.016 41.0287 18.1813 41.626 18.512C42.2233 18.8427 42.6873 19.312 43.018 19.92C43.3487 20.528 43.514 21.248 43.514 22.08C43.514 22.912 43.3487 23.6373 43.018 24.256C42.6873 24.864 42.2233 25.3333 41.626 25.664C41.0287 25.9947 40.3247 26.16 39.514 26.16ZM39.514 24.64C40.1113 24.64 40.5913 24.4267 40.954 24C41.3167 23.5627 41.498 22.9227 41.498 22.08C41.498 21.2267 41.3167 20.592 40.954 20.176C40.5913 19.7493 40.1113 19.536 39.514 19.536C38.9167 19.536 38.4367 19.7493 38.074 20.176C37.7113 20.592 37.53 21.2267 37.53 22.08C37.53 22.9227 37.7113 23.5627 38.074 24C38.4367 24.4267 38.9167 24.64 39.514 24.64ZM49.4773 26V18.176H51.4293V19.552C51.8133 18.624 52.6346 18.112 53.8933 18.016L54.5013 17.968L54.6293 19.664L53.4773 19.776C52.1653 19.904 51.5093 20.576 51.5093 21.792V26H49.4773ZM55.6149 16.496V14.544H57.8549V16.496H55.6149ZM55.7429 26V18.176H57.7429V26H55.7429ZM63.437 26.16C62.6157 26.16 61.901 25.9947 61.293 25.664C60.685 25.3227 60.2157 24.8427 59.885 24.224C59.5543 23.6053 59.389 22.88 59.389 22.048C59.389 21.216 59.5543 20.5013 59.885 19.904C60.2157 19.296 60.685 18.832 61.293 18.512C61.901 18.1813 62.6157 18.016 63.437 18.016C63.9383 18.016 64.4343 18.096 64.925 18.256C65.4157 18.416 65.821 18.64 66.141 18.928L65.549 20.32C65.2717 20.0747 64.957 19.888 64.605 19.76C64.2637 19.632 63.933 19.568 63.613 19.568C62.9197 19.568 62.381 19.7867 61.997 20.224C61.6237 20.6507 61.437 21.264 61.437 22.064C61.437 22.8533 61.6237 23.4773 61.997 23.936C62.381 24.384 62.9197 24.608 63.613 24.608C63.9223 24.608 64.253 24.544 64.605 24.416C64.957 24.288 65.2717 24.096 65.549 23.84L66.141 25.248C65.821 25.5253 65.4103 25.7493 64.909 25.92C64.4183 26.08 63.9277 26.16 63.437 26.16ZM67.3679 26V14.72H69.3679V19.312C69.6345 18.8853 69.9919 18.5653 70.4399 18.352C70.8879 18.128 71.3839 18.016 71.9279 18.016C73.7732 18.016 74.6959 19.088 74.6959 21.232V26H72.6959V21.328C72.6959 20.72 72.5785 20.2773 72.3439 20C72.1199 19.7227 71.7679 19.584 71.2879 19.584C70.7012 19.584 70.2319 19.7707 69.8799 20.144C69.5385 20.5067 69.3679 20.992 69.3679 21.6V26H67.3679Z" fill="#414141"/>
<path d="M84.9998 30H107L95.9998 11L84.9998 30ZM96.9998 27H94.9998V25H96.9998V27ZM96.9998 23H94.9998V19H96.9998V23Z" fill="#EB5757"/>
<rect x="0.999756" y="1" width="123" height="40" stroke="#EB5757" stroke-width="2"/>
</svg>
