<svg width="172" height="42" viewBox="0 0 172 42" fill="none" xmlns="http://www.w3.org/2000/svg">
<rect x="0.999756" y="1" width="170" height="40" fill="#FFE6E6"/>
<path d="M18.2158 14.72H22.3758C24.2211 14.72 25.6504 15.216 26.6638 16.208C27.6878 17.1893 28.1998 18.5707 28.1998 20.352C28.1998 22.1333 27.6878 23.52 26.6638 24.512C25.6504 25.504 24.2211 26 22.3758 26H18.2158V14.72ZM22.2478 24.32C24.8398 24.32 26.1358 22.9973 26.1358 20.352C26.1358 17.7173 24.8398 16.4 22.2478 16.4H20.2798V24.32H22.2478ZM33.6703 26.128C32.8703 26.128 32.1663 25.9627 31.5583 25.632C30.9609 25.3013 30.4969 24.8267 30.1663 24.208C29.8356 23.5893 29.6703 22.8693 29.6703 22.048C29.6703 21.2267 29.8356 20.512 30.1663 19.904C30.4969 19.2853 30.9609 18.8107 31.5583 18.48C32.1663 18.1493 32.8703 17.984 33.6703 17.984C34.4703 17.984 35.1689 18.1493 35.7663 18.48C36.3743 18.8107 36.8383 19.2853 37.1583 19.904C37.4889 20.512 37.6543 21.2267 37.6543 22.048C37.6543 22.8693 37.4889 23.5893 37.1583 24.208C36.8383 24.8267 36.3743 25.3013 35.7663 25.632C35.1689 25.9627 34.4703 26.128 33.6703 26.128ZM33.6543 24.576C34.3049 24.576 34.8009 24.3627 35.1423 23.936C35.4836 23.5093 35.6543 22.88 35.6543 22.048C35.6543 21.2267 35.4836 20.6027 35.1423 20.176C34.8009 19.7387 34.3103 19.52 33.6703 19.52C33.0303 19.52 32.5343 19.7387 32.1823 20.176C31.8409 20.6027 31.6703 21.2267 31.6703 22.048C31.6703 22.88 31.8409 23.5093 32.1823 23.936C32.5236 24.3627 33.0143 24.576 33.6543 24.576ZM48.1931 17.984C49.1318 17.984 49.8305 18.2507 50.2891 18.784C50.7478 19.3173 50.9771 20.1227 50.9771 21.2V26H48.9771V21.312C48.9771 20.704 48.8598 20.2613 48.6251 19.984C48.4011 19.7067 48.0438 19.568 47.5531 19.568C46.9771 19.568 46.5131 19.7493 46.1611 20.112C45.8198 20.4747 45.6491 20.96 45.6491 21.568V26H43.6491V18.176H45.6011V19.344C45.8678 18.9067 46.2251 18.5707 46.6731 18.336C47.1211 18.1013 47.6278 17.984 48.1931 17.984ZM56.5765 26.128C55.7765 26.128 55.0725 25.9627 54.4645 25.632C53.8672 25.3013 53.4032 24.8267 53.0725 24.208C52.7418 23.5893 52.5765 22.8693 52.5765 22.048C52.5765 21.2267 52.7418 20.512 53.0725 19.904C53.4032 19.2853 53.8672 18.8107 54.4645 18.48C55.0725 18.1493 55.7765 17.984 56.5765 17.984C57.3765 17.984 58.0752 18.1493 58.6725 18.48C59.2805 18.8107 59.7445 19.2853 60.0645 19.904C60.3952 20.512 60.5605 21.2267 60.5605 22.048C60.5605 22.8693 60.3952 23.5893 60.0645 24.208C59.7445 24.8267 59.2805 25.3013 58.6725 25.632C58.0752 25.9627 57.3765 26.128 56.5765 26.128ZM56.5605 24.576C57.2112 24.576 57.7072 24.3627 58.0485 23.936C58.3898 23.5093 58.5605 22.88 58.5605 22.048C58.5605 21.2267 58.3898 20.6027 58.0485 20.176C57.7072 19.7387 57.2165 19.52 56.5765 19.52C55.9365 19.52 55.4405 19.7387 55.0885 20.176C54.7472 20.6027 54.5765 21.2267 54.5765 22.048C54.5765 22.88 54.7472 23.5093 55.0885 23.936C55.4298 24.3627 55.9205 24.576 56.5605 24.576ZM66.1648 24.624C66.3994 24.624 66.6448 24.608 66.9008 24.576L66.8048 26.064C66.4848 26.096 66.1914 26.112 65.9248 26.112C64.8261 26.112 64.0154 25.8613 63.4928 25.36C62.9701 24.848 62.7088 24.0907 62.7088 23.088V19.68H61.2048V18.176H62.7088V15.84H64.7088V18.176H66.7728V19.68H64.7088V23.056C64.7088 24.1013 65.1941 24.624 66.1648 24.624ZM79.9668 14.72V26H77.9828V24.736C77.7481 25.1733 77.4068 25.5147 76.9588 25.76C76.5214 26.0053 76.0201 26.128 75.4548 26.128C74.7828 26.128 74.1801 25.9573 73.6468 25.616C73.1241 25.2747 72.7134 24.7947 72.4148 24.176C72.1268 23.5467 71.9828 22.8267 71.9828 22.016C71.9828 21.2053 72.1268 20.496 72.4148 19.888C72.7134 19.28 73.1241 18.8107 73.6468 18.48C74.1694 18.1493 74.7721 17.984 75.4548 17.984C76.0201 17.984 76.5214 18.1013 76.9588 18.336C77.3961 18.5707 77.7321 18.9013 77.9668 19.328V14.72H79.9668ZM75.9828 24.576C76.6228 24.576 77.1134 24.3573 77.4548 23.92C77.8068 23.4827 77.9828 22.8587 77.9828 22.048C77.9828 21.2373 77.8068 20.6187 77.4548 20.192C77.1134 19.7547 76.6281 19.536 75.9988 19.536C75.3588 19.536 74.8628 19.7493 74.5108 20.176C74.1588 20.6027 73.9828 21.216 73.9828 22.016C73.9828 22.8267 74.1588 23.456 74.5108 23.904C74.8628 24.352 75.3534 24.576 75.9828 24.576ZM85.5921 26.128C84.7921 26.128 84.0881 25.9627 83.4801 25.632C82.8828 25.3013 82.4188 24.8267 82.0881 24.208C81.7575 23.5893 81.5921 22.8693 81.5921 22.048C81.5921 21.2267 81.7575 20.512 82.0881 19.904C82.4188 19.2853 82.8828 18.8107 83.4801 18.48C84.0881 18.1493 84.7921 17.984 85.5921 17.984C86.3921 17.984 87.0908 18.1493 87.6881 18.48C88.2961 18.8107 88.7601 19.2853 89.0801 19.904C89.4108 20.512 89.5761 21.2267 89.5761 22.048C89.5761 22.8693 89.4108 23.5893 89.0801 24.208C88.7601 24.8267 88.2961 25.3013 87.6881 25.632C87.0908 25.9627 86.3921 26.128 85.5921 26.128ZM85.5761 24.576C86.2268 24.576 86.7228 24.3627 87.0641 23.936C87.4055 23.5093 87.5761 22.88 87.5761 22.048C87.5761 21.2267 87.4055 20.6027 87.0641 20.176C86.7228 19.7387 86.2321 19.52 85.5921 19.52C84.9521 19.52 84.4561 19.7387 84.1041 20.176C83.7628 20.6027 83.5921 21.2267 83.5921 22.048C83.5921 22.88 83.7628 23.5093 84.1041 23.936C84.4455 24.3627 84.9361 24.576 85.5761 24.576ZM95.7713 17.984C96.7099 17.984 97.4086 18.2507 97.8673 18.784C98.3259 19.3173 98.5553 20.1227 98.5553 21.2V26H96.5553V21.312C96.5553 20.704 96.4379 20.2613 96.2033 19.984C95.9793 19.7067 95.6219 19.568 95.1313 19.568C94.5553 19.568 94.0913 19.7493 93.7393 20.112C93.3979 20.4747 93.2273 20.96 93.2273 21.568V26H91.2273V18.176H93.1793V19.344C93.4459 18.9067 93.8033 18.5707 94.2513 18.336C94.6993 18.1013 95.2059 17.984 95.7713 17.984ZM103.947 17.984C105.045 17.984 105.861 18.2507 106.395 18.784C106.928 19.3173 107.195 20.1387 107.195 21.248V26H105.291V24.8C105.109 25.216 104.821 25.5413 104.427 25.776C104.043 26.0107 103.595 26.128 103.083 26.128C102.56 26.128 102.085 26.0213 101.659 25.808C101.232 25.5947 100.896 25.3013 100.651 24.928C100.405 24.5547 100.283 24.1387 100.283 23.68C100.283 23.104 100.427 22.6507 100.715 22.32C101.013 21.9893 101.493 21.7493 102.155 21.6C102.816 21.4507 103.728 21.376 104.891 21.376H105.291V21.008C105.291 20.4747 105.173 20.0907 104.939 19.856C104.715 19.6213 104.336 19.504 103.803 19.504C103.387 19.504 102.949 19.5787 102.491 19.728C102.043 19.8667 101.6 20.064 101.163 20.32L100.603 18.944C101.04 18.6667 101.568 18.4373 102.187 18.256C102.805 18.0747 103.392 17.984 103.947 17.984ZM103.483 24.688C104.016 24.688 104.448 24.512 104.779 24.16C105.12 23.7973 105.291 23.3333 105.291 22.768V22.432H105.003C104.288 22.432 103.733 22.464 103.339 22.528C102.944 22.592 102.661 22.704 102.491 22.864C102.32 23.024 102.235 23.2427 102.235 23.52C102.235 23.8613 102.352 24.144 102.587 24.368C102.821 24.5813 103.12 24.688 103.483 24.688ZM113.227 24.624C113.462 24.624 113.707 24.608 113.963 24.576L113.867 26.064C113.547 26.096 113.254 26.112 112.987 26.112C111.889 26.112 111.078 25.8613 110.555 25.36C110.033 24.848 109.771 24.0907 109.771 23.088V19.68H108.267V18.176H109.771V15.84H111.771V18.176H113.835V19.68H111.771V23.056C111.771 24.1013 112.257 24.624 113.227 24.624ZM121.998 22.448H116.67C116.734 23.1733 116.952 23.712 117.326 24.064C117.699 24.416 118.232 24.592 118.926 24.592C119.79 24.592 120.579 24.3147 121.294 23.76L121.87 25.136C121.507 25.4347 121.048 25.6747 120.494 25.856C119.95 26.0373 119.4 26.128 118.846 26.128C117.566 26.128 116.552 25.7653 115.806 25.04C115.07 24.3147 114.702 23.3227 114.702 22.064C114.702 21.264 114.862 20.5547 115.182 19.936C115.502 19.3173 115.95 18.8373 116.526 18.496C117.112 18.1547 117.774 17.984 118.51 17.984C119.587 17.984 120.435 18.3307 121.054 19.024C121.683 19.7173 121.998 20.672 121.998 21.888V22.448ZM118.558 19.392C118.024 19.392 117.592 19.5627 117.262 19.904C116.942 20.2453 116.744 20.736 116.67 21.376H120.286C120.264 20.7253 120.104 20.2347 119.806 19.904C119.507 19.5627 119.091 19.392 118.558 19.392Z" fill="#414141"/>
<path d="M132 30H154L143 11L132 30ZM144 27H142V25H144V27ZM144 23H142V19H144V23Z" fill="#EB5757"/>
<rect x="0.999756" y="1" width="170" height="40" stroke="#EB5757" stroke-width="2"/>
</svg>
