<?xml version="1.0" encoding="UTF-8" standalone="no"?>
<!-- Created with Inkscape (http://www.inkscape.org/) -->

<svg
   xmlns:dc="http://purl.org/dc/elements/1.1/"
   xmlns:cc="http://creativecommons.org/ns#"
   xmlns:rdf="http://www.w3.org/1999/02/22-rdf-syntax-ns#"
   xmlns:svg="http://www.w3.org/2000/svg"
   xmlns="http://www.w3.org/2000/svg"
   xmlns:sodipodi="http://sodipodi.sourceforge.net/DTD/sodipodi-0.dtd"
   xmlns:inkscape="http://www.inkscape.org/namespaces/inkscape"
   width="9.1391964mm"
   height="6.8651853mm"
   viewBox="0 0 9.1391964 6.8651852"
   version="1.1"
   id="svg5744"
   inkscape:version="0.92.1 r15371"
   sodipodi:docname="recommended.svg">
  <defs
     id="defs5738" />
  <sodipodi:namedview
     id="base"
     pagecolor="#ffffff"
     bordercolor="#666666"
     borderopacity="1.0"
     inkscape:pageopacity="0.0"
     inkscape:pageshadow="2"
     inkscape:zoom="2.8"
     inkscape:cx="-14.337242"
     inkscape:cy="6.2657288"
     inkscape:document-units="mm"
     inkscape:current-layer="layer1"
     showgrid="false"
     fit-margin-top="0"
     fit-margin-left="0"
     fit-margin-right="0"
     fit-margin-bottom="0"
     inkscape:window-width="832"
     inkscape:window-height="429"
     inkscape:window-x="550"
     inkscape:window-y="300"
     inkscape:window-maximized="0" />
  <metadata
     id="metadata5741">
    <rdf:RDF>
      <cc:Work
         rdf:about="">
        <dc:format>image/svg+xml</dc:format>
        <dc:type
           rdf:resource="http://purl.org/dc/dcmitype/StillImage" />
        <dc:title></dc:title>
      </cc:Work>
    </rdf:RDF>
  </metadata>
  <g
     inkscape:label="Layer 1"
     inkscape:groupmode="layer"
     id="layer1"
     transform="translate(-114.16227,-138.5349)">
    <path
       class="cls-53"
       d="m 114.16262,141.9639 q 0,-1.51606 0,-3.03213 c 0,-0.28575 0.11113,-0.39687 0.39423,-0.39687 h 5.95842 c 0.27781,0 0.39423,0.11906 0.39423,0.39687 0,0.4789 0,0.95515 0,1.43405 a 0.18520833,0.18520833 0 0 0 0.1217,0.19314 c 0.68263,0.35984 1.36261,0.72761 2.04259,1.09009 a 0.333375,0.333375 0 0 1 0,0.63235 c -0.68263,0.36248 -1.35996,0.73025 -2.04259,1.09008 a 0.18785417,0.18785417 0 0 0 -0.11906,0.19315 c 0,0.48154 0,0.96308 0,1.44727 a 0.333375,0.333375 0 0 1 -0.38364,0.38365 h -5.98488 c -0.26458,0 -0.37835,-0.11642 -0.37835,-0.3863 q -0.003,-1.52135 -0.003,-3.04535 z m 6.10658,-2.78077 h -5.44248 v 5.55625 h 5.45307 c 0,-0.50006 0,-0.99219 0,-1.48167 a 0.38364583,0.38364583 0 0 1 0.23548,-0.38364 c 0.54768,-0.26459 1.09273,-0.56092 1.64041,-0.84138 l 0.12965,-0.0741 -0.14552,-0.0767 c -0.52917,-0.26458 -1.05834,-0.55298 -1.60602,-0.82286 a 0.41539583,0.41539583 0 0 1 -0.26459,-0.42597 c 0.008,-0.47361 0,-0.96573 0,-1.44992 z"
       id="path5632"
       inkscape:connector-curvature="0"
       style="fill:#81bee8;stroke-width:0.26458332" />
    <path
       class="cls-53"
       d="m 117.34027,142.5645 c 0.56356,-0.5662 1.11125,-1.11654 1.66423,-1.66422 a 0.52916667,0.52916667 0 0 1 0.1905,-0.12701 0.30691667,0.30691667 0 0 1 0.35983,0.14288 0.32808333,0.32808333 0 0 1 -0.0344,0.38894 c -0.0185,0.0238 -0.0423,0.045 -0.0635,0.0661 l -1.82298,1.82563 a 0.35454167,0.35454167 0 0 1 -0.58473,0 l -0.85989,-0.86254 a 0.33072917,0.33072917 0 1 1 0.46037,-0.46302 z"
       id="path5634"
       inkscape:connector-curvature="0"
       style="fill:#81bee8;stroke-width:0.26458332" />
  </g>
</svg>
