<?xml version="1.0" encoding="UTF-8" standalone="no"?>
<!-- Created with Inkscape (http://www.inkscape.org/) -->

<svg
   xmlns:dc="http://purl.org/dc/elements/1.1/"
   xmlns:cc="http://creativecommons.org/ns#"
   xmlns:rdf="http://www.w3.org/1999/02/22-rdf-syntax-ns#"
   xmlns:svg="http://www.w3.org/2000/svg"
   xmlns="http://www.w3.org/2000/svg"
   xmlns:sodipodi="http://sodipodi.sourceforge.net/DTD/sodipodi-0.dtd"
   xmlns:inkscape="http://www.inkscape.org/namespaces/inkscape"
   id="svg2"
   version="1.1"
   inkscape:version="0.91 r13725"
   width="563.85431"
   height="377.17313"
   viewBox="0 0 563.85431 377.17313"
   sodipodi:docname="SoGive-Light.svg">
  <metadata
     id="metadata8">
    <rdf:RDF>
      <cc:Work
         rdf:about="">
        <dc:format>image/svg+xml</dc:format>
        <dc:type
           rdf:resource="http://purl.org/dc/dcmitype/StillImage" />
        <dc:title></dc:title>
      </cc:Work>
    </rdf:RDF>
  </metadata>
  <defs
     id="defs6" />
  <sodipodi:namedview
     pagecolor="#ffffff"
     bordercolor="#666666"
     borderopacity="1"
     objecttolerance="10"
     gridtolerance="10"
     guidetolerance="10"
     inkscape:pageopacity="0"
     inkscape:pageshadow="2"
     inkscape:window-width="1920"
     inkscape:window-height="1029"
     id="namedview4"
     showgrid="false"
     fit-margin-top="10"
     fit-margin-left="10"
     fit-margin-right="10"
     fit-margin-bottom="10"
     inkscape:zoom="0.96586785"
     inkscape:cx="99.49516"
     inkscape:cy="196.75071"
     inkscape:window-x="0"
     inkscape:window-y="0"
     inkscape:window-maximized="1"
     inkscape:current-layer="svg2" />
  <g
     id="g4180"
     transform="translate(6.2324184,6.0215656)">
    <path
       style="fill:#78d478"
       d="m 258.45,154.97944 c -3.51093,-0.57862 -7.58011,-1.67944 -6.20806,-1.67944 0.18806,0 2.67431,-0.40054 5.525,-0.8901 24.90907,-4.2777 45.67282,-14.46739 60.13462,-29.51074 11.11398,-11.56089 19.66002,-25.751903 27.67395,-45.953604 l 2.14392,-5.404449 2.01528,-0.969438 c 1.10841,-0.53319 3.09528,-1.779699 4.41528,-2.770017 1.32,-0.990318 2.48928,-1.800819 2.59839,-1.801113 0.57036,-0.0015 -2.49555,10.161141 -4.84329,16.054293 -4.66482,11.709358 -12.08592,23.920098 -21.14676,34.795168 -5.75661,6.90923 -14.50971,15.62709 -20.40834,20.32617 -11.22655,8.94351 -23.52268,15.07008 -34.8,17.33917 -4.13787,0.83258 -13.34753,1.08254 -17.09999,0.4641 z m -15.75,-9.40955 c 0,-0.48945 2.36908,-2.43071 3.9572,-3.24258 1.90287,-0.97277 4.99178,-1.76595 9.8428,-2.52749 5.48662,-0.86131 6.14195,-1.03855 10.8,-2.92101 24.03957,-9.7151 39.26171,-19.95701 49.51583,-33.31571 2.12766,-2.77185 4.86615,-6.981091 4.66968,-7.177585 -0.0583,-0.05827 -1.30062,0.240261 -2.76078,0.663396 -7.61733,2.207415 -13.64862,2.675499 -31.17474,2.41944 -9.17351,-0.134025 -15.24467,-0.09017 -18.1092,0.130806 -2.37007,0.182835 -4.3637,0.277944 -4.43029,0.211356 -0.10242,-0.102423 0.24107,-2.023995 0.94929,-5.31051 0.10075,-0.467538 -0.16884,-0.182766 -0.71582,0.756129 -0.4826,0.828372 -1.48859,2.06946 -2.23553,2.757972 -2.33178,2.149356 -4.60148,3.077066 -14.15844,5.787076 -9.87176,2.79927 -19.55301,11.06709 -25.29127,21.59882 -1.06854,1.96115 -2.52339,5.18104 -3.18221,7.04289 -0.19059,0.53862 -0.26672,0.50299 -0.83169,-0.38932 -1.0573,-1.66989 -0.4916,-5.61603 1.26389,-8.81658 0.15477,-0.28216 0.84162,-2.03716 1.52635,-3.9 8.17114,-22.230026 22.59728,-38.773002 39.71493,-45.542523 2.33979,-0.925323 2.48277,-0.944226 5.7,-0.753681 5.49588,0.325509 12.39333,1.009014 22.79999,2.259375 5.445,0.654219 12.195,1.409196 15,1.677729 6.28389,0.601581 18.25665,0.682119 22.8,0.153369 4.04556,-0.47082 10.134,-1.628868 12.73449,-2.422155 1.06398,-0.324567 1.98291,-0.541698 2.0421,-0.482514 0.22776,0.227769 -2.79357,7.441716 -5.03565,12.023412 -7.20996,14.733618 -17.55279,28.161058 -29.68113,38.533158 -4.47912,3.83051 -12.30901,8.45464 -19.53222,11.53522 -7.10778,3.03134 -17.04779,5.94058 -25.17758,7.36896 -8.50402,1.49414 -21,2.61434 -21,1.88255 z M 174.9006,142.275 c 6e-4,-0.83907 1.0915,-6.28143 3.26222,-16.275 1.86989,-8.6086 2.26564,-11.72858 2.24509,-17.7 -0.016,-4.65734 -0.10551,-5.57884 -0.79266,-8.16299 -0.9218,-3.466552 -2.98093,-7.592617 -4.8585,-9.735413 C 174.01054,89.549972 173.4,88.716023 173.4,88.548371 c 0,-0.167652 0.31774,-0.554754 0.70609,-0.860229 0.69567,-0.547218 0.70871,-0.659238 0.88408,-7.596774 0.23964,-9.479538 1.07996,-15.285297 3.21872,-22.238256 0.49011,-1.593291 0.89111,-2.994816 0.89111,-3.114501 0,-0.119685 -0.54,-0.145182 -1.2,-0.05666 -0.66,0.08853 -1.2,0.09579 -1.2,0.01614 0,-0.07965 1.0609,-1.450555 2.35756,-3.046456 1.29666,-1.595898 4.04344,-5.085423 6.10397,-7.754499 l 3.74641,-4.852869 0.18772,5.002869 c 0.40275,10.733149 2.57663,23.053618 6.15263,34.86997 3.09981,10.242876 4.10315,16.606882 3.85206,24.432904 -0.17768,5.5378 -0.6444,8.16483 -2.29182,12.9 -1.40181,4.02923 -4.62454,10.35706 -8.76597,17.21195 -3.24819,5.37644 -3.81892,6.15948 -4.74256,6.50688 -0.5775,0.21721 -2.64776,1.01058 -4.60057,1.76305 -1.95281,0.75246 -3.60656,1.36811 -3.675,1.36811 -0.0684,0 -0.12416,-0.37125 -0.12383,-0.825 z m 45.30163,-82.499998 c 0.005,-0.45657 2.78712,-5.081865 4.42993,-7.363516 2.57343,-3.574188 7.7716,-8.432397 12.05464,-11.266281 6.5745,-4.350024 12.69291,-7.159167 26.91099,-12.355637 9.68727,-3.540531 16.49398,-6.240777 19.40795,-7.699193 1.13066,-0.565886 2.09544,-0.986469 2.14395,-0.934629 0.0485,0.05184 -0.8539,1.646755 -2.00537,3.544255 -6.30404,10.388433 -11.49093,16.856772 -17.5657,21.905397 -5.76155,4.788312 -12.27826,7.108158 -29.02862,10.333738 -6.19927,1.193778 -11.58684,2.486592 -14.37197,3.448731 -2.01623,0.696516 -1.9788,0.689184 -1.9758,0.387135 z"
       id="path4186"
       inkscape:connector-curvature="0" />
    <path
       style="fill:#909090"
       d="M 27.553559,360.85825 C 17.481132,359.70352 9.912547,354.96181 6.2853839,347.53381 4.2344525,343.33375 3.7886681,341.1307 3.7694117,335.10001 c -0.015447,-4.83804 0.050584,-5.50896 0.8414871,-8.55 2.5116774,-9.65748 7.7259492,-19.28088 13.9218662,-25.69404 5.161685,-5.34267 9.563044,-8.32923 14.995234,-10.17506 2.696805,-0.91637 3.211005,-0.99262 6.672,-0.98937 3.165846,0.003 4.017645,0.10811 5.468172,0.67499 2.405001,0.9399 3.56358,2.57083 3.110016,4.37798 -0.300267,1.19636 -1.89975,2.78311 -4.593909,4.55736 -5.962398,3.92653 -10.593414,10.22884 -12.968073,17.64814 -1.278505,3.9945 -1.623797,6.198 -1.598373,10.2 0.06163,9.70167 4.428642,15.84687 12.105879,17.03517 3.606741,0.5583 7.547997,-0.39909 12.932559,-3.14142 6.909507,-3.519 13.792155,-9.18471 18.882387,-15.54375 10.105763,-12.62478 11.827034,-28.03336 4.308555,-38.56957 -2.571606,-3.60378 -4.67547,-5.07713 -11.928828,-8.35383 -4.521846,-2.04275 -8.11467,-5.05847 -10.602021,-8.89907 -3.889917,-6.00622 -5.020065,-12.23075 -3.752976,-20.67029 0.695994,-4.63571 0.766737,-4.40829 -1.881783,-6.04945 -4.676025,-2.89752 -6.342945,-4.1004 -7.617768,-5.4971 -1.607016,-1.76066 -2.901258,-4.14518 -3.528045,-6.50012 -0.56778,-2.13323 -0.549816,-6.97555 0.03889,-10.48271 1.677567,-9.99394 8.817225,-22.7165 15.969132,-28.45628 2.029326,-1.62865 3.517953,-2.22746 5.149347,-2.07139 1.631763,0.15612 1.889949,0.94177 1.610211,4.89981 -0.412545,5.83708 -0.289455,11.78406 0.288111,13.92004 0.549843,2.03344 3.150756,7.82996 3.513321,7.82996 0.555864,0 2.19516,-1.70896 7.034958,-7.33389 9.227988,-10.725 11.781758,-13.32408 16.979849,-17.28104 8.338317,-6.34742 19.46423,-11.57213 28.78039,-13.51521 4.54046,-0.94701 9.84593,-0.95058 12.9,-0.009 5.31159,1.63815 8.67484,4.26481 10.7375,8.38588 1.51513,3.02714 1.99677,5.7262 1.77537,9.9491 -0.44718,8.52968 -4.54926,16.78436 -12.35665,24.86543 -6.87044,7.11129 -13.92847,11.97653 -23.25622,16.03099 -6.47421,2.81413 -13.242664,4.80761 -25.644462,7.55295 -3.461952,0.76635 -6.329199,1.42811 -6.371658,1.47057 -0.04246,0.0425 1.102548,0.96467 2.544462,2.04935 2.848557,2.14283 4.876658,3.24116 9.570008,5.18271 11.315544,4.681 18.47142,14.5923 19.9283,27.60182 0.86633,7.73608 -1.2364,19.38259 -5.0638,28.04719 -9.149959,20.71392 -29.212053,39.81639 -49.895457,47.50881 -9.351093,3.47778 -17.295537,4.66005 -25.213833,3.75225 z M 95.699998,226.46531 c 14.503132,-1.94745 27.103152,-10.8901 30.160092,-21.40563 0.60657,-2.08653 0.48599,-5.22022 -0.25608,-6.65523 -0.72109,-1.39443 -2.2718,-2.82394 -3.79363,-3.49711 -4.76665,-2.10852 -14.39664,1.4845 -24.610382,9.18229 -3.680775,2.77409 -11.356443,10.46417 -13.591767,13.61729 -1.606409,2.26597 -4.705955,7.48996 -4.707548,7.93412 -9e-4,0.2627 3.510663,0.90244 6.43334,1.17202 2.707383,0.24973 6.9852,0.10622 10.365975,-0.34775 z m -8.235,122.15756 c 0.15675,-0.15243 2.3775,-0.74892 4.935,-1.32552 2.5575,-0.57663 4.27875,-1.05942 3.825,-1.07289 -2.147808,-0.0637 -0.0517,-1.28625 4.725002,-2.75589 1.485,-0.45687 2.565,-0.84351 2.4,-0.85917 -0.165,-0.0156 -0.0537,-0.21519 0.24741,-0.4434 0.48577,-0.36819 0.4046,-0.39576 -0.72093,-0.2448 -1.94964,0.26151 -1.2042,-0.36927 0.98974,-0.83751 1.52094,-0.3246 1.73932,-0.43824 1.13378,-0.58992 -0.71286,-0.17859 -0.71912,-0.19815 -0.12648,-0.39471 0.34293,-0.11373 2.36793,-0.59778 4.5,-1.07565 2.13206,-0.47787 3.58847,-0.88113 3.23647,-0.89613 -0.37328,-0.0159 -0.70541,-0.27732 -0.79692,-0.62727 -0.1452,-0.55527 -0.41066,-0.60024 -3.55999,-0.6033 -4.04669,-0.004 -5.65308,-0.22509 -5.65308,-0.77826 0,-0.22167 0.37125,-0.59418 0.825,-0.82785 1.47385,-0.75891 9.69575,-3.23814 14.16531,-4.2714 l 4.35969,-1.00788 -2.55,0.18282 c -1.4025,0.10056 -2.48039,0.10716 -2.39532,0.0147 0.20616,-0.22413 11.74204,-3.78348 18.198,-5.61492 12.37807,-3.51147 38.52361,-8.71155 61.74732,-12.28092 4.29,-0.65937 8.11059,-1.25211 8.49021,-1.31721 0.58623,-0.10053 0.82937,0.15831 1.61382,1.71795 2.16302,4.3005 6.87269,10.10298 10.57926,13.03401 0.65081,0.51465 1.10377,1.01523 1.00658,1.1124 -0.0972,0.0972 -2.24967,0.38841 -4.78329,0.64713 -2.88563,0.29469 -4.72446,0.61506 -4.92212,0.85761 -0.43178,0.52983 -2.80975,0.91674 -10.03446,1.63269 -3.3825,0.33519 -7.09495,0.81036 -8.24989,1.05594 -1.15494,0.24558 -2.12945,0.44652 -2.16559,0.44652 -0.0361,0 0.007,0.18969 0.0961,0.4215 0.19301,0.50298 0.7714,0.37458 -9.63058,2.13828 -16.81879,2.85174 -40.57308,7.27611 -59.55,11.09151 -7.85645,1.57959 -13.24089,2.48604 -17.85,3.00495 -6.590552,0.74202 -14.642543,1.00878 -14.085002,0.46662 z M 244.05,327.71566 c -7.41783,-1.33062 -14.55585,-4.95555 -19.63812,-9.9729 -13.40994,-13.23864 -16.25236,-37.16194 -7.48117,-62.96554 1.93809,-5.7016 4.5943,-11.95681 7.48299,-17.62196 5.14599,-10.09209 8.40698,-15.05465 14.98572,-22.80525 5.00749,-5.89947 6.49959,-7.8932 6.79849,-9.0841 0.11559,-0.46055 -0.30015,-1.80862 -1.22801,-3.98195 -2.19281,-5.13621 -2.37118,-5.93586 -2.17134,-9.73395 0.23653,-4.49526 1.24801,-8.07517 3.6448,-12.90001 2.33553,-4.70152 4.85095,-8.11761 8.65573,-11.75501 3.5099,-3.35548 5.76201,-4.59499 8.34882,-4.59499 1.75656,0 2.85801,0.5766 3.00867,1.575 0.0311,0.20625 0.0649,3.8175 0.075,8.025 0.0149,6.198 0.12404,8.17705 0.57491,10.42676 0.30607,1.52722 0.67225,2.84831 0.81375,2.93576 0.41179,0.2545 2.84669,-1.09987 10.07777,-5.6056 10.76228,-6.70603 14.88711,-8.65419 23.16001,-10.9385 6.60699,-1.82433 11.67435,-2.5613 18.83238,-2.7389 9.03054,-0.22406 13.76217,0.64415 19.30539,3.54236 8.30385,4.34159 12.60783,11.08716 12.6021,19.75111 -0.007,11.20727 -7.41498,21.11538 -20.80815,27.83231 -9.19656,4.61225 -20.99529,6.78908 -36.78975,6.7876 -9.25782,-9e-4 -10.62467,-0.18409 -19.87914,-2.66465 -3.33897,-0.89497 -6.59492,-1.62745 -7.23545,-1.62773 -1.63435,-6e-4 -2.87421,0.87515 -4.78985,3.38366 -2.39695,3.13879 -4.60308,6.9768 -8.40135,14.61583 -9.74756,19.60415 -13.69078,33.45503 -13.70789,48.15 -0.009,7.35138 0.85216,12.05968 3.01631,16.5 3.81364,7.82463 9.92813,11.04567 19.09452,10.05876 5.83809,-0.62856 10.71291,-2.73105 15.20627,-6.55842 5.9426,-5.06178 9.63118,-12.65938 10.00133,-20.60034 0.26605,-5.70785 -1.13874,-10.12313 -4.19242,-13.17681 -1.95564,-1.95564 -3.98376,-3.02875 -6.57795,-3.48052 -2.01257,-0.35047 -3.79726,-0.14314 -8.93437,1.03793 -3.64757,0.8386 -6.71612,0.4341 -7.47586,-0.98548 -1.10268,-2.06038 0.22528,-4.87293 4.1393,-8.76685 5.51394,-5.48562 12.28654,-9.16882 29.28655,-15.92716 8.35266,-3.32059 13.56702,-5.16219 19.46682,-6.87523 11.15952,-3.24026 18.30387,-4.09568 20.10069,-2.40677 1.15413,1.08481 1.48797,2.47919 1.29513,5.40943 -0.22311,3.38974 -1.4676,7.35183 -2.65872,8.4645 -1.1811,1.10332 -4.57848,2.37178 -9.85392,3.6791 -7.41027,1.83637 -10.82325,2.29915 -19.05,2.5831 -7.51989,0.25954 -11.35012,0.49678 -12.75,0.78973 -0.53544,0.11205 0.53734,0.52884 3.75,1.45694 10.93776,3.15975 14.87148,4.99785 18.23886,8.52247 2.7159,2.84271 4.21656,5.44197 5.05416,8.7542 0.80451,3.18144 0.66144,8.47009 -0.32388,11.97142 -0.90198,3.20517 -4.17462,9.59741 -6.49326,12.68288 -10.8621,14.45446 -31.30965,25.91812 -51.46438,28.85284 -3.98325,0.57999 -11.82429,0.56958 -15.11149,-0.0201 z m 66.38681,-119.53155 c 12.0882,-1.3108 20.82528,-6.07211 24.16515,-13.16888 2.80485,-5.95996 -1.083,-11.57769 -8.76435,-12.66397 -7.2918,-1.0312 -17.92485,2.12128 -27.83824,8.25346 -4.53009,2.8022 -15.69938,10.96075 -15.69938,11.46754 0,0.32254 3.98397,2.06219 7.40751,3.23458 8.10573,2.77581 14.05269,3.60126 20.72931,2.87727 z m 5.94771,104.3409 c 0.12099,-0.20625 0.75666,-1.1736 1.41261,-2.14968 2.43639,-3.62529 4.92516,-9.55767 5.48904,-13.08396 0.1134,-0.70921 0.35517,-1.19136 0.59739,-1.19136 0.85686,0 21.54309,-1.83469 27.11643,-2.405 9.41355,-0.96326 42.44532,-2.34068 65.25,-2.72092 17.37456,-0.28969 23.2863,-0.26747 39.86187,0.14982 18.47052,0.465 25.49247,0.83614 45.93813,2.42806 3.135,0.24409 6.01173,0.44476 6.3927,0.44592 0.381,0.001 0.61524,0.12746 0.52056,0.28067 -0.0947,0.1532 0.87609,0.50153 2.1573,0.77406 3.08961,0.65722 3.66531,0.84083 3.75444,1.19739 0.13155,0.52621 -1.58157,0.49329 -8.18172,-0.15721 -14.89026,-1.46757 -29.81673,-0.95871 -34.65483,1.18141 -0.75066,0.33205 -1.77102,0.89296 -2.26746,1.24645 -0.8784,0.62548 -1.11822,0.63986 -8.94099,0.53604 -6.83325,-0.0907 -8.03403,-0.0423 -8.00919,0.32267 0.0439,0.64578 -2.01804,1.14231 -8.22081,1.97961 -8.21046,1.10832 -10.2,1.53939 -10.2,2.21007 0,0.17418 -7.27572,0.33276 -18.825,0.41028 l -18.825,0.12639 -7.8,0.95853 c -4.29,0.52722 -11.58,1.28457 -16.2,1.68306 -15.65223,1.35003 -28.34283,2.71719 -46.02468,4.95819 -10.58784,1.34193 -10.65009,1.34685 -10.34079,0.81951 z M 123.6,303.47011 c -5.13209,-1.43028 -8.5778,-5.31694 -9.79473,-11.04813 -0.6568,-3.09325 -0.39666,-11.26382 0.48942,-15.37197 6.23344,-28.90005 32.32829,-56.25 53.66867,-56.25 4.37091,0 7.82744,1.24489 10.56414,3.80475 3.25968,3.04906 4.75878,6.82117 4.98567,12.54525 0.12961,3.26974 0.042,4.10632 -0.95524,9.11928 -0.96955,4.87386 -1.046,5.57122 -0.65376,5.96346 0.31972,0.31972 1.40786,0.4867 3.88371,0.59596 2.96889,0.13101 3.74211,0.0608 5.65083,-0.51293 4.5524,-1.36845 8.10645,-4.0494 10.16226,-7.66577 1.99617,-3.51146 5.23932,-6.13887 7.58766,-6.14707 2.24817,-0.008 3.07708,3.08216 1.68188,6.26971 -0.9722,2.22115 -3.89151,6.30767 -6.42051,8.98759 -5.16105,5.46904 -11.54569,9.16434 -18.03788,10.43994 -2.28387,0.44874 -3.00152,0.46535 -5.93022,0.13727 l -3.3319,-0.37325 -0.75201,0.89414 c -0.41361,0.49178 -1.81605,2.89608 -3.11654,5.3429 -2.98404,5.61432 -3.70673,6.73986 -6.7839,10.56543 -9.50718,11.81941 -21.99907,20.37103 -33.10963,22.66597 -2.67674,0.5529 -7.86721,0.57279 -9.78792,0.0375 z m 22.17152,-24.33191 c 3.70169,-0.87255 7.93101,-3.18988 11.61903,-6.3663 3.1573,-2.71932 8.56827,-9.54279 10.18048,-12.83803 0.95829,-1.95867 0.91119,-2.13504 -1.36211,-5.10103 -2.24606,-2.93044 -2.85892,-5.17763 -2.85892,-10.48283 0,-3.75312 0.0878,-4.47594 0.825,-6.79339 0.45375,-1.42636 0.825,-2.6937 0.825,-2.8163 0,-0.31177 -3.09654,0.0857 -5.08853,0.65317 -0.91381,0.26032 -2.74323,0.99682 -4.06538,1.63667 -9.30185,4.5016 -18.12875,17.63011 -20.15566,29.97815 -0.4187,2.55072 -0.44542,3.45262 -0.16025,5.40916 0.88929,6.10145 4.05507,8.17895 10.24134,6.72073 z m 343.67847,4.95296 c -9.21681,-1.04338 -15.27954,-3.7207 -20.7,-9.14115 -4.14552,-4.14551 -6.55848,-8.688 -7.27704,-13.69918 l -0.22956,-1.60082 -4.0467,-0.18939 c -5.6835,-0.26599 -7.81707,-1.01089 -12.96012,-4.52476 -1.6437,-1.12302 -2.75688,-1.69995 -3,-1.55483 -1.35684,0.80984 -3.38274,2.8133 -8.59353,8.49827 -6.81363,7.43365 -9.75726,10.11441 -13.66971,12.44905 -6.56736,3.91889 -12.27468,5.64238 -18.77334,5.66915 -5.73459,0.0236 -9.1083,-1.06986 -11.89632,-3.85583 -3.03354,-3.03129 -4.36422,-6.94327 -4.40766,-12.95767 -0.0264,-3.66391 -0.0267,-3.6657 -0.63627,-3.11995 -7.30095,6.53815 -15.74091,12.56764 -22.70892,16.22326 -6.61899,3.47249 -10.71471,4.49452 -15.73329,3.92601 -4.89756,-0.5548 -7.42836,-1.6146 -9.67434,-4.05121 -2.20122,-2.38803 -2.57346,-3.5846 -2.57031,-8.2621 0.003,-4.85465 0.36429,-6.13728 4.09482,-14.55 1.31703,-2.97 3.51621,-7.965 4.88709,-11.1 5.28087,-12.07667 12.8214,-27.56125 14.53608,-29.85 2.36682,-3.15925 4.4169,-4.28208 9.82548,-5.3814 6.25326,-1.27101 11.48175,-1.37428 13.26285,-0.26196 1.62747,1.01636 1.54545,3.38633 -0.24141,6.97507 -1.20288,2.41592 -8.25861,14.89212 -15.78876,27.91829 -6.0897,10.53435 -8.84904,16.34066 -8.84904,18.62048 0,1.59507 1.0788,2.53073 2.91135,2.52508 6.36018,-0.0196 15.86013,-5.49433 24.40707,-14.06557 4.98336,-4.99752 7.16745,-8.01175 9.47772,-13.07999 3.93279,-8.6278 10.26474,-18.42026 14.98329,-23.17194 3.58209,-3.60724 8.23635,-5.02806 16.47057,-5.02806 4.99767,0 6.18879,0.33158 6.78714,1.88937 0.72546,1.88872 -0.0503,3.57561 -4.362,9.48586 -6.87807,9.42796 -11.26845,16.45009 -14.4135,23.05342 -4.31577,9.0614 -5.2497,14.71245 -2.90928,17.6041 2.74407,3.39038 8.18502,3.22785 13.87407,-0.41443 2.30118,-1.47328 10.60248,-9.60222 12.91371,-12.64558 1.4154,-1.86373 1.43334,-2.32998 0.24747,-6.42338 -0.50181,-1.73215 -0.9912,-4.02878 -1.08756,-5.10363 -0.48627,-5.42409 2.07066,-13.85069 5.9277,-19.53518 1.52643,-2.24965 4.18173,-4.57569 6.56595,-5.75178 1.67568,-0.82658 2.26155,-0.95877 4.24914,-0.95877 2.08335,0 2.43039,0.0878 3.60189,0.91114 3.34194,2.34882 4.76862,7.36776 3.74904,13.18886 -0.97863,5.58735 -3.90828,12.78404 -7.35759,18.07396 -1.17489,1.80185 -2.13618,3.50403 -2.13618,3.78261 0,0.29076 0.78003,1.01066 1.83126,1.69011 3.3003,2.13309 6.47595,2.97146 9.72015,2.56612 1.92306,-0.24027 1.64445,0.18493 3.29502,-5.02867 1.30047,-4.10768 3.77088,-9.14746 6.399,-13.05424 6.40338,-9.51884 14.02935,-15.56239 23.03445,-18.25467 3.86193,-1.15461 10.0185,-1.36644 13.63704,-0.46923 3.08871,0.76584 7.88166,3.14019 10.39437,5.14917 8.94636,7.15291 10.36845,18.36581 3.411,26.89489 -4.07139,4.99107 -14.01633,10.2072 -22.20603,11.64709 -1.386,0.24368 -5.08707,0.72278 -8.22462,1.06467 -3.13755,0.34188 -5.88882,0.72469 -6.11397,0.85068 -0.32205,0.18023 -0.13953,0.75528 0.85584,2.69667 2.13474,4.16352 5.77209,6.91059 11.06649,8.35781 2.88027,0.78732 9.6753,0.70426 13.5,-0.16502 4.87557,-1.10811 8.67294,-2.47643 13.19382,-4.75416 5.79219,-2.91824 9.23847,-5.43117 14.05476,-10.2483 2.45829,-2.45869 4.48188,-4.21937 5.25063,-4.56841 2.37759,-1.07951 5.01162,-0.59383 5.91141,1.08998 0.63735,1.19274 0.51831,3.64284 -0.24909,5.126 -0.97452,1.88349 -3.9294,5.4207 -7.50537,8.98441 -10.61499,10.57868 -23.31324,17.3194 -36.65616,19.45849 -3.61722,0.5799 -10.23675,0.80362 -13.35,0.45119 z m -0.63525,-38.54156 c 9.13401,-1.37672 14.60478,-3.88233 19.03638,-8.71866 1.00344,-1.09508 2.12244,-2.60664 2.48667,-3.359 1.34088,-2.76994 0.5622,-5.34339 -2.0865,-6.89564 -1.19955,-0.70298 -1.71417,-0.81529 -3.6489,-0.79634 -2.72565,0.0267 -4.73463,0.73854 -7.881,2.7925 -4.63989,3.02897 -8.2599,7.75767 -11.33187,14.80255 l -1.14465,2.625 0.80256,-0.002 c 0.44142,-9e-4 2.13669,-0.20286 3.76731,-0.44864 z M 148.03018,216.89213 c 0.52417,-5.31949 2.45674,-10.73777 7.37316,-20.67182 4.74287,-9.5834 4.99122,-10.21247 5.39681,-13.6703 0.53613,-4.57068 1.70571,-11.45415 2.87999,-16.95001 1.36324,-6.38017 5.47296,-23.36919 5.842,-24.15 0.3316,-0.7016 2.67243,-12.18047 3.5483,-17.4 1.48307,-8.83806 1.65437,-10.84865 1.64855,-19.35 -0.005,-7.199724 -0.0896,-8.70474 -0.66526,-11.822049 -0.3628,-1.964628 -0.60683,-3.624847 -0.54231,-3.689374 0.29538,-0.295383 2.7269,3.018109 3.9615,5.398435 3.22835,6.224318 3.86818,13.920098 2.05048,24.662988 -0.25126,1.485 -1.26923,6.4125 -2.26214,10.95 -0.99292,4.5375 -1.94398,9.33 -2.11348,10.65 -0.4506,3.50917 -1.9783,10.13989 -5.52954,24 -1.73332,6.765 -3.23082,12.56843 -3.32778,12.8965 -0.097,0.32808 0.91517,-0.70161 2.24916,-2.2882 11.89136,-14.14299 26.10716,-26.1677 42.38549,-35.8526 7.02995,-4.18251 11.46177,-6.12899 26.21112,-11.51206 14.12061,-5.1536 19.95222,-7.83429 26.41377,-12.14197 1.815,-1.20999 4.06413,-2.88662 4.99807,-3.72583 0.93395,-0.83921 1.78813,-1.52584 1.8982,-1.52584 0.28579,0 -2.33103,3.68851 -3.99204,5.62691 -3.25028,3.7931 -9.26027,8.20499 -15.50423,11.38155 -4.4055,2.24125 -8.16788,3.85607 -17.00123,7.29696 -3.74068,1.45712 -7.31818,2.92539 -7.95,3.26282 -0.63183,0.33743 -3.55368,1.75992 -6.493,3.16109 -6.41796,3.05943 -9.4672,4.76515 -15.16307,8.48209 -23.77395,15.51407 -41.65323,38.05758 -50.44211,63.6011 l -1.54933,4.50292 -1.55063,0.34887 c -0.85285,0.19188 -1.87388,0.43425 -2.26896,0.5386 l -0.71833,0.18974 0.21684,-2.20052 z M 371.12441,194.8433 c -2.19156,-0.61596 -3.4656,-1.45261 -4.48527,-2.94537 -1.24827,-1.82744 -1.6188,-3.25243 -1.48158,-5.69795 0.15363,-2.7377 1.20282,-4.92431 3.63801,-7.58189 2.16216,-2.35962 4.81599,-4.29322 7.75233,-5.64842 3.40407,-1.57106 5.60937,-2.03629 9.10173,-1.92007 2.70045,0.0899 3.22869,0.20472 5.03466,1.09469 1.40994,0.6948 2.32839,1.40125 3.04938,2.34546 5.11629,6.70064 -0.35148,16.0165 -11.53368,19.65074 -3.51969,1.1439 -8.40357,1.45382 -11.07558,0.70281 z M 238.5,153.08848 c -4.22167,-0.26867 -7.3181,-1.47313 -8.54211,-3.32274 -0.83218,-1.2575 -1.26658,-2.90135 -0.8369,-3.16691 0.1548,-0.0957 1.68715,-0.18999 3.40523,-0.20961 5.57406,-0.0636 17.99988,-0.88019 23.07378,-1.51627 18.81116,-2.35823 34.69012,-7.73193 47.24714,-15.98921 10.17276,-6.68941 21.92235,-19.66215 30.25431,-33.403877 3.65202,-6.023203 7.84488,-14.738959 9.6357,-20.029861 1.40505,-4.15119 5.36457,-11.106711 7.32726,-12.871497 0.62502,-0.561993 0.63546,-0.561993 0.62763,0 -0.0135,0.964185 -2.51958,8.06088 -5.02935,14.241642 -8.59986,21.178792 -16.61832,34.488153 -27.76113,46.079013 -14.22738,14.79949 -34.33167,24.78996 -59.12684,29.38202 -3.73186,0.69114 -5.08219,0.78888 -11.57472,0.83781 -4.0425,0.0305 -7.9575,0.0167 -8.7,-0.0305 z m -82.67999,-8.74405 c -1.67137,-1.22219 -4.08847,-3.87082 -5.39184,-5.90831 -1.42145,-2.22209 -2.86566,-5.36791 -5.15837,-11.23612 -1.67253,-4.28086 -1.84863,-4.95959 -2.21828,-8.55 -0.22344,-2.17031 -0.39635,-7.15978 -0.38986,-11.25 0.01,-6.23398 0.11261,-7.91499 0.67643,-11.070999 1.52411,-8.531185 5.63806,-17.435602 11.72541,-25.378999 2.32954,-3.039828 7.16867,-8.416929 13.22927,-14.7 14.14912,-14.66851 18.38416,-20.516275 22.21912,-30.68035 1.17808,-3.12237 2.09504,-4.269651 3.41248,-4.269651 0.64373,0 1.20479,0.248811 1.66451,0.738162 0.76471,0.813998 0.77465,0.595654 -0.25326,5.561838 -1.78248,8.611776 -1.54437,18.754446 0.73076,31.12789 0.41687,2.26716 1.827,8.982111 3.13362,14.922111 2.57979,11.727945 3.65071,17.27764 4.21469,21.841264 0.50207,4.062717 0.22366,11.537764 -0.56768,15.241174 -1.8912,8.85074 -6.12097,17.56803 -12.13892,25.01756 -2.42686,3.00418 -8.37159,8.80951 -8.53108,8.33104 -0.15941,-0.47821 1.3713,-3.25931 6.28043,-11.41076 8.12448,-13.49044 10.32995,-19.56634 10.64291,-29.32028 0.25109,-7.826013 -0.75225,-14.190019 -3.85206,-24.432895 -3.57657,-11.81823 -5.74989,-24.136689 -6.15278,-34.874218 l -0.18788,-5.007114 -4.22882,5.465856 c -5.94031,7.678017 -6.54374,8.39421 -12.17336,14.448373 -6.19552,6.662727 -8.55011,9.35082 -11.56233,13.2 -8.43056,10.773051 -12.71589,21.157243 -13.24698,32.099998 -0.38148,7.8602 1.53729,15.38668 6.88325,27 0.83549,1.815 1.76725,3.62237 2.07057,4.01639 0.79089,1.02735 1.75004,4.34822 1.75004,6.05914 0,1.43324 -0.74827,3.87447 -1.18756,3.87447 -0.12233,0 -0.74892,-0.385 -1.39243,-0.85557 z m 63.82926,-21.65832 c -1.11849,-0.68019 -1.84927,-2.15986 -1.84927,-3.74433 0,-0.59263 0.32797,-2.52071 0.72882,-4.28464 4.30522,-18.944852 18.39286,-35.92935 37.75613,-45.51996 8.28893,-4.1055 13.01988,-5.121894 22.56504,-4.847868 6.07067,0.174282 9.27718,0.612465 17.97804,2.456784 2.73458,0.579648 7.16571,1.518723 9.84696,2.086833 13.99035,2.964309 22.84749,3.137793 31.54335,0.617832 1.46367,-0.424155 2.71254,-0.719865 2.77527,-0.657135 0.19053,0.190521 -3.22737,2.471688 -5.14362,3.432936 -4.19409,2.103897 -8.86467,3.07344 -14.80566,3.07344 -4.88049,0 -9.31266,-0.606693 -20.6787,-2.830578 -12.203,-2.387643 -14.36065,-2.674485 -20.16564,-2.680851 -5.05236,-0.0055 -8.22582,0.459942 -11.87132,1.741287 -1.14327,0.401847 -3.09117,1.085211 -4.32867,1.518588 -3.31345,1.160382 -9.06897,4.048833 -12.15,6.097563 -12.52682,8.329701 -23.14006,22.795549 -29.53336,40.253989 -0.69487,1.8975 -1.35758,3.54796 -1.47269,3.66768 -0.11512,0.11972 -0.65272,-0.052 -1.19468,-0.38157 z M 214.0429,72.539678 c -0.30053,-0.783168 0.38873,-5.636643 1.19619,-8.423001 0.40261,-1.389324 1.75101,-4.927338 2.99646,-7.86225 C 219.481,53.319514 220.5,50.783995 220.5,50.61994 c 0,-0.974037 4.46545,-6.223368 7.65,-8.992899 6.78441,-5.900265 14.11874,-9.603744 31.95,-16.133207 12.43746,-4.554361 19.13841,-7.705825 24.74399,-11.637135 2.5962,-1.820767 7.84671,-6.7461582 9.306,-8.7297619 0.495,-0.6728484 1.1025,-1.1885715 1.35,-1.146051 0.2475,0.042521 0.62326,0.6061098 0.83502,1.2524205 0.61533,1.8780673 0.038,3.8326723 -2.23905,7.5805904 -1.08135,1.779857 -2.41695,3.978603 -2.96798,4.886103 -0.55104,0.907501 -1.20233,2.13295 -1.44733,2.723222 l -0.44544,1.073222 1.56918,-0.130129 c 1.19073,-0.09874 1.66558,-0.01397 1.9689,0.351508 0.84979,1.02394 -0.79164,3.160863 -5.80664,7.559469 -2.40921,2.113089 -3.42789,3.285999 -5.29329,6.094683 -9.59868,14.452533 -23.68949,24.20977 -39.24231,27.1735 -0.39542,0.07535 -1.13792,0.274119 -1.65,0.441708 -1.83791,0.601491 -4.27384,0.923286 -9.31143,1.230075 -7.95328,0.484353 -10.64019,1.036539 -13.15763,2.704023 -1.6606,1.099935 -2.46492,2.152041 -3.3954,4.441464 -0.4873,1.198971 -0.73645,1.53459 -0.87369,1.176933 z m 8.13513,-13.151811 c 2.78513,-0.962139 8.1727,-2.254953 14.37197,-3.448731 16.75036,-3.22558 23.26707,-5.545426 29.02862,-10.333738 6.07477,-5.048625 11.26166,-11.516964 17.5657,-21.905397 1.15147,-1.8975 2.05388,-3.492415 2.00537,-3.544255 -0.0485,-0.05184 -1.01329,0.368743 -2.14395,0.934629 -2.91397,1.458416 -9.72068,4.158662 -19.40795,7.699193 -14.21808,5.19647 -20.33649,8.005613 -26.91099,12.355637 -4.28304,2.833884 -9.48121,7.692093 -12.05464,11.266281 -1.64281,2.281651 -4.4254,6.906946 -4.42993,7.363516 -0.003,0.302049 -0.0404,0.309381 1.9758,-0.387135 z"
       id="path4184"
       inkscape:connector-curvature="0" />
    <path
       style="fill:#0aa10a"
       d="m 232.24488,144.45176 c -3.48504,-2.78356 -6.48637,-5.83027 -6.1121,-6.20454 0.16409,-0.16409 3.65508,-1.61316 7.75778,-3.22016 9.51098,-3.7254 12.60865,-5.05433 17.05944,-7.31861 6.24394,-3.17653 12.25395,-7.58843 15.50423,-11.38154 1.66101,-1.9384 4.27783,-5.62691 3.99204,-5.62691 -0.11007,0 -0.96425,0.68663 -1.8982,1.52584 -0.93394,0.83921 -3.18307,2.51584 -4.99807,3.72583 -6.46155,4.30768 -12.29316,6.98837 -26.41377,12.14197 -4.61243,1.6834 -10.18727,3.8057 -12.38854,4.71623 -2.94301,1.21735 -4.09083,1.567 -4.33676,1.32107 -0.50437,-0.50437 0.16392,-2.64286 2.03241,-6.50357 5.66392,-11.70292 15.75155,-20.80479 26.40666,-23.82619 9.55696,-2.71001 11.82666,-3.63772 14.15844,-5.787076 0.74694,-0.688512 1.75293,-1.9296 2.23553,-2.757972 0.54698,-0.938895 0.81657,-1.223667 0.71582,-0.756129 -0.70822,3.286515 -1.05171,5.208087 -0.94929,5.31051 0.0666,0.06659 2.06022,-0.02853 4.43029,-0.211356 2.86453,-0.220977 8.93569,-0.264831 18.1092,-0.130806 17.52612,0.256059 23.55741,-0.212025 31.17474,-2.41944 1.46016,-0.423135 2.70249,-0.721665 2.76078,-0.663396 0.19647,0.196494 -2.54202,4.405735 -4.66968,7.177585 -10.25412,13.3587 -25.47626,23.60061 -49.51583,33.31571 -4.65805,1.88246 -5.31338,2.0597 -10.8,2.92101 -4.85102,0.76154 -7.93993,1.55472 -9.8428,2.52749 -1.89007,0.96623 -4.03234,2.84418 -3.83403,3.36097 0.12252,0.31927 -0.22725,0.41213 -1.55759,0.41352 -0.94357,9e-4 -2.79558,0.0803 -4.11558,0.17631 l -2.4,0.17452 -2.50512,-2.00087 z m -69.34161,-6.26478 c -4.90416,-2.3326 -6.52806,-3.24226 -6.78664,-3.80164 -0.18695,-0.40444 -0.74862,-1.54534 -1.24816,-2.53534 -3.39845,-6.73507 -6.18913,-15.23861 -6.99021,-21.3 -0.72424,-5.47994 0.28497,-13.671777 2.44345,-19.83373 3.34285,-9.543033 9.14588,-17.838324 22.41815,-32.046231 3.50085,-3.747636 3.67111,-3.883875 4.9923,-3.994608 0.75231,-0.06305 1.36784,-0.02568 1.36784,0.08307 0,0.108744 -0.401,1.501317 -0.89111,3.094608 -2.13781,6.949851 -2.97906,12.758886 -3.21841,22.223787 l -0.17769,7.026894 -0.76498,0.658008 -0.76498,0.658008 0.73358,4.315099 c 0.65488,3.852099 0.73206,5.168106 0.71932,12.265095 -0.0117,6.52453 -0.13314,8.79445 -0.67722,12.65957 -1.05552,7.49847 -4.15971,23.66724 -4.53417,23.61708 -0.0959,-0.0128 -3.07537,-1.4032 -6.62107,-3.08967 z m -20.64958,-17.29417 c -4.01657,-6.13538 -4.46209,-15.53999 -1.25029,-26.392807 3.06235,-10.347805 11.49454,-27.349825 18.37494,-37.049788 6.80825,-9.598267 14.62117,-17.342191 22.7225,-22.52185 4.16679,-2.664072 5.69916,-3.499653 5.69916,-3.107673 0,0.577041 -2.94119,5.25747 -5.27113,8.388171 -2.91685,3.919311 -7.2136,8.760861 -14.2361,16.041139 -6.0606,6.283071 -10.89973,11.660172 -13.22927,14.7 -6.08522,7.940619 -10.19673,16.838094 -11.7276,25.378999 -0.56974,3.178701 -0.66833,4.814059 -0.67642,11.220999 -0.006,4.50852 0.15493,8.91111 0.40271,11.03781 0.22671,1.94579 0.35595,3.59405 0.2872,3.6628 -0.0687,0.0687 -0.56181,-0.54227 -1.0957,-1.3578 z m 70.63902,-40.939679 c -0.0907,-0.236325 -0.32297,-1.886208 -0.51619,-3.666405 -0.84432,-7.779246 0.85507,-15.872622 4.4922,-21.39411 1.40293,-2.129776 3.19482,-4.147762 3.43706,-3.870745 0.0616,0.07047 -0.88916,2.479653 -2.11285,5.353738 -2.58477,6.070854 -3.55779,9.213807 -4.01395,12.965424 -0.42856,3.524715 -0.16588,4.244694 0.73761,2.021712 0.93048,-2.289423 1.7348,-3.341529 3.3954,-4.441464 2.52178,-1.670358 5.16868,-2.212635 13.28801,-2.722347 2.8875,-0.181272 5.8575,-0.451806 6.6,-0.601191 2.49513,-0.502002 2.42223,-0.304782 -0.44307,1.19862 -3.66281,1.921848 -6.07865,3.443313 -15.02014,9.459498 -8.34798,5.616852 -9.59745,6.339984 -9.84408,5.69727 z"
       id="path4182"
       inkscape:connector-curvature="0" />
  </g>
</svg>
